<svg xmlns="http://www.w3.org/2000/svg" width="18" height="24" viewBox="0 0 18 24" fill="none">
  <path d="M14.5449 9.28287L14.5839 8.86993C14.6229 8.34137 14.6425 7.88438 14.6425 7.49897C14.6425 6.59601 14.5774 5.78115 14.4472 5.05437C14.3171 4.3276 14.0958 3.70544 13.7834 3.18789C13.4841 2.65933 13.0741 2.2574 12.5535 1.98211C12.0459 1.6958 11.4016 1.55265 10.6207 1.55265C9.67054 1.55265 8.78548 1.74536 7.96551 2.13077C7.15854 2.50517 6.36459 3.08879 5.58366 3.88163H4.17799V2.51067C5.41446 1.77289 6.3711 1.24983 7.04791 0.941503C7.73773 0.622164 8.42105 0.385409 9.09786 0.231245C9.78768 0.0770805 10.5361 0 11.343 0C13.5166 0 15.1436 0.627667 16.2239 1.883C17.3041 3.12732 17.8443 5.01583 17.8443 7.54852C17.8443 8.55059 17.7402 9.74536 17.5319 11.1328C17.3237 12.5093 16.9723 13.9463 16.4777 15.4439C15.9831 16.9415 15.4104 18.2134 14.7596 19.2595C14.1088 20.3056 13.3865 21.17 12.5925 21.8527C11.7986 22.5354 10.881 23.064 9.83974 23.4384C8.81151 23.8128 7.64662 24 6.34507 24C5.0305 24 3.89164 23.7743 2.92849 23.3228C1.96535 22.8603 1.23648 22.1996 0.741885 21.3407C0.247295 20.4707 0 19.4081 0 18.1528C0 16.9195 0.227771 15.6972 0.683315 14.4859C1.13886 13.2636 1.80265 12.1569 2.67469 11.1659C3.55975 10.1638 4.6075 9.37646 5.81794 8.80386C7.0414 8.23125 8.34946 7.94494 9.74213 7.94494C10.6792 7.94494 11.4992 8.03854 12.2021 8.22574C12.9049 8.40193 13.6858 8.7543 14.5449 9.28287ZM13.6077 12.4542C13.6077 11.331 13.3344 10.5162 12.7878 10.0096C12.2541 9.5031 11.4341 9.24983 10.3278 9.24983C9.53388 9.24983 8.77247 9.42602 8.0436 9.77839C7.32774 10.1198 6.68348 10.6153 6.11079 11.265C5.53811 11.9147 5.05653 12.669 4.66607 13.5279C4.28862 14.3868 3.98926 15.2622 3.768 16.1542C3.55975 17.0351 3.45562 17.9546 3.45562 18.9126C3.45562 19.9036 3.57927 20.68 3.82657 21.2416C4.08688 21.7922 4.42528 22.1721 4.84178 22.3813C5.25827 22.5905 5.7789 22.6951 6.40364 22.6951C7.80932 22.6951 9.00675 22.2216 9.99593 21.2746C10.9981 20.3166 11.8506 18.8851 12.5535 16.98C13.2563 15.064 13.6077 13.5554 13.6077 12.4542Z" fill="#0ABAB5"/>
</svg>