<svg xmlns="http://www.w3.org/2000/svg" width="24" height="24" viewBox="0 0 24 24" fill="none">
  <path d="M7.96983 7.49905C8.32765 7.49215 8.68325 7.55667 9.01584 7.68883C9.34843 7.82099 9.65132 8.01815 9.90681 8.26876C10.1623 8.51937 10.3653 8.81841 10.5038 9.14839C10.6424 9.47837 10.7137 9.83266 10.7137 10.1905C10.7137 10.5484 10.6424 10.9027 10.5038 11.2327C10.3653 11.5627 10.1623 11.8617 9.90681 12.1123C9.65132 12.3629 9.34843 12.5601 9.01584 12.6923C8.68325 12.8244 8.32765 12.8889 7.96983 12.882C7.25587 12.882 6.57115 12.5984 6.0663 12.0936C5.56145 11.5887 5.27783 10.904 5.27783 10.19C5.27783 9.47608 5.56145 8.79136 6.0663 8.28652C6.57115 7.78167 7.25587 7.49905 7.96983 7.49905Z" stroke="#0ABAB5" stroke-width="1.5"/>
  <path d="M18.5801 3.0005C18.9379 2.9936 19.2935 3.05812 19.6261 3.19029C19.9587 3.32245 20.2616 3.5196 20.517 3.77021C20.7725 4.02083 20.9755 4.31987 21.114 4.64984C21.2526 4.97982 21.3239 5.33412 21.3239 5.692C21.3239 6.04988 21.2526 6.40418 21.114 6.73416C20.9755 7.06413 20.7725 7.36317 20.517 7.61379C20.2616 7.8644 19.9587 8.06155 19.6261 8.19372C19.2935 8.32588 18.9379 8.3904 18.5801 8.3835C17.8752 8.36991 17.2038 8.08037 16.7102 7.5771C16.2165 7.07382 15.9399 6.39698 15.9399 5.692C15.9399 4.98702 16.2165 4.31018 16.7102 3.8069C17.2038 3.30363 17.8752 3.01409 18.5801 3.0005Z" stroke="#0ABAB5" stroke-width="1.5"/>
  <path d="M14.838 12.8828C15.552 12.8828 16.2367 13.1664 16.7415 13.6713C17.2464 14.1761 17.53 14.8608 17.53 15.5748C17.53 16.2888 17.2464 16.9735 16.7415 17.4783C16.2367 17.9832 15.552 18.2668 14.838 18.2668C14.124 18.2668 13.4393 17.9832 12.9345 17.4783C12.4296 16.9735 12.146 16.2888 12.146 15.5748C12.146 14.8608 12.4296 14.1761 12.9345 13.6713C13.4393 13.1664 14.124 12.8828 14.838 12.8828Z" stroke="#0ABAB5" stroke-width="1.5"/>
  <path d="M2 15.9418L5.841 11.8398" stroke="#0ABAB5" stroke-width="1.5"/>
  <path d="M10.3169 11.5332L12.7799 13.8312" stroke="#0ABAB5" stroke-width="1.5"/>
  <path d="M16.0249 13.1436L17.7999 8.26562" stroke="#0ABAB5" stroke-width="1.5"/>
  <path d="M2 2V22H22" stroke="#0ABAB5" stroke-width="1.5"/>
</svg>