<svg xmlns="http://www.w3.org/2000/svg" width="24" height="24" viewBox="0 0 24 24" fill="none">
  <g clip-path="url(#clip0_244_2437)">
    <path d="M23.1426 11.8974C23.1444 11.6595 23.0964 11.4238 23.0019 11.2054C22.9074 10.987 22.7686 10.7906 22.5941 10.6289L11.9998 0.857422L1.40554 10.6289C1.23107 10.7906 1.0922 10.987 0.99775 11.2054C0.903305 11.4238 0.855363 11.6595 0.856973 11.8974V21.4289C0.856973 21.8835 1.03758 22.3196 1.35908 22.641C1.68057 22.9625 2.11661 23.1431 2.57125 23.1431H21.4284C21.883 23.1431 22.3191 22.9625 22.6405 22.641C22.9621 22.3196 23.1426 21.8835 23.1426 21.4289V11.8974Z" stroke="#0ABAB5" stroke-linecap="round" stroke-linejoin="round"/>
    <path d="M12.4286 17.1445H17.5697C17.5697 17.1445 17.9983 17.1445 17.9983 17.5731V22.7142C17.9983 22.7142 17.9983 23.1428 17.5697 23.1428H12.4286C12.4286 23.1428 12 23.1428 12 22.7142V17.5731C12 17.5731 12 17.1445 12.4286 17.1445Z" stroke="#0ABAB5" stroke-linecap="round" stroke-linejoin="round"/>
    <path d="M9.42857 11.1445H14.5697C14.5697 11.1445 14.9983 11.1445 14.9983 11.5731V16.7142C14.9983 16.7142 14.9983 17.1428 14.5697 17.1428H9.42857C9.42857 17.1428 9 17.1428 9 16.7142V11.5731C9 11.5731 9 11.1445 9.42857 11.1445Z" stroke="#0ABAB5" stroke-linecap="round" stroke-linejoin="round"/>
    <path d="M6.43004 17.1445H11.5712C11.5712 17.1445 11.9998 17.1445 11.9998 17.5731V22.7142C11.9998 22.7142 11.9998 23.1428 11.5712 23.1428H6.43004C6.43004 23.1428 6.00146 23.1428 6.00146 22.7142V17.5731C6.00146 17.5731 6.00146 17.1445 6.43004 17.1445Z" stroke="#0ABAB5" stroke-linecap="round" stroke-linejoin="round"/>
  </g>
  <defs>
    <clipPath id="clip0_244_2437">
      <rect width="24" height="24" fill="white"/>
    </clipPath>
  </defs>
</svg>