<svg width="30" height="30" viewBox="0 0 30 30" fill="none" xmlns="http://www.w3.org/2000/svg">
<path d="M22.7738 7.94984C22.7738 7.94984 26.25 11.9761 26.25 19.2286V20.7494C26.25 20.7494 21.86 23.6103 20.5221 23.6103L19.2242 21.7232C20.0308 21.3619 21.1313 20.7348 21.1313 20.7348L20.7292 20.4236C20.7292 20.4236 18.1571 21.6153 15.0004 21.6153C11.8437 21.6153 9.27167 20.4236 9.27167 20.4236L8.86958 20.7348C8.86958 20.7348 9.97 21.3619 10.7767 21.7232L9.47875 23.6103C8.14 23.6103 3.75 20.7494 3.75 20.7494V19.2286C3.75 11.9761 7.22625 7.94984 7.22625 7.94984C7.22625 7.94984 9.60417 6.79901 11.8 6.49609L12.4812 7.78776C12.4812 7.78776 13.5642 7.53693 15 7.53693C16.4358 7.53693 17.5187 7.78776 17.5187 7.78776L18.2 6.49609C20.3958 6.79901 22.7738 7.94984 22.7738 7.94984ZM11.2542 18.169C12.3608 18.169 13.2575 17.1615 13.2575 15.9186C13.2575 14.6757 12.3604 13.6682 11.2542 13.6682C10.1479 13.6682 9.25083 14.6757 9.25083 15.9186C9.25083 17.1615 10.1475 18.169 11.2542 18.169ZM18.7458 18.169C19.8525 18.169 20.7492 17.1615 20.7492 15.9186C20.7492 14.6757 19.8521 13.6682 18.7458 13.6682C17.6392 13.6682 16.7425 14.6757 16.7425 15.9186C16.7425 17.1615 17.6392 18.169 18.7458 18.169Z" fill="black"/>
</svg>
