<svg width="30" height="30" viewBox="0 0 30 30" fill="none" xmlns="http://www.w3.org/2000/svg">
<g id="Frame">
<path id="Vector" d="M22.7738 7.94887C22.7738 7.94887 26.25 11.9751 26.25 19.2276V20.7484C26.25 20.7484 21.86 23.6093 20.5221 23.6093L19.2242 21.7222C20.0308 21.3609 21.1313 20.7339 21.1313 20.7339L20.7292 20.4226C20.7292 20.4226 18.1571 21.6143 15.0004 21.6143C11.8437 21.6143 9.27167 20.4226 9.27167 20.4226L8.86958 20.7339C8.86958 20.7339 9.97 21.3609 10.7767 21.7222L9.47875 23.6093C8.14 23.6093 3.75 20.7484 3.75 20.7484V19.2276C3.75 11.9751 7.22625 7.94887 7.22625 7.94887C7.22625 7.94887 9.60417 6.79803 11.8 6.49512L12.4812 7.78678C12.4812 7.78678 13.5642 7.53595 15 7.53595C16.4358 7.53595 17.5187 7.78678 17.5187 7.78678L18.2 6.49512C20.3958 6.79803 22.7738 7.94887 22.7738 7.94887ZM11.2542 18.168C12.3608 18.168 13.2575 17.1605 13.2575 15.9176C13.2575 14.6747 12.3604 13.6672 11.2542 13.6672C10.1479 13.6672 9.25083 14.6747 9.25083 15.9176C9.25083 17.1605 10.1475 18.168 11.2542 18.168ZM18.7458 18.168C19.8525 18.168 20.7492 17.1605 20.7492 15.9176C20.7492 14.6747 19.8521 13.6672 18.7458 13.6672C17.6392 13.6672 16.7425 14.6747 16.7425 15.9176C16.7425 17.1605 17.6392 18.168 18.7458 18.168Z" fill="#0ABAB5CC"/>
</g>
</svg>
