<svg width="93" height="93" viewBox="0 0 93 93" fill="none" xmlns="http://www.w3.org/2000/svg">
<g clip-path="url(#clip0_317_499)">
<path d="M11.2768 16.0643C11.8581 15.3436 12.4626 14.6461 13.0671 13.9486C13.0903 13.9253 13.1601 13.9021 13.1833 13.8788C13.2298 13.8091 13.3228 13.7626 13.3926 13.6928L13.4391 13.6231C13.8576 13.2278 14.3226 12.8093 14.8341 12.4141C16.6941 11.0191 18.6006 9.94957 20.6233 9.22882C27.1333 6.95032 34.3641 8.34532 40.0371 13.7161C47.9653 21.1328 47.2446 33.1066 40.9206 41.0581C32.9226 52.9156 19.2051 69.4463 38.2003 84.2566C41.6181 86.9303 44.1523 89.1158 54.9171 92.2313C47.8723 93.5333 41.3391 93.1148 34.0851 91.2781C28.9468 88.3718 20.8558 82.1641 18.1123 73.7708C13.9506 61.0531 25.4361 42.0113 30.9696 34.6876C38.5723 24.5506 26.2731 13.5766 17.1823 25.8293C12.4858 32.2231 4.18557 50.2883 7.06857 63.7036C8.74257 71.3063 10.9978 76.8398 19.9026 84.4658C18.2518 83.4893 16.6476 82.3966 15.0898 81.1411C-5.57943 61.8668 -3.18468 32.0603 11.2768 16.0643Z" fill="url(#paint0_linear_317_499)" fill-opacity="0.85"/>
<path d="M81.7262 76.9348C81.1449 77.6555 80.5404 78.353 79.9359 79.0505C79.9127 79.0738 79.8429 79.097 79.8197 79.1202C79.7732 79.19 79.6802 79.2365 79.6104 79.3063L79.5639 79.376C79.1454 79.7712 78.6804 80.1898 78.1689 80.5618C76.3089 81.9567 74.4024 83.0263 72.3797 83.747C65.8697 86.0255 58.6389 84.6305 52.9659 79.2598C45.0377 71.843 45.7584 59.8693 52.0824 51.9178C60.0804 40.0603 73.7979 23.5295 54.8027 8.71925C51.3849 6.0455 48.8507 3.86 38.0859 0.744503C45.1307 -0.557497 51.6639 -0.138997 58.9179 1.69775C64.0562 4.604 72.1472 10.8118 74.8907 19.205C79.0524 31.9228 67.5669 50.9645 62.0334 58.2882C54.4307 68.4252 66.7299 79.3992 75.8207 67.1465C80.5637 60.7528 88.8639 42.6875 85.9809 29.2723C84.3069 21.6695 82.0517 16.136 73.1469 8.51C74.7977 9.4865 76.4019 10.5793 77.9597 11.8348C98.5824 31.1323 96.1877 60.9388 81.7262 76.9348Z" fill="url(#paint1_linear_317_499)" fill-opacity="0.85"/>
</g>
<defs>
<linearGradient id="paint0_linear_317_499" x1="0.000566575" y1="50.5992" x2="93.0006" y2="50.5992" gradientUnits="userSpaceOnUse">
<stop stop-color="#0082FA"/>
<stop offset="1" stop-color="#00F2FE"/>
</linearGradient>
<linearGradient id="paint1_linear_317_499" x1="0.00244373" y1="42.3999" x2="93.0024" y2="42.3999" gradientUnits="userSpaceOnUse">
<stop stop-color="#0082FA"/>
<stop offset="1" stop-color="#00F2FE"/>
</linearGradient>
<clipPath id="clip0_317_499">
<rect width="93" height="93" fill="white"/>
</clipPath>
</defs>
</svg>
