<svg width="163" height="163" viewBox="0 0 163 163" fill="none" xmlns="http://www.w3.org/2000/svg">
<g clip-path="url(#clip0_657_669)">
<path d="M134.302 52.9517C134.302 81.904 110.663 105.374 81.5027 105.374C52.3423 105.374 28.7031 81.904 28.7031 52.9517C28.7031 23.9996 52.3423 0.529297 81.5027 0.529297C110.663 0.529297 134.302 23.9996 134.302 52.9517ZM30.2871 52.9517C30.2871 81.0351 53.2171 103.801 81.5027 103.801C109.788 103.801 132.718 81.0351 132.718 52.9517C132.718 24.8682 109.788 2.10197 81.5027 2.10197C53.2171 2.10197 30.2871 24.8682 30.2871 52.9517Z" fill="#3CC0A3"/>
<path d="M137.872 96.5497C117.259 117.163 83.8388 117.163 63.2255 96.5497C42.6123 75.9367 42.6123 42.5163 63.2255 21.9031C83.8388 1.2901 117.259 1.2901 137.872 21.9031C158.485 42.5163 158.485 75.9367 137.872 96.5497ZM64.3451 23.0229C44.3504 43.0176 44.3504 75.4354 64.3451 95.4304C84.3396 115.425 116.758 115.425 136.752 95.4304C156.747 75.4354 156.747 43.0176 136.752 23.0229C116.758 3.02818 84.3396 3.02818 64.3451 23.0229Z" fill="#3CC0A3"/>
<path d="M109.786 131.019C80.4175 131.019 56.6094 107.38 56.6094 78.2195C56.6094 49.0591 80.4175 25.4199 109.786 25.4199C139.155 25.4199 162.963 49.0591 162.963 78.2195C162.963 107.38 139.155 131.019 109.786 131.019ZM109.786 27.0039C81.2985 27.0039 58.2047 49.9339 58.2047 78.2195C58.2047 106.505 81.2985 129.435 109.786 129.435C138.274 129.435 161.367 106.505 161.367 78.2195C161.367 49.9339 138.274 27.0039 109.786 27.0039Z" fill="#3CC0A3"/>
<path d="M65.3778 134.591C44.7647 113.978 44.7647 80.5575 65.3778 59.9442C85.9914 39.3311 119.411 39.3311 140.025 59.9442C160.638 80.5575 160.638 113.978 140.025 134.591C119.411 155.204 85.9914 155.204 65.3778 134.591ZM138.905 61.0639C118.91 41.0692 86.4923 41.0692 66.4975 61.0639C46.5028 81.0583 46.5028 113.477 66.4975 133.471C86.4923 153.466 118.91 153.466 138.905 133.471C158.9 113.477 158.9 81.0583 138.905 61.0639Z" fill="#3CC0A3"/>
<path d="M28.7031 109.522C28.7031 80.1538 52.3423 56.3457 81.5027 56.3457C110.663 56.3457 134.302 80.1538 134.302 109.522C134.302 138.891 110.663 162.699 81.5027 162.699C52.3422 162.699 28.7031 138.891 28.7031 109.522ZM132.718 109.522C132.718 81.0348 109.788 57.941 81.5027 57.941C53.2171 57.941 30.2871 81.0348 30.2871 109.522C30.2871 138.01 53.2171 161.104 81.5027 161.104C109.788 161.104 132.718 138.01 132.718 109.522Z" fill="#3CC0A3"/>
<path d="M23.0341 62.0965C43.6472 41.4834 77.0673 41.4834 97.6802 62.0965C118.294 82.7102 118.294 116.13 97.6802 136.744C77.0673 157.357 43.6472 157.357 23.0341 136.744C2.42094 116.13 2.42094 82.7102 23.0341 62.0965ZM96.5609 135.624C116.555 115.629 116.555 83.211 96.5609 63.2163C76.5664 43.2215 44.1485 43.2215 24.1538 63.2163C4.15902 83.211 4.15902 115.629 24.1538 135.624C44.1485 155.618 76.5664 155.618 96.5609 135.624Z" fill="#3CC0A3"/>
<path d="M53.2158 25.4199C82.5844 25.4199 106.392 49.0591 106.392 78.2195C106.392 107.38 82.5844 131.019 53.2158 131.019C23.8471 131.019 0.0390587 107.38 0.0390625 78.2195C0.0390663 49.0591 23.8471 25.4199 53.2158 25.4199ZM53.2158 129.435C81.7034 129.435 104.797 106.505 104.797 78.2195C104.797 49.9339 81.7034 27.0039 53.2158 27.0039C24.7281 27.0039 1.63436 49.9339 1.63436 78.2195C1.63436 106.505 24.7281 129.435 53.2158 129.435Z" fill="#3CC0A3"/>
<path d="M99.829 19.7508C120.442 40.364 120.442 73.7845 99.829 94.3974C79.216 115.011 45.7956 115.011 25.1825 94.3974C4.56938 73.7844 4.56938 40.3639 25.1825 19.7508C45.7957 -0.862265 79.216 -0.862256 99.829 19.7508ZM26.3022 93.278C46.297 113.272 78.7144 113.272 98.7096 93.278C118.704 73.2832 118.704 40.8653 98.7096 20.8706C78.7144 0.875828 46.297 0.875828 26.3022 20.8706C6.30747 40.8653 6.30747 73.2831 26.3022 93.278Z" fill="#3CC0A3"/>
<path d="M47.7178 96.4061V99.6199H45.1939C42.4008 99.6199 40.5275 99.2048 39.574 98.3748C38.6317 97.5447 38.1606 95.8901 38.1606 93.4111V89.7935C38.1606 88.0997 37.8578 86.9331 37.252 86.2937C36.6575 85.6431 35.575 85.3178 34.0046 85.3178H32.9614V82.104H34.0046C35.575 82.104 36.6575 81.7843 37.252 81.1449C37.8578 80.5055 38.1606 79.3333 38.1606 77.6283V74.0107C38.1606 71.5317 38.6317 69.8827 39.574 69.0638C40.5275 68.2338 42.4008 67.8187 45.1939 67.8187H47.7178V71.0157H45.6482C44.4816 71.0157 43.702 71.2512 43.3094 71.7223C42.9168 72.1935 42.7205 73.2311 42.7205 74.8352V78.3518C42.7205 80.2027 42.4456 81.5039 41.896 82.2554C41.3463 83.007 40.3648 83.4893 38.9514 83.7025C40.3648 83.938 41.3463 84.4372 41.896 85.2C42.4456 85.9628 42.7205 87.264 42.7205 89.1036V92.553C42.7205 94.1683 42.9168 95.2115 43.3094 95.6826C43.702 96.1649 44.4816 96.4061 45.6482 96.4061H47.7178ZM84.3817 94H79.418V73.2199H73.041V68.8788H90.7588V73.2199H84.3817V94ZM116.082 96.4061H118.118C119.284 96.4061 120.07 96.1649 120.474 95.6826C120.877 95.2003 121.079 94.157 121.079 92.553V89.1036C121.079 87.264 121.354 85.9628 121.904 85.2C122.453 84.4372 123.429 83.938 124.831 83.7025C123.418 83.4893 122.437 83.007 121.887 82.2554C121.348 81.5039 121.079 80.2027 121.079 78.3518V74.8352C121.079 73.2535 120.877 72.2215 120.474 71.7392C120.081 71.2568 119.296 71.0157 118.118 71.0157H116.082V67.8187H118.606C121.388 67.8187 123.244 68.2338 124.175 69.0638C125.117 69.8827 125.589 71.5317 125.589 74.0107V77.6283C125.589 79.3221 125.891 80.4943 126.497 81.1449C127.114 81.7843 128.213 82.104 129.795 82.104H130.838V85.3178H129.795C128.213 85.3178 127.114 85.6431 126.497 86.2937C125.891 86.9443 125.589 88.1109 125.589 89.7935V93.4111C125.589 95.8901 125.117 97.5447 124.175 98.3748C123.244 99.2048 121.388 99.6199 118.606 99.6199H116.082V96.4061Z" fill="#F3F4F6"/>
</g>
<defs>
<clipPath id="clip0_657_669">
<rect width="162.924" height="162.17" fill="white" transform="translate(0.0390625 0.529297)"/>
</clipPath>
</defs>
</svg>
