<svg width="30" height="30" viewBox="0 0 30 30" fill="none" xmlns="http://www.w3.org/2000/svg">
<path d="M3.91304 0C1.65 0 0.00636889 1.45111 0.00636889 3.44691C0.00636889 5.44969 1.68913 6.9647 3.91304 6.9647C6.17609 6.9647 7.81972 5.48557 7.81972 3.40602C7.71537 1.40324 6.10435 0 3.91304 0ZM0.652174 8.36718C0.293478 8.36718 0 8.6812 0 9.06501V29.3022C0 29.686 0.293478 30 0.652174 30H7.17391C7.53261 30 7.82609 29.686 7.82609 29.3022V9.06501C7.82609 8.6812 7.53261 8.36718 7.17391 8.36718H0.652174ZM10.4348 8.36718C10.0761 8.36718 9.78261 8.6812 9.78261 9.06501V29.3022C9.78261 29.686 10.0761 30 10.4348 30H16.3043C16.6643 30 16.9565 29.6874 16.9565 29.3022V18.8347V18.6602V18.4858C16.9565 16.8319 18.1439 15.4847 19.6569 15.3591C19.7352 15.3452 19.813 15.3455 19.8913 15.3455C19.9696 15.3455 20.0474 15.3452 20.1257 15.3591C21.6387 15.4847 22.8261 16.8319 22.8261 18.4858V29.3022C22.8261 29.6874 23.1183 30 23.4783 30H29.3478C29.7065 30 30 29.686 30 29.3022V17.439C30 12.924 27.7363 8.36718 22.6885 8.36718C20.3929 8.36718 18.6587 9.3164 17.6087 10.1049V9.06501C17.6087 8.6812 17.3152 8.36718 16.9565 8.36718H10.4348Z" fill="black"/>
</svg>
