<svg width="91" height="90" viewBox="0 0 91 90" fill="none" xmlns="http://www.w3.org/2000/svg">
<path d="M74.5116 29.093C74.5116 45.1607 61.3925 58.186 45.2093 58.186C29.0261 58.186 15.907 45.1607 15.907 29.093C15.907 13.0254 29.0261 0 45.2093 0C61.3925 0 74.5116 13.0254 74.5116 29.093ZM16.786 29.093C16.786 44.6786 29.5116 57.3133 45.2093 57.3133C60.907 57.3133 73.6326 44.6786 73.6326 29.093C73.6326 13.5074 60.907 0.87279 45.2093 0.87279C29.5116 0.87279 16.786 13.5074 16.786 29.093Z" fill="#3CC0A3" fill-opacity="0.8"/>
<path d="M76.4936 53.2888C65.0539 64.7285 46.5065 64.7285 35.0668 53.2888C23.627 41.8491 23.627 23.3017 35.0668 11.8619C46.5065 0.422218 65.0539 0.422218 76.4936 11.8619C87.9334 23.3017 87.9334 41.8491 76.4936 53.2888ZM35.6882 12.4833C24.5916 23.5799 24.5916 41.5709 35.6881 52.6674C46.7847 63.7639 64.7757 63.7639 75.8722 52.6674C86.9688 41.5709 86.9688 23.5799 75.8722 12.4833C64.7757 1.38681 46.7847 1.38681 35.6882 12.4833Z" fill="#3CC0A3" fill-opacity="0.8"/>
<path d="M60.907 72.4186C44.6082 72.4186 31.3953 59.2995 31.3953 43.1163C31.3953 26.933 44.6082 13.814 60.907 13.814C77.2058 13.814 90.4186 26.9331 90.4186 43.1163C90.4186 59.2995 77.2058 72.4186 60.907 72.4186ZM60.907 14.693C45.0971 14.693 32.2807 27.4185 32.2807 43.1163C32.2807 58.814 45.0971 71.5395 60.907 71.5395C76.7168 71.5395 89.5333 58.814 89.5333 43.1163C89.5333 27.4185 76.7168 14.693 60.907 14.693Z" fill="#3CC0A3" fill-opacity="0.8"/>
<path d="M36.2618 74.4006C24.8221 62.9609 24.8221 44.4134 36.2618 32.9737C47.7015 21.534 66.249 21.534 77.6887 32.9737C89.1284 44.4134 89.1284 62.9609 77.6887 74.4006C66.249 85.8403 47.7015 85.8403 36.2618 74.4006ZM77.0673 33.5951C65.9708 22.4986 47.9797 22.4986 36.8832 33.5951C25.7867 44.6917 25.7867 62.6827 36.8832 73.7792C47.9797 84.8757 65.9708 84.8757 77.0673 73.7792C88.1638 62.6827 88.1638 44.6917 77.0673 33.5951Z" fill="#3CC0A3" fill-opacity="0.8"/>
<path d="M15.907 60.4884C15.907 44.1895 29.0261 30.9767 45.2093 30.9767C61.3925 30.9767 74.5116 44.1895 74.5116 60.4884C74.5116 76.7872 61.3925 90 45.2093 90C29.0261 90 15.907 76.7872 15.907 60.4884ZM73.6326 60.4884C73.6326 44.6785 60.907 31.8621 45.2093 31.8621C29.5116 31.8621 16.786 44.6785 16.786 60.4884C16.786 76.2982 29.5116 89.1146 45.2093 89.1146C60.907 89.1146 73.6326 76.2982 73.6326 60.4884Z" fill="#3CC0A3" fill-opacity="0.8"/>
<path d="M12.76 34.1687C24.1997 22.729 42.7471 22.729 54.1868 34.1687C65.6266 45.6085 65.6266 64.1559 54.1868 75.5956C42.7471 87.0353 24.1997 87.0353 12.76 75.5956C1.32024 64.1559 1.32024 45.6085 12.76 34.1687ZM53.5654 74.9742C64.662 63.8777 64.662 45.8867 53.5654 34.7901C42.4689 23.6936 24.4779 23.6936 13.3814 34.7901C2.28483 45.8867 2.28483 63.8777 13.3814 74.9742C24.4779 86.0707 42.4689 86.0707 53.5654 74.9742Z" fill="#3CC0A3" fill-opacity="0.8"/>
<path d="M29.5116 13.8139C45.8105 13.814 59.0233 26.9331 59.0233 43.1163C59.0233 59.2995 45.8104 72.4186 29.5116 72.4186C13.2128 72.4186 -2.12217e-06 59.2995 0 43.1163C2.12217e-06 26.933 13.2128 13.8139 29.5116 13.8139ZM29.5116 71.5395C45.3215 71.5395 58.1379 58.814 58.1379 43.1163C58.1379 27.4186 45.3215 14.693 29.5116 14.693C13.7018 14.693 0.88535 27.4185 0.885348 43.1163C0.885346 58.814 13.7018 71.5395 29.5116 71.5395Z" fill="#3CC0A3" fill-opacity="0.8"/>
<path d="M55.3818 10.6669C66.8216 22.1067 66.8216 40.6541 55.3818 52.0938C43.9421 63.5335 25.3947 63.5335 13.955 52.0938C2.51524 40.6541 2.51524 22.1067 13.955 10.6669C25.3947 -0.772777 43.9421 -0.772773 55.3818 10.6669ZM14.5764 51.4724C25.6729 62.5689 43.6639 62.569 54.7604 51.4724C65.857 40.3759 65.857 22.3849 54.7604 11.2883C43.6639 0.191816 25.6729 0.191816 14.5764 11.2883C3.47983 22.3849 3.47983 40.3759 14.5764 51.4724Z" fill="#3CC0A3" fill-opacity="0.8"/>
</svg>
