<svg width="96" height="96" viewBox="0 0 96 96" fill="none" xmlns="http://www.w3.org/2000/svg">
<path d="M93.9888 28.0367C93.9473 27.5094 93.7976 26.9963 93.549 26.5294C93.3004 26.0625 92.9582 25.6518 92.5439 25.3231C92.1295 24.9943 91.6518 24.7544 91.1407 24.6184C90.6295 24.4825 90.0958 24.4533 89.5728 24.5327C81.2112 25.8671 61.608 33.6047 48 33.6047C34.392 33.6047 14.7888 25.8671 6.4272 24.5327C5.90452 24.4526 5.37091 24.4811 4.85974 24.6165C4.34857 24.7518 3.87082 24.9912 3.45637 25.3196C3.04191 25.6481 2.69966 26.0584 2.451 26.5251C2.20234 26.9918 2.05262 27.5048 2.0112 28.0319C1.3296 35.3855 0 54.9647 0 57.9311C0 61.9151 16.6656 71.0447 28.8 71.0447C40.5696 71.0447 42.96 57.9311 48 57.9311C53.04 57.9311 55.4304 71.0447 67.2 71.0447C79.3344 71.0447 96 61.9151 96 57.9311C96 54.9647 94.6704 35.3855 93.9888 28.0367ZM36.768 51.4607C35.0736 52.9871 30.36 56.5967 24.6192 55.4687C18.8784 54.3407 15.408 49.1183 14.2224 47.0303C14.082 46.7897 14.0266 46.5089 14.0649 46.233C14.1032 45.9571 14.233 45.702 14.4336 45.5087C16.128 43.9823 20.8416 40.3727 26.5872 41.5007C32.328 42.6287 35.7984 47.8511 36.984 49.9391C37.1229 50.1805 37.1771 50.4614 37.138 50.7371C37.0989 51.0129 36.9686 51.2676 36.768 51.4607ZM81.7776 47.0303C80.5968 49.1231 77.1264 54.3407 71.3808 55.4687C65.64 56.5967 60.9216 52.9871 59.232 51.4607C59.0314 51.2676 58.9011 51.0129 58.862 50.7371C58.8229 50.4614 58.8771 50.1805 59.016 49.9391C60.1968 47.8463 63.6672 42.6287 69.4128 41.5007C75.1536 40.3727 79.872 43.9823 81.5616 45.5087C81.7637 45.701 81.895 45.9558 81.9342 46.232C81.9734 46.5081 81.9182 46.7894 81.7776 47.0303Z" fill="#008063"/>
</svg>
