<svg xmlns="http://www.w3.org/2000/svg" width="116" height="115" viewBox="0 0 116 115" fill="none">
  <path d="M63.3906 14.7168C69.9953 15.5466 76.3182 17.8941 81.8642 21.5754C87.4102 25.2567 92.0287 30.1719 95.358 35.936C98.6874 41.7001 100.637 48.1568 101.055 54.8002C101.472 61.4437 100.346 68.0936 97.7648 74.2293" stroke="#0ABAB5" stroke-width="1.8125"/>
  <path d="M18.2349 74.2293C15.6535 68.0936 14.5275 61.4437 14.945 54.8002C15.3626 48.1568 17.3124 41.7001 20.6418 35.936C23.9711 30.1719 28.5896 25.2567 34.1356 21.5754C39.6816 17.8941 46.0045 15.5466 52.6092 14.7168" stroke="#0ABAB5" stroke-width="1.8125"/>
  <path d="M92.3561 83.5547C88.3339 88.8562 83.1394 93.155 77.1791 96.1145C71.2188 99.0741 64.6544 100.614 57.9998 100.614C51.3452 100.614 44.7808 99.0741 38.8205 96.1145C32.8603 93.155 27.6657 88.8562 23.6436 83.5547" stroke="#0ABAB5" stroke-width="1.8125"/>
  <path d="M58 68.2812C63.9543 68.2812 68.7812 63.4543 68.7812 57.5C68.7812 51.5457 63.9543 46.7188 58 46.7188C52.0457 46.7188 47.2188 51.5457 47.2188 57.5C47.2188 63.4543 52.0457 68.2812 58 68.2812Z" stroke="#743551" stroke-width="1.8125"/>
</svg>