<svg width="30" height="30" viewBox="0 0 30 30" fill="none" xmlns="http://www.w3.org/2000/svg">
<g id="Group">
<path id="Vector" d="M10 7.5C11.9891 7.5 13.8968 8.29018 15.3033 9.6967C16.7098 11.1032 17.5 13.0109 17.5 15C17.5 16.9891 16.7098 18.8968 15.3033 20.3033C13.8968 21.7098 11.9891 22.5 10 22.5C8.01088 22.5 6.10322 21.7098 4.6967 20.3033C3.29018 18.8968 2.5 16.9891 2.5 15C2.5 13.0109 3.29018 11.1032 4.6967 9.6967C6.10322 8.29018 8.01088 7.5 10 7.5ZM21.25 8.75C23.125 8.75 24.375 11.5487 24.375 15C24.375 18.4513 23.125 21.25 21.25 21.25C19.375 21.25 18.125 18.4513 18.125 15C18.125 11.5487 19.375 8.75 21.25 8.75ZM26.25 9.375C26.725 9.375 27.14 10.4088 27.35 12.1825L27.4088 12.7362L27.4325 13.03L27.47 13.6475L27.4825 13.9713L27.4975 14.6475L27.5 15L27.4975 15.3525L27.4825 16.0287L27.47 16.3538L27.4325 16.97L27.4075 17.2638L27.3512 17.8175C27.14 19.5925 26.7262 20.625 26.25 20.625C25.775 20.625 25.36 19.5912 25.15 17.8175L25.0912 17.2638C25.0826 17.1659 25.0747 17.068 25.0675 16.97L25.03 16.3525C25.0252 16.2446 25.021 16.1367 25.0175 16.0287L25.0025 15.3525V14.6475L25.0175 13.9713L25.03 13.6462L25.0675 13.03L25.0925 12.7362L25.1488 12.1825C25.36 10.4075 25.7738 9.375 26.25 9.375Z" fill="#3CC0A3"/>
</g>
</svg>
