<svg xmlns="http://www.w3.org/2000/svg" width="116" height="115" viewBox="0 0 116 115" fill="none">
  <path d="M36.4556 94.857V45.0117" stroke="#0ABAB5"/>
  <path d="M14.875 32.5957L101.125 82.4051" stroke="#743551"/>
  <path d="M79.5444 20.1426V69.934" stroke="#0ABAB5"/>
  <path d="M58 82.4047L36.4375 94.8571L15.7016 82.8899C15.4492 82.74 15.2403 82.527 15.0953 82.2717C14.9504 82.0165 14.8744 81.7279 14.875 81.4344V32.5954L35.6289 20.6282C35.8814 20.4865 36.166 20.4121 36.4555 20.4121C36.745 20.4121 37.0296 20.4865 37.282 20.6282L79.5625 45.0118" stroke="#0ABAB5"/>
  <path d="M58 32.5949L79.5625 20.1426L100.316 32.1098C100.569 32.2596 100.778 32.4727 100.923 32.7279C101.068 32.9831 101.144 33.2717 101.143 33.5652V82.4043L80.3711 94.3715C80.1186 94.5131 79.834 94.5875 79.5445 94.5875C79.2551 94.5875 78.9704 94.5131 78.718 94.3715L36.4375 69.934" stroke="#0ABAB5"/>
</svg>