<svg width="356" height="138" viewBox="0 0 356 138" fill="none" xmlns="http://www.w3.org/2000/svg">
<path d="M113.81 44.4372C113.81 68.9791 93.772 88.8743 69.0534 88.8743C44.3349 88.8743 24.2966 68.9791 24.2966 44.4372C24.2966 19.8952 44.3349 0 69.0534 0C93.772 0 113.81 19.8952 113.81 44.4372ZM25.6393 44.4372C25.6393 68.2429 45.0765 87.5412 69.0534 87.5412C93.0304 87.5412 112.468 68.2429 112.468 44.4372C112.468 20.6315 93.0304 1.33311 69.0534 1.33311C45.0765 1.33311 25.6393 20.6315 25.6393 44.4372Z" fill="#3CC0A3"/>
<path d="M116.838 81.3942C99.3644 98.8674 71.0347 98.8674 53.5615 81.3942C36.0883 63.921 36.0883 35.5913 53.5615 18.1181C71.0347 0.644902 99.3644 0.644902 116.838 18.1181C134.311 35.5913 134.311 63.921 116.838 81.3942ZM54.5107 19.0673C37.5617 36.0163 37.5616 63.4961 54.5107 80.4451C71.4597 97.3941 98.9395 97.3941 115.888 80.4451C132.838 63.4961 132.838 36.0163 115.888 19.0673C98.9395 2.11824 71.4597 2.11824 54.5107 19.0673Z" fill="#3CC0A3"/>
<path d="M93.0303 110.613C68.1352 110.613 47.9538 90.575 47.9538 65.8565C47.9538 41.138 68.1352 21.0997 93.0303 21.0997C117.925 21.0997 138.107 41.138 138.107 65.8565C138.107 90.575 117.925 110.613 93.0303 110.613ZM93.0303 22.4424C68.8821 22.4424 49.3061 41.8795 49.3061 65.8565C49.3061 89.8335 68.8821 109.271 93.0303 109.271C117.179 109.271 136.755 89.8335 136.755 65.8565C136.755 41.8795 117.179 22.4424 93.0303 22.4424Z" fill="#3CC0A3"/>
<path d="M55.3869 113.641C37.9137 96.1675 37.9137 67.8378 55.3869 50.3646C72.8601 32.8914 101.19 32.8914 118.663 50.3646C136.136 67.8378 136.136 96.1675 118.663 113.641C101.19 131.114 72.8601 131.114 55.3869 113.641ZM117.714 51.3138C100.765 34.3647 73.285 34.3647 56.336 51.3137C39.387 68.2628 39.387 95.7426 56.336 112.692C73.285 129.641 100.765 129.641 117.714 112.692C134.663 95.7426 134.663 68.2628 117.714 51.3138Z" fill="#3CC0A3"/>
<path d="M24.2966 92.3909C24.2966 67.4959 44.3349 47.3144 69.0534 47.3144C93.772 47.3144 113.81 67.4959 113.81 92.3909C113.81 117.286 93.7719 137.467 69.0534 137.467C44.3349 137.467 24.2966 117.286 24.2966 92.3909ZM112.468 92.3909C112.468 68.2427 93.0304 48.6667 69.0534 48.6667C45.0765 48.6667 25.6393 68.2427 25.6393 92.3909C25.6393 116.539 45.0764 136.115 69.0534 136.115C93.0304 136.115 112.468 116.539 112.468 92.3909Z" fill="#3CC0A3"/>
<path d="M19.4898 52.1899C36.963 34.7167 65.2927 34.7167 82.7659 52.1899C100.239 69.6631 100.239 97.9928 82.7659 115.466C65.2927 132.939 36.963 132.939 19.4898 115.466C2.01656 97.9928 2.01656 69.6631 19.4898 52.1899ZM81.8167 114.517C98.7657 97.5679 98.7658 70.0881 81.8167 53.139C64.8677 36.19 37.3879 36.19 20.4389 53.139C3.48989 70.0881 3.48989 97.5678 20.4389 114.517C37.3879 131.466 64.8677 131.466 81.8167 114.517Z" fill="#3CC0A3"/>
<path d="M45.0765 21.0997C69.9716 21.0997 90.1531 41.138 90.1531 65.8565C90.1531 90.5751 69.9716 110.613 45.0765 110.613C20.1814 110.613 -3.24144e-06 90.575 0 65.8565C3.24144e-06 41.138 20.1815 21.0997 45.0765 21.0997ZM45.0765 109.271C69.2248 109.271 88.8008 89.8335 88.8008 65.8565C88.8008 41.8795 69.2248 22.4424 45.0765 22.4424C20.9283 22.4424 1.3523 41.8795 1.35229 65.8565C1.35229 89.8335 20.9283 109.271 45.0765 109.271Z" fill="#3CC0A3"/>
<path d="M84.5911 16.2929C102.064 33.7661 102.064 62.0958 84.5911 79.569C67.1179 97.0422 38.7882 97.0422 21.315 79.569C3.84181 62.0957 3.84182 33.7661 21.315 16.2929C38.7882 -1.18035 67.1179 -1.18035 84.5911 16.2929ZM22.2642 78.6198C39.2132 95.5688 66.693 95.5689 83.642 78.6198C100.591 61.6708 100.591 34.191 83.642 17.242C66.693 0.292983 39.2132 0.292983 22.2642 17.242C5.31515 34.191 5.31515 61.6708 22.2642 78.6198Z" fill="#3CC0A3"/>
<path d="M32.5942 83.8555V87.2743H29.9093C26.938 87.2743 24.9452 86.8328 23.9309 85.9497C22.9285 85.0667 22.4273 83.3066 22.4273 80.6694V76.821C22.4273 75.0192 22.1051 73.7781 21.4607 73.098C20.8283 72.4059 19.6768 72.0598 18.0062 72.0598H16.8964V68.641H18.0062C19.6768 68.641 20.8283 68.3009 21.4607 67.6207C22.1051 66.9406 22.4273 65.6936 22.4273 63.8798V60.0314C22.4273 57.3942 22.9285 55.6401 23.9309 54.769C24.9452 53.8859 26.938 53.4444 29.9093 53.4444H32.5942V56.8453H30.3925C29.1515 56.8453 28.3222 57.0959 27.9045 57.5971C27.4869 58.0983 27.278 59.2021 27.278 60.9085V64.6494C27.278 66.6184 26.9857 68.0026 26.401 68.8021C25.8163 69.6016 24.7721 70.1147 23.2686 70.3415C24.7721 70.5921 25.8163 71.1231 26.401 71.9345C26.9857 72.7459 27.278 74.1302 27.278 76.0872V79.7565C27.278 81.4749 27.4869 82.5847 27.9045 83.0858C28.3222 83.599 29.1515 83.8555 30.3925 83.8555H32.5942ZM71.597 81.2959H66.3167V59.1901H59.5328V54.5721H78.3809V59.1901H71.597V81.2959ZM105.319 83.8555H107.485C108.726 83.8555 109.562 83.599 109.991 83.0858C110.421 82.5727 110.636 81.463 110.636 79.7565V76.0872C110.636 74.1302 110.928 72.7459 111.513 71.9345C112.097 71.1231 113.136 70.5921 114.627 70.3415C113.124 70.1147 112.079 69.6016 111.495 68.8021C110.922 68.0026 110.636 66.6184 110.636 64.6494V60.9085C110.636 59.2259 110.421 58.1281 109.991 57.615C109.574 57.1019 108.738 56.8453 107.485 56.8453H105.319V53.4444H108.004C110.964 53.4444 112.939 53.8859 113.929 54.769C114.931 55.6401 115.433 57.3942 115.433 60.0314V63.8798C115.433 65.6816 115.755 66.9286 116.399 67.6207C117.056 68.3009 118.225 68.641 119.908 68.641H121.017V72.0598H119.908C118.225 72.0598 117.056 72.4059 116.399 73.098C115.755 73.7901 115.433 75.0311 115.433 76.821V80.6694C115.433 83.3066 114.931 85.0667 113.929 85.9497C112.939 86.8328 110.964 87.2743 108.004 87.2743H105.319V83.8555Z" fill="#F3F4F6"/>
<g clip-path="url(#clip0_579_551)">
<path d="M234.206 23.7474C235.065 22.682 235.959 21.651 236.852 20.62C236.887 20.5856 236.99 20.5512 237.024 20.5169C237.093 20.4138 237.23 20.345 237.333 20.2419L237.402 20.1388C238.021 19.5546 238.708 18.936 239.464 18.3518C242.213 16.2898 245.032 14.7089 248.021 13.6435C257.644 10.2756 268.332 12.3376 276.718 20.2763C288.437 31.2393 287.372 48.9383 278.024 60.6917C266.202 78.2188 245.925 102.654 274.003 124.545C279.055 128.498 282.801 131.728 298.713 136.333C288.299 138.258 278.642 137.639 267.92 134.924C260.325 130.628 248.365 121.452 244.31 109.046C238.158 90.2472 255.135 62.1008 263.315 51.2752C274.553 36.2913 256.373 20.0701 242.935 38.1814C235.993 47.6323 223.724 74.3354 227.986 94.1651C230.46 105.403 233.794 113.582 246.956 124.855C244.516 123.411 242.145 121.796 239.842 119.94C209.29 91.4501 212.83 47.3918 234.206 23.7474Z" fill="url(#paint0_linear_579_551)" fill-opacity="0.85"/>
<path d="M338.335 113.72C337.476 114.786 336.582 115.817 335.688 116.848C335.654 116.882 335.551 116.917 335.517 116.951C335.448 117.054 335.31 117.123 335.207 117.226L335.139 117.329C334.52 117.913 333.833 118.532 333.077 119.082C330.327 121.144 327.509 122.725 324.519 123.79C314.897 127.158 304.208 125.096 295.823 117.157C284.104 106.194 285.169 88.4952 294.517 76.7417C306.339 59.2146 326.616 34.7798 298.538 12.8881C293.486 8.93587 289.74 5.70539 273.828 1.10023C284.241 -0.824317 293.898 -0.205714 304.621 2.50927C312.216 6.80513 324.176 15.9811 328.231 28.3875C334.383 47.1862 317.405 75.3327 309.226 86.1582C297.988 101.142 316.168 117.363 329.606 99.252C336.616 89.8011 348.885 63.0981 344.624 43.2684C342.149 32.0304 338.816 23.8511 325.653 12.5788C328.093 14.0222 330.465 15.6374 332.767 17.4932C363.251 46.0177 359.711 90.076 338.335 113.72Z" fill="url(#paint1_linear_579_551)" fill-opacity="0.85"/>
</g>
<path d="M186.985 59.5693L168.656 77.8983" stroke="url(#paint2_linear_579_551)" stroke-width="3.05483" stroke-linecap="round" stroke-linejoin="round"/>
<path d="M168.656 59.5693L186.985 77.8983" stroke="url(#paint3_linear_579_551)" stroke-width="3.05483" stroke-linecap="round" stroke-linejoin="round"/>
<defs>
<linearGradient id="paint0_linear_579_551" x1="217.538" y1="74.7948" x2="355.006" y2="74.7948" gradientUnits="userSpaceOnUse">
<stop stop-color="#0082FA"/>
<stop offset="1" stop-color="#00F2FE"/>
</linearGradient>
<linearGradient id="paint1_linear_579_551" x1="217.535" y1="62.673" x2="355.003" y2="62.673" gradientUnits="userSpaceOnUse">
<stop stop-color="#0082FA"/>
<stop offset="1" stop-color="#00F2FE"/>
</linearGradient>
<linearGradient id="paint2_linear_579_551" x1="177.821" y1="59.5693" x2="177.821" y2="77.8983" gradientUnits="userSpaceOnUse">
<stop stop-color="#3CC0A3"/>
<stop offset="1" stop-color="#0183D6"/>
</linearGradient>
<linearGradient id="paint3_linear_579_551" x1="177.821" y1="59.5693" x2="177.821" y2="77.8983" gradientUnits="userSpaceOnUse">
<stop stop-color="#3CC0A3"/>
<stop offset="1" stop-color="#0183D6"/>
</linearGradient>
<clipPath id="clip0_579_551">
<rect width="137.467" height="137.467" fill="white" transform="translate(217.535)"/>
</clipPath>
</defs>
</svg>
