<svg width="324" height="184" viewBox="0 0 324 184" fill="none" xmlns="http://www.w3.org/2000/svg">
<g opacity="0.93">
<g filter="url(#filter0_d_141_388)">
<rect x="0.503607" width="68.1921" height="68.1921" rx="9.80194" transform="matrix(0.866025 -0.5 0.866025 0.5 0.0674706 146.909)" stroke="#0ABAB5" stroke-width="0.581516" shape-rendering="crispEdges"/>
</g>
<rect x="0.503607" width="68.1921" height="68.1921" rx="9.80194" transform="matrix(0.866025 -0.5 0.866025 0.5 0.0674706 137.755)" stroke="#0ABAB5" stroke-width="0.581516"/>
<rect x="0.503607" width="68.1921" height="68.1921" rx="9.80194" transform="matrix(0.866025 -0.5 0.866025 0.5 0.0674706 118.027)" stroke="#0ABAB5" stroke-width="0.581516"/>
<rect x="0.503607" width="68.1921" height="68.1921" rx="9.80194" transform="matrix(0.866025 -0.5 0.866025 0.5 0.0674706 128.599)" stroke="#0ABAB5" stroke-width="0.581516"/>
<rect x="0.503607" width="68.1921" height="68.1921" rx="9.80194" transform="matrix(0.866025 -0.5 0.866025 0.5 0.0674706 108.873)" stroke="#0ABAB5" stroke-width="0.581516"/>
</g>
<rect width="64.2869" height="64.2869" rx="5.10316" transform="matrix(0.866025 -0.5 0.866025 0.5 4.05762 96.624)" fill="#0ABAB5" fill-opacity="0.15" stroke="#009490" stroke-width="0.581516" stroke-linejoin="bevel"/>
<rect width="44.4967" height="44.4967" rx="10.0954" transform="matrix(0.866025 -0.5 2.20305e-08 1 59.626 64.1904)" fill="#00FFF8" fill-opacity="0.25"/>
<rect width="44.4967" height="44.4967" rx="10.0954" transform="matrix(0.866025 0.5 -2.20305e-08 1 21.0889 41.9414)" fill="#00FFF8" fill-opacity="0.25"/>
<rect width="44.4967" height="44.4967" rx="10.0954" transform="matrix(0.866025 -0.5 0.866025 0.5 21.0889 41.9414)" fill="#00FFF8" fill-opacity="0.25"/>
<rect width="44.4967" height="44.4967" rx="10.0954" transform="matrix(0.866025 -0.5 0.866025 0.5 21.2314 58.377)" fill="#00FFF8" fill-opacity="0.25"/>
<rect width="44.4967" height="44.4967" rx="10.0954" transform="matrix(0.866025 -0.5 0.866025 0.5 21.2314 74.3691)" fill="#00FFF8" fill-opacity="0.25"/>
<rect width="64.2631" height="64.1098" rx="5.10316" transform="matrix(0.866025 -0.5 0.866025 0.5 4.05762 32.1318)" fill="#0ABAB5" fill-opacity="0.15" stroke="#009490" stroke-width="0.581516" stroke-linejoin="bevel"/>
<rect width="64.1098" height="64.5711" rx="5.10316" transform="matrix(0.866025 -0.5 2.20305e-08 1 59.8848 64.1865)" fill="#0ABAB5" fill-opacity="0.15" stroke="#009490" stroke-width="0.581516" stroke-linejoin="bevel"/>
<path d="M4.05762 37.6178C4.05762 34.7994 6.03628 33.657 8.47708 35.0662L54.8521 61.8409C57.2929 63.2501 59.2716 66.6772 59.2716 69.4956L59.2716 123.346C59.2716 126.164 57.2929 127.306 54.8521 125.897L8.47708 99.1226C6.03628 97.7134 4.05762 94.2863 4.05762 91.4679L4.05762 37.6178Z" fill="#0ABAB5" fill-opacity="0.15" stroke="#009490" stroke-width="0.581516" stroke-linejoin="bevel"/>
<g opacity="0.93">
<g filter="url(#filter1_d_141_388)">
<rect x="0.503607" width="68.1921" height="68.1921" rx="9.80194" transform="matrix(0.866025 -0.5 0.866025 0.5 204.948 146.909)" stroke="#0ABAB5" stroke-width="0.581516" shape-rendering="crispEdges"/>
</g>
<rect x="0.503607" width="68.1921" height="68.1921" rx="9.80194" transform="matrix(0.866025 -0.5 0.866025 0.5 204.948 137.755)" stroke="#0ABAB5" stroke-width="0.581516"/>
<rect x="0.503607" width="68.1921" height="68.1921" rx="9.80194" transform="matrix(0.866025 -0.5 0.866025 0.5 204.948 118.027)" stroke="#0ABAB5" stroke-width="0.581516"/>
<rect x="0.503607" width="68.1921" height="68.1921" rx="9.80194" transform="matrix(0.866025 -0.5 0.866025 0.5 204.948 128.599)" stroke="#0ABAB5" stroke-width="0.581516"/>
<rect x="0.503607" width="68.1921" height="68.1921" rx="9.80194" transform="matrix(0.866025 -0.5 0.866025 0.5 204.948 108.873)" stroke="#0ABAB5" stroke-width="0.581516"/>
</g>
<rect width="64.2869" height="64.2869" rx="5.10316" transform="matrix(0.866025 -0.5 0.866025 0.5 208.938 96.624)" fill="#743551" fill-opacity="0.3" stroke="#009490" stroke-width="0.581516" stroke-linejoin="bevel"/>
<rect width="44.4967" height="44.4967" rx="10.0954" transform="matrix(0.866025 -0.5 2.20305e-08 1 264.506 64.1904)" fill="#00FFF8" fill-opacity="0.25"/>
<rect width="44.4967" height="44.4967" rx="10.0954" transform="matrix(0.866025 0.5 -2.20305e-08 1 225.969 41.9414)" fill="#00FFF8" fill-opacity="0.25"/>
<rect width="44.4967" height="44.4967" rx="10.0954" transform="matrix(0.866025 -0.5 0.866025 0.5 225.969 41.9414)" fill="#00FFF8" fill-opacity="0.25"/>
<rect width="44.4967" height="44.4967" rx="10.0954" transform="matrix(0.866025 -0.5 0.866025 0.5 226.112 58.377)" fill="#00FFF8" fill-opacity="0.25"/>
<rect width="44.4967" height="44.4967" rx="10.0954" transform="matrix(0.866025 -0.5 0.866025 0.5 226.112 74.3691)" fill="#00FFF8" fill-opacity="0.25"/>
<rect width="64.2631" height="64.1098" rx="5.10316" transform="matrix(0.866025 -0.5 0.866025 0.5 208.938 32.1318)" fill="#743551" fill-opacity="0.3" stroke="#009490" stroke-width="0.581516" stroke-linejoin="bevel"/>
<rect width="64.1098" height="64.5711" rx="5.10316" transform="matrix(0.866025 -0.5 2.20305e-08 1 264.765 64.1865)" fill="#743551" fill-opacity="0.3" stroke="#009490" stroke-width="0.581516" stroke-linejoin="bevel"/>
<path d="M208.938 37.6178C208.938 34.7994 210.917 33.657 213.357 35.0662L259.733 61.8409C262.173 63.2501 264.152 66.6772 264.152 69.4956L264.152 123.346C264.152 126.164 262.173 127.306 259.733 125.897L213.357 99.1226C210.917 97.7134 208.938 94.2863 208.938 91.4679L208.938 37.6178Z" fill="#743551" fill-opacity="0.3" stroke="#009490" stroke-width="0.581516" stroke-linejoin="bevel"/>
<path d="M162.003 46.6164L162.032 45.9408L162.003 46.6164ZM192.102 52.2501C192.43 52.0723 192.552 51.662 192.375 51.3335L189.478 45.9816C189.3 45.6531 188.89 45.531 188.561 45.7088C188.233 45.8865 188.111 46.2969 188.289 46.6253L190.864 51.3826L186.106 53.9575C185.778 54.1353 185.656 54.5456 185.833 54.874C186.011 55.2025 186.422 55.3246 186.75 55.1468L192.102 52.2501ZM132.276 51.6554C132.519 52.2864 132.519 52.2864 132.519 52.2864C132.519 52.2864 132.519 52.2864 132.519 52.2863C132.52 52.2862 132.52 52.286 132.521 52.2857C132.522 52.2851 132.525 52.2842 132.528 52.283C132.535 52.2805 132.545 52.2767 132.558 52.2716C132.585 52.2613 132.626 52.2459 132.681 52.2257C132.789 52.1853 132.952 52.1256 133.166 52.0497C133.592 51.8978 134.22 51.6807 135.021 51.4218C136.623 50.9038 138.917 50.2191 141.677 49.5541C147.202 48.2225 154.566 46.9767 161.974 47.292L162.032 45.9408C154.45 45.6182 146.95 46.8919 141.36 48.2393C138.561 48.9138 136.234 49.6084 134.605 50.1349C133.79 50.3983 133.15 50.6197 132.712 50.7757C132.493 50.8538 132.324 50.9155 132.21 50.9579C132.153 50.9791 132.109 50.9955 132.08 51.0067C132.065 51.0123 132.053 51.0166 132.046 51.0196C132.042 51.0211 132.039 51.0222 132.037 51.023C132.036 51.0234 132.035 51.0237 132.034 51.024C132.034 51.0241 132.034 51.0242 132.033 51.0243C132.033 51.0244 132.033 51.0244 132.276 51.6554ZM161.974 47.292C169.418 47.6087 176.822 48.8608 182.373 50.0366C185.146 50.6241 187.453 51.1917 189.065 51.6121C189.871 51.8222 190.503 51.9956 190.933 52.1161C191.148 52.1764 191.312 52.2235 191.422 52.2554C191.478 52.2713 191.519 52.2835 191.547 52.2916C191.561 52.2956 191.571 52.2987 191.578 52.3007C191.581 52.3016 191.583 52.3024 191.585 52.3029C191.586 52.3031 191.586 52.3033 191.587 52.3034C191.587 52.3034 191.587 52.3035 191.587 52.3035C191.587 52.3035 191.587 52.3035 191.78 51.6554C191.973 51.0073 191.973 51.0073 191.973 51.0072C191.972 51.0072 191.972 51.0071 191.972 51.007C191.971 51.0069 191.971 51.0066 191.97 51.0063C191.968 51.0057 191.965 51.0049 191.961 51.0038C191.953 51.0015 191.942 50.9982 191.928 50.9939C191.898 50.9854 191.855 50.9727 191.798 50.9563C191.685 50.9234 191.517 50.8753 191.298 50.814C190.861 50.6914 190.221 50.5159 189.406 50.3035C187.777 49.8787 185.45 49.3061 182.653 48.7136C177.063 47.5294 169.578 46.262 162.032 45.9408L161.974 47.292Z" fill="#CB3068"/>
<path d="M161.874 133.944L161.845 134.62L161.874 133.944ZM131.775 128.31C131.447 128.488 131.324 128.899 131.502 129.227L134.399 134.579C134.577 134.907 134.987 135.03 135.316 134.852C135.644 134.674 135.766 134.264 135.588 133.935L133.013 129.178L137.771 126.603C138.099 126.425 138.221 126.015 138.044 125.687C137.866 125.358 137.455 125.236 137.127 125.414L131.775 128.31ZM191.601 128.905C191.358 128.274 191.358 128.274 191.358 128.274C191.358 128.274 191.358 128.274 191.358 128.274C191.357 128.274 191.357 128.275 191.356 128.275C191.355 128.275 191.352 128.276 191.349 128.278C191.342 128.28 191.332 128.284 191.319 128.289C191.292 128.299 191.251 128.315 191.196 128.335C191.087 128.375 190.925 128.435 190.711 128.511C190.285 128.663 189.657 128.88 188.856 129.139C187.254 129.657 184.96 130.341 182.2 131.006C176.675 132.338 169.311 133.584 161.903 133.269L161.845 134.62C169.427 134.942 176.927 133.669 182.517 132.321C185.316 131.647 187.643 130.952 189.272 130.426C190.087 130.162 190.727 129.941 191.165 129.785C191.384 129.707 191.553 129.645 191.667 129.603C191.724 129.581 191.768 129.565 191.797 129.554C191.812 129.548 191.824 129.544 191.831 129.541C191.835 129.539 191.838 129.538 191.84 129.538C191.841 129.537 191.842 129.537 191.843 129.537C191.843 129.536 191.843 129.536 191.844 129.536C191.844 129.536 191.844 129.536 191.601 128.905ZM161.903 133.269C154.459 132.952 147.055 131.7 141.504 130.524C138.731 129.936 136.424 129.369 134.812 128.948C134.006 128.738 133.374 128.565 132.944 128.444C132.729 128.384 132.565 128.337 132.455 128.305C132.399 128.289 132.358 128.277 132.33 128.269C132.316 128.265 132.306 128.262 132.299 128.26C132.296 128.259 132.293 128.258 132.292 128.258C132.291 128.257 132.291 128.257 132.29 128.257C132.29 128.257 132.29 128.257 132.29 128.257C132.29 128.257 132.29 128.257 132.097 128.905C131.904 129.553 131.904 129.553 131.904 129.553C131.904 129.553 131.905 129.553 131.905 129.554C131.906 129.554 131.906 129.554 131.907 129.554C131.909 129.555 131.912 129.556 131.916 129.557C131.924 129.559 131.935 129.562 131.949 129.567C131.979 129.575 132.022 129.588 132.079 129.604C132.192 129.637 132.36 129.685 132.579 129.747C133.016 129.869 133.656 130.045 134.471 130.257C136.1 130.682 138.427 131.254 141.224 131.847C146.814 133.031 154.299 134.299 161.845 134.62L161.903 133.269Z" fill="#0ABAB5"/>
<defs>
<filter id="filter0_d_141_388" x="2.56854" y="115.227" width="113.982" height="67.9645" filterUnits="userSpaceOnUse" color-interpolation-filters="sRGB">
<feFlood flood-opacity="0" result="BackgroundImageFix"/>
<feColorMatrix in="SourceAlpha" type="matrix" values="0 0 0 0 0 0 0 0 0 0 0 0 0 0 0 0 0 0 127 0" result="hardAlpha"/>
<feOffset dy="2.55158"/>
<feGaussianBlur stdDeviation="1.27579"/>
<feComposite in2="hardAlpha" operator="out"/>
<feColorMatrix type="matrix" values="0 0 0 0 0 0 0 0 0 0.422331 0 0 0 0 0.410333 0 0 0 1 0"/>
<feBlend mode="normal" in2="BackgroundImageFix" result="effect1_dropShadow_141_388"/>
<feBlend mode="normal" in="SourceGraphic" in2="effect1_dropShadow_141_388" result="shape"/>
</filter>
<filter id="filter1_d_141_388" x="207.449" y="115.227" width="113.982" height="67.9645" filterUnits="userSpaceOnUse" color-interpolation-filters="sRGB">
<feFlood flood-opacity="0" result="BackgroundImageFix"/>
<feColorMatrix in="SourceAlpha" type="matrix" values="0 0 0 0 0 0 0 0 0 0 0 0 0 0 0 0 0 0 127 0" result="hardAlpha"/>
<feOffset dy="2.55158"/>
<feGaussianBlur stdDeviation="1.27579"/>
<feComposite in2="hardAlpha" operator="out"/>
<feColorMatrix type="matrix" values="0 0 0 0 0 0 0 0 0 0.422331 0 0 0 0 0.410333 0 0 0 1 0"/>
<feBlend mode="normal" in2="BackgroundImageFix" result="effect1_dropShadow_141_388"/>
<feBlend mode="normal" in="SourceGraphic" in2="effect1_dropShadow_141_388" result="shape"/>
</filter>
</defs>
</svg>
