<svg width="31" height="25" viewBox="0 0 31 25" fill="none" xmlns="http://www.w3.org/2000/svg">
<path d="M30.0727 2.89219C28.9641 3.38437 27.7758 3.71484 26.5266 3.86484C27.8016 3.10078 28.7812 1.89141 29.2406 0.452344C28.05 1.15781 26.7258 1.67109 25.3219 1.94766C24.1969 0.747656 22.5937 0 20.8195 0C17.4117 0 14.6484 2.76094 14.6484 6.16875C14.6484 6.65156 14.7047 7.12265 14.8102 7.575C9.68203 7.31719 5.1375 4.86094 2.09297 1.12734C1.56094 2.04141 1.25859 3.10078 1.25859 4.23047C1.25859 6.37031 2.34609 8.25937 4.00312 9.36797C2.99062 9.33515 2.03906 9.05625 1.20703 8.59453C1.20703 8.62031 1.20703 8.64609 1.20703 8.67187C1.20703 11.6625 3.33516 14.1539 6.15469 14.7234C5.63906 14.8641 5.09297 14.9391 4.53047 14.9391C4.13203 14.9391 3.74531 14.9016 3.36797 14.8266C4.15547 17.2758 6.43359 19.0641 9.13125 19.1133C7.02187 20.768 4.36172 21.7523 1.46953 21.7523C0.970313 21.7523 0.480469 21.7242 0 21.6656C2.72812 23.4187 5.97187 24.4383 9.45703 24.4383C20.8055 24.4383 27.0117 15.0375 27.0117 6.88594C27.0117 6.61875 27.0047 6.34922 26.9953 6.08672C28.2 5.21719 29.2453 4.12969 30.0727 2.89219Z" fill="black"/>
</svg>
