<svg width="1920" height="2800" viewBox="0 0 1920 2800" fill="none" xmlns="http://www.w3.org/2000/svg">
<g clip-path="url(#clip0_336_202)">
<rect width="1920" height="2800" fill="#161616"/>
<path d="M1845.07 866.624C1861.05 840.096 1859.35 805.76 1847.68 777.075C1836.01 748.391 1815.55 724.259 1794.73 701.333C1767.21 671.023 1737.57 641.214 1700.48 623.892C1648.78 599.752 1588.74 602.623 1532.29 610.942C1432.06 625.717 1334.68 655.989 1239.98 691.994C1138.46 730.589 1034.95 776.717 926.522 770.546C829.221 765.012 762.845 717.423 692.59 656.092C627.066 598.891 572.865 525.1 491.554 487.676C384.862 438.569 253.536 463.825 158.6 532.978C63.6644 602.13 1.85844 709.246 -33.4766 821.257" stroke="#3CC0A3" stroke-opacity="0.15" stroke-width="0.864782" stroke-miterlimit="10"/>
<path d="M1854.3 854.879C1868.82 831.976 1864.57 801.31 1851.01 774.403C1837.48 747.573 1816.26 724.068 1794.45 702.496C1765.75 674.097 1735.27 645.442 1697.19 629.227C1643.08 606.177 1580.39 608.326 1521.8 615.568C1421.96 627.904 1325.15 656.369 1231.23 690.143C1131.33 726.07 1029.85 770.464 923.283 763.623C826.077 757.384 758.417 711.377 687.448 653.26C621.05 599.137 565.869 530.296 485.271 496.099C379.871 451.376 251.3 477.882 156.68 545.819C61.6661 613.904 -1.70951 716.246 -39.1719 825.382" stroke="#3CC0A3" stroke-opacity="0.15" stroke-width="0.864782" stroke-miterlimit="10"/>
<path d="M1863.52 843.137C1876.58 823.857 1869.85 796.94 1854.34 771.736C1839 746.826 1816.98 723.884 1794.17 703.669C1764.3 677.19 1732.93 649.703 1693.91 634.569C1637.35 612.634 1572.08 614.065 1511.31 620.196C1411.91 630.223 1315.64 656.751 1222.48 688.294C1124.21 721.57 1024.73 764.195 920.044 756.698C822.934 749.741 754.11 705.165 682.303 650.429C615.157 599.243 558.907 535.504 478.988 504.523C374.924 464.185 249.064 491.94 154.76 558.667C59.6638 625.683 -5.28137 723.248 -44.8711 829.512" stroke="#3CC0A3" stroke-opacity="0.15" stroke-width="0.864782" stroke-miterlimit="10"/>
<path d="M1872.75 831.393C1884.34 815.736 1875.2 792.642 1857.67 769.063C1840.6 746.121 1817.71 723.701 1793.89 704.836C1762.88 680.276 1730.57 653.983 1690.63 639.904C1631.59 619.102 1563.8 619.828 1500.83 624.818C1401.91 632.653 1306.16 657.13 1213.74 686.438C1117.13 717.077 1019.63 757.908 916.813 749.77C819.793 742.091 749.741 699.038 677.169 647.592C609.201 599.411 551.991 540.7 472.712 512.941C370.024 476.979 246.836 505.997 152.847 571.504C57.6732 637.448 -8.8415 730.239 -50.5586 833.628" stroke="#3CC0A3" stroke-opacity="0.15" stroke-width="0.864782" stroke-miterlimit="10"/>
<path d="M1881.97 819.648C1892.11 807.614 1880.64 788.39 1860.99 766.39C1842.28 745.441 1818.47 723.519 1793.61 706.002C1761.48 683.362 1728.19 658.284 1687.34 645.243C1625.8 625.599 1555.54 625.629 1490.34 629.443C1391.94 635.198 1296.7 657.523 1205 684.582C1110.06 712.596 1014.52 751.598 913.573 742.838C816.64 734.428 745.352 692.901 672.027 644.754C603.229 599.578 545.103 545.901 466.429 521.354C365.163 489.759 244.6 520.044 150.926 584.336C55.6749 649.221 -12.4094 737.234 -56.2539 837.752" stroke="#3CC0A3" stroke-opacity="0.15" stroke-width="0.864782" stroke-miterlimit="10"/>
<path d="M1891.19 807.905C1899.87 799.499 1886.17 784.167 1864.32 763.723C1844.07 744.772 1819.24 723.338 1793.33 707.171C1760.11 686.442 1725.8 662.609 1684.06 650.58C1620 632.121 1547.3 631.464 1479.85 634.067C1381.99 637.846 1287.26 657.917 1196.25 682.728C1103.02 708.144 1009.4 745.273 910.334 735.912C813.483 726.763 740.958 686.775 666.885 641.923C597.248 599.756 538.253 551.099 460.15 529.778C360.35 502.533 242.506 534.31 149.01 597.184C53.8148 661.199 -15.9774 744.231 -61.9492 841.874" stroke="#3CC0A3" stroke-opacity="0.15" stroke-width="0.864782" stroke-miterlimit="10"/>
<path d="M1900.41 796.162C1907.63 791.38 1891.8 779.943 1867.65 761.052C1845.95 744.076 1820.03 723.149 1793.05 708.339C1758.75 689.517 1723.4 666.955 1680.77 655.921C1614.17 638.677 1539.08 637.336 1469.35 638.698C1372.06 640.597 1277.85 658.333 1187.5 680.882C1096 703.717 1004.29 738.94 907.095 728.995C810.326 719.093 736.551 680.658 661.743 639.096C591.259 599.939 531.446 556.293 453.867 538.206C355.58 515.29 240.291 548.407 147.09 610.031C51.8381 673.009 -19.5453 751.228 -67.6445 846" stroke="#3CC0A3" stroke-opacity="0.15" stroke-width="0.864782" stroke-miterlimit="10"/>
<path d="M1909.64 784.419C1915.39 783.26 1897.52 775.693 1870.98 758.384C1847.92 743.341 1820.84 722.958 1792.77 709.511C1757.42 692.583 1720.98 671.327 1677.49 661.261C1608.33 645.258 1530.88 643.247 1458.86 643.325C1362.15 643.429 1268.47 658.757 1178.75 679.032C1089 699.311 999.173 732.584 903.852 722.068C807.165 711.401 732.136 674.535 656.598 636.264C585.262 600.12 524.675 561.469 447.58 546.629C350.858 528.011 238.069 562.498 145.166 622.877C49.8536 684.822 -23.1211 758.233 -73.3477 850.129" stroke="#3CC0A3" stroke-opacity="0.15" stroke-width="0.864782" stroke-miterlimit="10"/>
<path d="M1918.86 772.674C1923.16 775.139 1903.32 771.39 1874.31 755.711C1849.96 742.549 1821.66 722.746 1792.49 710.673C1756.11 695.622 1718.57 675.706 1674.21 666.591C1602.47 651.855 1522.68 649.187 1448.38 647.942C1352.27 646.334 1259.11 659.189 1170.01 677.167C1082.04 694.921 994.068 726.196 900.629 715.131C804.02 703.69 727.728 668.407 651.472 633.418C579.271 600.293 517.967 566.609 441.317 555.034C346.204 540.675 235.866 576.567 143.265 635.701C47.8799 696.616 -26.6773 765.224 -79.0312 854.245" stroke="#3CC0A3" stroke-opacity="0.15" stroke-width="0.864782" stroke-miterlimit="10"/>
<path d="M1928.08 760.93C1930.92 767.023 1909.17 767.018 1877.64 753.044C1852.04 741.698 1822.49 722.53 1792.21 711.845C1754.81 698.653 1716.13 680.116 1670.92 671.936C1596.61 658.493 1514.49 655.18 1437.88 652.573C1342.37 649.322 1249.78 659.651 1161.26 675.321C1075.09 690.576 988.944 719.806 897.385 708.209C800.854 695.981 723.296 662.302 646.326 630.59C573.256 600.483 511.277 571.742 435.029 563.462C341.572 553.313 233.639 590.655 141.336 648.552C45.8944 708.416 -30.2496 772.22 -84.7266 858.37" stroke="#3CC0A3" stroke-opacity="0.15" stroke-width="0.864782" stroke-miterlimit="10"/>
<path d="M1937.31 749.186C1938.69 758.902 1915.06 762.569 1880.97 750.371C1854.17 740.776 1823.34 722.296 1791.93 713.012C1753.53 701.662 1713.71 684.535 1667.64 677.271C1590.74 665.147 1506.31 661.207 1427.4 657.195C1332.49 652.369 1240.47 660.126 1152.52 673.466C1068.17 686.26 983.833 713.393 894.15 701.281C797.693 688.258 718.863 656.196 641.184 627.753C567.237 600.677 504.626 576.831 428.746 571.88C336.988 565.891 231.416 604.733 139.416 661.389C43.9052 720.207 -33.8171 779.211 -90.4258 862.486" stroke="#3CC0A3" stroke-opacity="0.15" stroke-width="0.864782" stroke-miterlimit="10"/>
<path d="M1946.53 737.442C1946.45 750.782 1920.96 758.041 1884.3 747.703C1856.3 739.803 1824.19 722.049 1791.65 714.18C1752.25 704.654 1711.27 688.971 1664.35 682.611C1584.87 671.831 1498.13 667.283 1416.91 661.826C1322.61 655.487 1231.19 660.637 1143.77 671.619C1061.27 681.984 978.716 706.967 890.911 694.363C794.526 680.527 714.417 650.108 636.042 624.93C561.212 600.889 498.014 581.894 422.467 580.311C332.447 578.426 229.192 618.82 137.499 674.24C41.9193 732.012 -37.3812 786.216 -96.1172 866.619" stroke="#3CC0A3" stroke-opacity="0.15" stroke-width="0.864782" stroke-miterlimit="10"/>
<path d="M1955.76 725.698C1954.21 742.661 1926.87 753.44 1887.63 745.03C1858.43 738.773 1825.04 721.785 1791.36 715.347C1750.98 707.624 1708.83 693.424 1661.07 687.946C1578.99 678.537 1489.95 673.396 1406.42 666.447C1312.72 658.651 1221.93 661.168 1135.02 669.764C1054.39 677.737 973.605 700.516 887.676 687.431C791.365 672.765 709.972 644.015 630.904 622.088C555.184 601.091 491.432 586.892 416.188 588.721C327.937 590.87 226.965 632.885 135.583 687.072C39.9296 743.798 -40.9491 793.207 -101.812 870.739" stroke="#3CC0A3" stroke-opacity="0.15" stroke-width="0.864782" stroke-miterlimit="10"/>
<path d="M1964.98 713.956C1961.97 734.542 1932.77 748.772 1890.96 742.364C1860.55 737.703 1825.89 721.509 1791.09 716.52C1749.71 710.583 1706.4 697.892 1657.79 693.292C1573.11 685.275 1481.77 679.563 1395.92 671.08C1302.84 661.883 1212.69 661.74 1126.28 667.915C1047.53 673.544 968.493 694.053 884.436 680.51C788.199 665 705.513 637.941 625.763 619.262C549.147 601.318 484.868 591.853 409.904 597.15C323.448 603.259 224.733 646.961 133.663 699.92C37.9312 755.591 -44.5171 800.205 -107.508 874.861" stroke="#3CC0A3" stroke-opacity="0.15" stroke-width="0.864782" stroke-miterlimit="10"/>
<path d="M1974.2 702.211C1969.74 726.425 1938.66 744.04 1894.29 739.69C1862.66 736.59 1826.75 721.214 1790.81 717.682C1748.44 713.518 1703.96 702.362 1654.51 698.622C1567.24 692.019 1473.59 685.758 1385.44 675.697C1292.95 665.142 1203.48 662.336 1117.54 666.054C1040.69 669.379 963.389 687.561 881.204 673.574C785.045 657.208 701.062 631.865 620.628 616.416C543.113 601.533 478.324 596.733 403.633 605.558C318.983 615.56 222.508 661.017 131.754 712.752C35.9489 767.363 -48.0776 807.195 -113.191 878.977" stroke="#3CC0A3" stroke-opacity="0.15" stroke-width="0.864782" stroke-miterlimit="10"/>
<path d="M1983.43 690.467C1977.5 718.304 1944.51 739.258 1897.62 737.022C1864.75 735.453 1827.6 720.911 1790.53 718.853C1747.17 716.445 1701.53 706.854 1651.22 703.962C1561.36 698.799 1465.39 692.006 1374.95 680.323C1283.05 668.454 1194.28 662.984 1108.78 664.203C1033.86 665.271 958.274 681.062 877.961 666.651C781.876 649.407 696.595 625.807 615.483 613.588C537.069 601.775 471.778 601.571 397.346 613.985C314.508 627.796 220.269 675.086 129.83 725.598C33.9427 779.15 -51.6491 814.195 -118.895 883.105" stroke="#3CC0A3" stroke-opacity="0.15" stroke-width="0.864782" stroke-miterlimit="10"/>
<path d="M1992.65 678.723C1985.26 710.184 1950.35 734.437 1900.95 734.35C1866.81 734.29 1828.45 720.596 1790.25 720.021C1745.89 719.355 1699.09 711.352 1647.94 709.302C1555.48 705.596 1457.19 698.302 1364.46 684.954C1273.14 671.809 1185.09 663.685 1100.04 662.357C1027.04 661.216 953.162 674.551 874.722 659.733C778.718 641.594 692.132 619.767 610.341 610.764C531.027 602.03 465.23 606.354 391.062 622.413C310.032 639.964 218.032 689.157 127.909 738.45C31.944 790.933 -55.2174 821.196 -124.586 887.231" stroke="#3CC0A3" stroke-opacity="0.15" stroke-width="0.864782" stroke-miterlimit="10"/>
<path d="M2001.87 666.98C1993.02 702.065 1956.16 729.582 1904.28 731.683C1868.85 733.119 1829.29 720.268 1789.96 721.189C1744.6 722.253 1696.66 715.858 1644.65 714.639C1549.6 712.407 1448.97 704.637 1353.97 689.577C1263.23 675.192 1175.91 664.429 1091.29 660.499C1020.22 657.2 948.063 668.01 871.486 652.798C775.565 633.747 687.673 613.723 605.203 607.92C524.985 602.278 458.674 611.042 384.787 630.824C305.551 652.037 215.8 703.202 125.997 751.279C29.9452 802.704 -58.7815 828.185 -130.277 891.348" stroke="#3CC0A3" stroke-opacity="0.15" stroke-width="0.864782" stroke-miterlimit="10"/>
<path d="M2011.09 655.236C2000.78 693.948 1961.94 724.699 1907.61 729.01C1870.88 731.925 1830.13 719.926 1789.68 722.356C1743.32 725.14 1694.22 720.375 1641.36 719.978C1543.73 719.243 1440.75 711.023 1343.47 694.203C1253.3 678.611 1166.72 665.233 1082.54 658.647C1013.41 653.238 942.956 661.454 868.248 645.874C772.408 625.885 683.21 607.694 600.057 605.091C518.941 602.549 452.084 615.685 378.5 639.25C301.029 664.061 213.552 717.262 124.073 764.125C27.9347 814.477 -62.3529 835.188 -135.98 895.477" stroke="#3CC0A3" stroke-opacity="0.15" stroke-width="0.864782" stroke-miterlimit="10"/>
<path d="M2020.32 643.492C2008.55 685.828 1967.7 719.801 1910.94 726.343C1872.89 730.732 1830.97 719.585 1789.41 723.528C1742.03 728.025 1691.8 724.903 1638.09 725.318C1537.88 726.096 1432.52 717.453 1332.99 698.83C1243.38 682.062 1157.56 666.102 1073.8 656.797C1006.61 649.334 937.869 654.886 865.02 638.948C769.271 618.003 678.763 601.676 594.927 602.255C512.911 602.822 445.475 620.256 372.228 647.669C296.491 676.017 211.318 731.311 122.164 776.967C25.9394 826.242 -65.9135 842.185 -141.664 899.602" stroke="#3CC0A3" stroke-opacity="0.15" stroke-width="0.864782" stroke-miterlimit="10"/>
<path d="M2029.54 631.748C2016.31 677.707 1973.43 714.884 1914.27 723.67C1874.87 729.524 1831.8 719.225 1789.13 724.695C1740.72 730.895 1689.37 729.429 1634.8 730.657C1532.01 732.962 1424.26 723.925 1322.5 703.456C1233.42 685.537 1148.37 667.031 1065.05 654.946C999.784 645.476 932.767 648.295 861.777 632.025C766.124 610.098 674.301 595.669 589.782 599.427C506.871 603.111 438.812 624.773 365.946 656.091C291.899 687.92 209.074 745.359 120.24 789.808C23.9245 838.007 -69.4849 849.18 -147.367 903.722" stroke="#3CC0A3" stroke-opacity="0.15" stroke-width="0.864782" stroke-miterlimit="10"/>
<path d="M2038.77 620.006C2024.07 669.588 1979.14 709.96 1917.6 721.003C1876.84 728.319 1832.62 718.872 1788.84 725.863C1739.41 733.763 1686.95 733.967 1631.51 735.994C1526.15 739.843 1415.99 730.442 1312.01 708.084C1223.46 689.041 1139.16 668.031 1056.31 653.096C992.955 641.673 927.681 641.694 858.542 625.103C762.992 602.174 669.855 589.669 584.644 596.596C500.842 603.41 432.105 629.237 359.666 664.516C287.263 699.782 206.829 759.404 118.323 802.656C21.9171 849.769 -73.049 856.182 -153.059 907.853" stroke="#3CC0A3" stroke-opacity="0.15" stroke-width="0.864782" stroke-miterlimit="10"/>
<path d="M2047.99 608.261C2031.83 661.467 1984.82 705.026 1920.93 718.331C1878.78 727.108 1833.44 718.504 1788.56 727.03C1738.1 736.621 1684.53 738.51 1628.23 741.33C1520.31 746.739 1407.7 737.006 1301.52 712.705C1213.48 692.56 1129.93 669.099 1047.56 651.237C986.105 637.91 922.595 635.065 855.302 618.167C759.861 594.204 665.405 583.667 579.501 593.754C494.813 603.699 425.337 633.643 353.387 672.93C282.574 711.594 204.584 773.435 116.406 815.489C19.9054 861.513 -76.6173 863.173 -158.75 911.968" stroke="#3CC0A3" stroke-opacity="0.15" stroke-width="0.864782" stroke-miterlimit="10"/>
<path d="M2057.21 596.518C2039.6 653.352 1990.5 700.089 1924.26 715.663C1880.72 725.898 1834.24 718.137 1788.28 728.203C1736.77 739.484 1682.11 743.064 1624.94 746.675C1514.45 753.653 1399.39 743.618 1291.02 717.337C1203.49 696.106 1120.67 670.254 1038.81 649.391C979.226 634.205 917.515 628.433 852.06 611.25C756.739 586.223 660.96 577.683 574.356 590.927C488.786 604.016 418.505 638.023 347.1 681.358C277.822 723.399 202.331 787.475 114.482 828.34C17.8862 873.274 -80.1887 870.178 -164.453 916.103" stroke="#3CC0A3" stroke-opacity="0.15" stroke-width="0.864782" stroke-miterlimit="10"/>
<path d="M2066.44 584.775C2047.36 645.231 1996.16 695.151 1927.59 712.991C1882.65 724.688 1835.05 717.761 1788 729.366C1735.45 742.334 1679.7 747.613 1621.67 752.006C1508.62 760.567 1391.07 750.264 1280.54 721.955C1193.49 699.661 1111.37 671.465 1030.07 647.532C972.327 630.535 912.45 621.77 848.828 604.314C753.637 578.194 656.531 571.69 569.222 588.087C482.774 604.319 411.629 642.365 340.825 689.768C273.021 735.164 200.086 801.493 112.57 841.169C15.8784 885.005 -83.7532 877.162 -170.141 920.211" stroke="#3CC0A3" stroke-opacity="0.15" stroke-width="0.864782" stroke-miterlimit="10"/>
<path d="M2075.66 573.031C2055.12 637.112 2001.79 690.209 1930.92 710.324C1884.56 723.477 1835.85 717.389 1787.72 730.538C1734.1 745.188 1677.28 752.171 1618.38 757.351C1502.78 767.508 1382.72 756.966 1270.05 726.586C1183.47 703.242 1102.01 672.767 1021.32 645.686C965.395 626.912 907.385 615.107 845.592 597.397C750.544 570.152 652.102 565.724 564.084 585.264C476.767 604.648 404.679 646.698 334.549 698.2C268.164 746.948 197.84 815.529 110.657 854.025C13.8666 896.758 -87.3129 884.171 -175.832 924.349" stroke="#3CC0A3" stroke-opacity="0.15" stroke-width="0.864782" stroke-miterlimit="10"/>
<path d="M2084.88 561.287C2062.89 628.991 2007.42 685.267 1934.25 707.651C1886.47 722.266 1836.64 717.008 1787.44 731.705C1732.76 748.037 1674.88 756.732 1615.09 762.686C1496.95 774.452 1374.35 763.702 1259.55 731.213C1173.43 706.834 1092.59 674.141 1012.57 643.835C958.408 623.318 902.326 608.422 842.35 590.474C747.457 562.07 647.674 559.752 558.935 582.431C470.753 604.972 397.661 651.013 328.258 706.622C263.235 758.721 195.579 829.556 108.729 866.867C11.8388 908.493 -90.8887 891.171 -181.535 928.474" stroke="#3CC0A3" stroke-opacity="0.15" stroke-width="0.864782" stroke-miterlimit="10"/>
<path d="M2094.1 549.543C2070.65 620.87 2013.04 680.328 1937.57 704.983C1888.36 721.064 1837.43 716.628 1787.16 732.872C1731.41 750.886 1672.47 761.298 1611.81 768.022C1491.13 781.404 1365.95 770.478 1249.07 735.834C1163.38 710.436 1083.1 675.576 1003.83 641.975C951.385 619.746 897.28 601.715 839.114 583.538C744.399 553.936 643.258 553.767 553.797 579.59C464.759 605.287 390.595 655.31 321.979 715.036C258.262 770.495 193.325 843.565 106.812 879.7C9.8227 920.21 -94.457 898.158 -187.227 932.585" stroke="#3CC0A3" stroke-opacity="0.15" stroke-width="0.864782" stroke-miterlimit="10"/>
<path d="M2103.33 537.799C2078.41 612.754 2018.65 675.386 1940.91 702.311C1890.25 719.853 1838.22 716.247 1786.88 734.04C1730.06 753.735 1670.07 765.864 1608.53 773.361C1485.31 788.369 1357.53 777.305 1238.58 740.461C1153.31 714.054 1073.54 677.085 995.081 640.124C944.31 616.204 892.237 595 835.879 576.615C741.354 545.776 638.851 547.804 548.659 576.757C458.769 605.615 383.477 659.621 315.704 723.455C253.245 782.286 191.011 857.414 104.9 892.541C7.73313 931.755 -98.0168 905.154 -192.918 936.71" stroke="#3CC0A3" stroke-opacity="0.15" stroke-width="0.864782" stroke-miterlimit="10"/>
<path d="M2112.56 526.055C2086.18 604.633 2024.25 670.447 1944.24 699.642C1892.14 718.655 1839 715.866 1786.6 735.211C1728.7 756.584 1667.67 770.438 1605.24 778.701C1479.5 795.344 1349.09 784.171 1228.09 745.087C1143.23 717.677 1063.89 678.65 986.337 638.273C937.178 612.68 887.211 588.271 832.643 569.687C738.334 537.569 634.504 542.001 543.521 573.925C452.84 606.112 376.302 663.94 309.424 731.877C248.176 794.094 188.778 871.47 102.983 905.383C5.73864 943.528 -101.585 912.15 -198.609 940.835" stroke="#3CC0A3" stroke-opacity="0.15" stroke-width="0.864782" stroke-miterlimit="10"/>
<path d="M2121.78 514.311C2093.94 596.512 2029.84 665.513 1947.57 696.97C1894.01 717.448 1839.74 715.394 1786.32 736.374C1727.3 759.329 1665.29 775.12 1601.96 784.036C1473.73 802.551 1340.62 791.071 1217.6 749.709C1133.13 721.309 1054.14 680.258 977.593 636.418C929.996 609.156 882.199 581.526 829.408 562.76C735.337 529.319 630.08 535.952 538.383 571.088C446.837 606.358 369.085 668.268 303.145 740.295C243.064 805.924 186.547 885.527 101.063 918.224C3.7403 955.298 -105.153 919.15 -204.305 944.959" stroke="#3CC0A3" stroke-opacity="0.15" stroke-width="0.864782" stroke-miterlimit="10"/>
<path d="M2131 502.568C2101.7 588.394 2035.42 660.581 1950.9 694.303C1895.88 716.252 1840.55 715.106 1786.04 737.547C1725.97 762.28 1662.88 779.593 1598.67 789.378C1467.89 809.315 1332.13 798.017 1207.11 754.341C1123.01 724.96 1044.3 681.92 968.845 634.569C922.744 605.642 877.195 574.773 826.169 555.839C732.366 521.023 625.656 529.908 533.241 568.262C440.826 606.615 361.824 672.619 296.866 748.724C237.914 817.786 184.315 899.59 99.1467 931.072C1.74191 967.077 -108.717 926.152 -210 949.086" stroke="#3CC0A3" stroke-opacity="0.15" stroke-width="0.864782" stroke-miterlimit="10"/>
<path d="M1964.83 820.61C1952.7 711.444 1893.31 606.395 1800.19 529.39C1773.69 507.481 1743.29 487.232 1707.17 479.734C1602.78 458.076 1503.42 533.654 1423.41 578.592C1326.85 632.831 1231.7 689.141 1130.06 736.644C1073 763.314 1005.12 787.623 944.304 767.62C882.717 747.363 853.232 690.369 822.761 641.155C787.254 583.807 741.393 529.563 679.162 491.422C616.935 453.285 536.615 432.742 461.242 446.324C402.22 456.956 350.936 487.033 304.735 519.605C183.336 605.188 84.5299 713.156 17.3711 833.603" stroke="#3CC0A3" stroke-opacity="0.15" stroke-width="0.864782" stroke-miterlimit="10"/>
<path d="M1967.51 815.615C1955.78 709.969 1895.24 610.562 1800.39 533.575C1773.91 512.081 1743.85 492.057 1708.23 484.447C1605.09 462.356 1507.05 534.237 1427.25 577.618C1342.16 623.871 1258.12 672.52 1168.82 715.69C1157.84 721.017 1146.8 726.257 1135.68 731.394C1079.05 757.567 1011.98 781.512 951.779 762.595C890.78 743.449 860.877 688.778 830.05 641.617C794.038 586.694 748.048 534.76 686.27 498.314C624.333 461.919 544.936 442.44 470.384 455.775C419.719 464.829 374.704 487.889 333.662 514.252C327.306 518.329 321.084 522.519 314.887 526.683C191.941 609.3 93.5114 708.897 28.5195 825.461" stroke="#3CC0A3" stroke-opacity="0.15" stroke-width="0.864782" stroke-miterlimit="10"/>
<path d="M1970.19 810.621C1958.85 708.499 1897.19 614.727 1800.61 537.765C1774.14 516.678 1744.42 496.891 1709.29 489.164C1607.41 466.641 1510.69 534.829 1431.08 576.654C1346.84 620.914 1263.55 668.304 1174.18 710.761C1163.28 715.98 1152.32 721.116 1141.29 726.158C1085.1 751.833 1018.84 775.416 959.252 757.584C898.837 739.553 868.516 687.2 837.333 642.097C800.815 589.605 754.701 539.97 693.367 505.223C631.719 470.567 553.251 452.156 479.514 465.249C429.303 474.152 384.582 496.472 343.736 521.836C337.405 525.758 331.23 529.818 325.028 533.783C200.467 613.442 102.486 704.664 39.6562 817.341" stroke="#3CC0A3" stroke-opacity="0.15" stroke-width="0.864782" stroke-miterlimit="10"/>
<path d="M1974.07 806.631C1963.12 708.028 1900.35 619.886 1802.01 542.955C1775.57 522.269 1746.18 502.721 1711.55 494.881C1610.93 471.926 1515.53 536.425 1436.11 576.685C1352.73 618.956 1270.04 664.893 1180.74 706.831C1169.91 711.92 1159.05 716.975 1148.1 721.917C1092.34 747.095 1026.9 770.314 967.925 753.572C908.098 736.653 877.462 686.569 845.815 643.576C808.915 593.445 762.662 546.046 701.669 513.132C640.412 480.081 562.764 462.871 489.853 475.722C440.097 484.474 395.675 506.059 355.014 530.42C348.704 534.186 342.58 538.116 336.379 541.882C210.141 618.584 112.666 701.426 52.0078 810.22" stroke="#3CC0A3" stroke-opacity="0.15" stroke-width="0.864782" stroke-miterlimit="10"/>
<path d="M1975.56 800.638C1965 705.559 1901.14 623.037 1801.03 546.141C1774.61 525.853 1745.55 506.547 1711.42 498.595C1612.05 475.203 1518 536.014 1438.75 574.713C1356.25 614.999 1274.23 659.609 1184.91 700.898C1174.15 705.871 1163.38 710.83 1152.52 715.673C1097.19 740.358 1032.56 763.21 974.199 747.553C914.954 731.745 883.931 683.961 851.897 643.044C814.528 595.317 768.146 550.201 707.57 519.026C646.634 487.669 569.884 471.571 497.788 484.175C448.485 492.775 404.357 513.625 363.893 536.983C357.609 540.593 351.526 544.39 345.325 547.966C217.343 621.71 120.44 696.176 61.9492 801.083" stroke="#3CC0A3" stroke-opacity="0.15" stroke-width="0.864782" stroke-miterlimit="10"/>
<path d="M1978.24 795.644C1968.08 704.085 1903.13 627.18 1801.24 550.327C1774.86 530.437 1746.12 511.377 1712.49 503.309C1614.37 479.484 1521.69 536.612 1442.59 573.745C1360.98 612.06 1279.63 655.333 1190.27 695.965C1179.59 700.821 1168.91 705.685 1158.14 710.429C1103.25 734.617 1039.43 757.105 981.681 742.538C923.02 727.841 891.61 682.358 859.189 643.52C821.35 598.193 774.829 555.365 714.677 525.932C654.055 496.27 578.202 481.283 506.926 493.645C458.078 502.09 414.244 522.204 373.971 544.563C367.707 548.018 361.666 551.685 355.47 555.062C225.677 625.84 129.414 691.935 73.0898 792.955" stroke="#3CC0A3" stroke-opacity="0.15" stroke-width="0.864782" stroke-miterlimit="10"/>
<path d="M1980.93 790.65C1971.15 702.611 1905.14 631.314 1801.45 554.517C1775.11 535.017 1746.68 516.208 1713.56 508.027C1616.69 483.77 1525.38 537.217 1446.43 572.777C1365.73 609.124 1285.01 651.057 1195.63 691.036C1185.03 695.78 1174.43 700.54 1163.75 705.193C1109.29 728.883 1046.29 751.009 989.152 737.527C931.079 723.945 899.277 680.758 866.469 644.001C828.156 601.073 781.5 560.536 721.776 532.842C661.464 504.875 586.519 490.995 516.059 503.119C467.669 511.412 424.13 530.792 384.047 552.148C377.81 555.447 371.804 558.975 365.618 562.162C233.953 629.965 138.397 687.702 84.2344 784.835" stroke="#3CC0A3" stroke-opacity="0.15" stroke-width="0.864782" stroke-miterlimit="10"/>
<path d="M1983.61 785.655C1974.22 701.14 1907.17 635.434 1801.65 558.702C1775.37 539.59 1747.23 521.093 1714.62 512.739C1618.95 488.218 1529.09 537.822 1450.27 571.803C1370.5 606.196 1290.42 646.78 1201 686.102C1190.48 690.728 1179.97 695.394 1169.38 699.947C1115.35 723.145 1053.16 744.903 996.636 732.506C939.146 720.036 906.952 679.145 873.767 644.467C834.98 603.939 788.185 565.689 728.889 539.737C668.881 513.47 594.85 500.697 525.209 512.575C477.274 520.716 434.08 539.43 394.137 559.709C387.925 562.862 381.95 566.247 375.775 569.244C242.169 634.055 147.382 683.447 95.3867 776.696" stroke="#3CC0A3" stroke-opacity="0.15" stroke-width="0.864782" stroke-miterlimit="10"/>
<path d="M1986.29 780.66C1977.3 699.665 1909.22 639.545 1801.86 562.886C1775.63 544.155 1747.79 525.926 1715.69 517.446C1621.26 492.51 1532.81 538.43 1454.1 570.829C1375.27 603.28 1295.82 642.511 1206.36 681.163C1195.92 685.677 1185.49 690.243 1174.99 694.696C1121.39 717.397 1060.02 738.792 1004.1 727.485C947.202 716.126 914.605 677.531 881.044 644.937C841.776 606.804 794.847 570.855 735.984 546.633C676.281 522.064 603.158 510.398 534.338 522.034C486.857 530.025 443.962 548.008 404.209 567.279C398.023 570.28 392.075 573.523 385.92 576.329C250.302 638.122 156.356 679.2 106.527 768.562" stroke="#3CC0A3" stroke-opacity="0.15" stroke-width="0.864782" stroke-miterlimit="10"/>
<path d="M1988.97 775.667C1980.37 698.195 1911.28 643.645 1802.07 567.073C1775.9 548.722 1748.35 530.76 1716.75 522.16C1623.57 496.809 1536.55 539.049 1457.94 569.857C1380.07 600.375 1301.22 638.24 1211.73 676.23C1201.36 680.631 1191.02 685.098 1180.6 689.452C1127.45 711.655 1066.87 732.687 1011.58 722.465C955.263 712.222 922.27 675.918 888.332 645.409C848.579 609.672 801.511 576.019 743.092 553.534C683.682 530.67 611.483 520.106 543.478 531.495C496.451 539.33 453.855 556.591 414.294 574.851C408.128 577.696 402.211 580.797 396.071 583.417C258.384 642.162 165.336 674.95 117.68 760.429" stroke="#3CC0A3" stroke-opacity="0.15" stroke-width="0.864782" stroke-miterlimit="10"/>
<path d="M1991.65 770.678C1983.44 696.726 1913.35 647.74 1802.27 571.268C1776.16 553.293 1748.91 535.6 1717.81 526.883C1625.87 501.112 1540.3 539.69 1461.77 568.894C1384.87 597.496 1306.62 633.986 1217.08 671.301C1206.8 675.591 1196.54 679.958 1186.21 684.217C1133.49 705.927 1073.73 726.595 1019.05 717.459C963.319 708.327 929.917 674.315 895.608 645.89C855.365 612.548 808.163 581.2 750.182 560.445C691.067 539.284 619.786 529.823 552.601 540.97C506.028 548.654 463.732 565.184 424.356 582.436C418.216 585.126 412.319 588.083 406.2 590.522C266.378 646.188 174.3 670.722 128.805 752.314" stroke="#3CC0A3" stroke-opacity="0.15" stroke-width="0.864782" stroke-miterlimit="10"/>
<path d="M1994.34 765.683C1986.52 695.251 1915.45 651.817 1802.49 575.452C1776.45 557.845 1749.48 540.433 1718.88 531.595C1628.19 505.405 1544.08 540.329 1465.61 567.92C1389.7 594.616 1312.04 629.726 1222.45 666.367C1212.24 670.544 1202.08 674.812 1191.83 678.971C1139.54 700.184 1080.6 720.489 1026.54 712.438C971.387 704.417 937.578 672.701 902.902 646.36C862.164 615.41 814.823 586.37 757.296 567.345C698.47 547.887 628.117 539.525 561.753 550.434C515.634 557.967 473.637 573.766 434.452 590.011C428.333 592.545 422.462 595.36 416.369 597.612C274.348 650.152 183.297 666.479 139.969 744.184" stroke="#3CC0A3" stroke-opacity="0.15" stroke-width="0.864782" stroke-miterlimit="10"/>
<path d="M1997.02 760.689C1989.59 693.781 1917.56 655.877 1802.69 579.638C1776.72 562.399 1750.04 545.263 1719.94 536.308C1630.5 509.695 1547.85 540.982 1469.44 566.952C1394.54 591.762 1317.44 625.476 1227.81 661.438C1217.68 665.502 1207.6 669.671 1197.44 673.731C1145.58 694.447 1087.47 714.293 1034 707.427C979.453 700.422 945.21 671.098 910.179 646.84C868.935 618.285 821.464 591.555 764.387 574.251C705.844 556.505 636.42 549.237 570.876 559.9C525.211 567.281 483.508 582.349 444.514 597.587C438.421 599.969 432.565 602.628 426.498 604.704C282.228 654.07 192.255 662.234 151.094 736.056" stroke="#3CC0A3" stroke-opacity="0.15" stroke-width="0.864782" stroke-miterlimit="10"/>
<path d="M1999.7 755.694C1992.66 692.305 1919.68 659.923 1802.9 583.823C1777.01 566.946 1750.6 550.092 1721.01 541.02C1632.81 513.983 1551.65 541.647 1473.28 565.978C1399.4 588.916 1322.86 621.22 1233.18 656.499C1223.13 660.451 1213.13 664.52 1203.06 668.48C1151.64 688.703 1094.33 708.178 1041.48 702.402C987.52 696.504 952.854 669.479 917.472 647.302C875.723 621.142 828.118 596.721 771.499 581.142C713.235 565.109 644.75 558.934 580.022 569.355C534.81 576.58 493.402 590.923 454.604 605.152C448.531 607.379 442.691 609.887 436.655 611.79C290.078 657.926 201.24 657.986 162.246 727.921" stroke="#3CC0A3" stroke-opacity="0.15" stroke-width="0.864782" stroke-miterlimit="10"/>
<path d="M2002.39 750.699C1995.74 690.835 1921.83 663.953 1803.11 588.012C1777.29 571.499 1751.16 554.926 1722.07 545.737C1635.12 518.272 1555.47 542.33 1477.12 565.009C1404.27 586.092 1328.28 616.978 1238.54 651.569C1228.57 655.413 1218.66 659.378 1208.68 663.244C1157.69 682.97 1101.2 702.077 1048.95 697.39C995.576 692.603 960.488 667.875 924.754 647.782C882.489 624.017 834.755 601.914 778.596 588.051C720.606 573.735 653.065 568.65 589.151 578.828C544.394 585.902 503.28 599.514 464.673 612.736C458.626 614.807 452.801 617.164 446.796 618.889C297.867 661.731 210.215 653.749 173.383 719.801" stroke="#3CC0A3" stroke-opacity="0.15" stroke-width="0.864782" stroke-miterlimit="10"/>
<path d="M2005.07 745.706C1998.81 689.361 1923.99 667.971 1803.32 592.198C1777.59 576.04 1751.73 559.752 1723.14 550.451C1637.44 522.557 1559.3 543.031 1480.96 564.041C1409.16 583.291 1333.7 612.741 1243.91 646.641C1234.02 650.372 1224.19 654.238 1214.3 658.004C1163.74 677.232 1108.06 695.972 1056.44 692.379C1003.64 688.699 968.124 666.276 932.045 648.262C889.259 626.898 841.401 607.112 785.706 594.961C727.989 582.37 661.388 578.366 598.299 588.298C553.996 595.221 513.176 608.102 474.765 620.312C468.739 622.228 462.924 624.424 456.955 625.981C305.632 665.463 219.203 649.507 184.543 711.672" stroke="#3CC0A3" stroke-opacity="0.15" stroke-width="0.864782" stroke-miterlimit="10"/>
<path d="M2007.75 740.713C2001.89 687.892 1926.16 671.967 1803.53 596.385C1777.88 580.577 1752.29 564.583 1724.21 555.166C1639.75 526.844 1563.14 543.755 1484.79 563.07C1414.06 580.508 1339.13 608.505 1249.27 641.704C1239.46 645.328 1229.71 649.085 1219.9 652.756C1169.78 671.492 1114.91 689.864 1063.9 687.356C1011.69 684.788 975.734 664.669 939.32 648.726C896.008 629.766 848.026 612.297 792.801 601.851C735.352 590.985 669.699 588.057 607.426 597.752C563.583 604.519 523.051 616.669 484.831 627.876C478.825 629.636 473.026 631.673 467.088 633.065C313.335 669.105 228.165 645.254 195.672 703.536" stroke="#3CC0A3" stroke-opacity="0.15" stroke-width="0.864782" stroke-miterlimit="10"/>
<path d="M2010.43 735.719C2004.96 686.418 1928.35 675.95 1803.74 600.571C1778.19 585.113 1752.85 569.409 1725.27 559.874C1642.07 531.116 1567 544.49 1488.63 562.093C1418.97 577.741 1344.56 604.268 1254.63 636.766C1244.91 640.282 1235.24 643.936 1225.52 647.507C1175.83 665.745 1121.77 683.754 1071.38 682.336C1019.75 680.883 983.358 663.069 946.613 649.198C902.764 632.646 854.664 617.495 799.908 608.752C742.722 599.62 678.019 597.765 616.567 607.217C573.177 613.832 532.939 625.248 494.915 635.452C488.93 637.056 483.142 638.928 477.245 640.156C321.031 672.677 237.156 641.013 206.824 695.407" stroke="#3CC0A3" stroke-opacity="0.15" stroke-width="0.864782" stroke-miterlimit="10"/>
<path d="M2013.12 730.729C2008.03 684.947 1930.55 679.91 1803.95 604.765C1778.49 589.653 1753.42 574.242 1726.34 564.596C1644.38 535.405 1570.86 545.263 1492.46 561.132C1423.89 575.012 1349.98 600.056 1260 631.841C1250.35 635.248 1240.77 638.798 1231.13 642.275C1181.88 660.016 1128.62 677.661 1078.85 677.329C1027.81 676.987 990.963 661.486 953.893 649.681C909.503 635.547 861.294 622.713 807.008 615.665C750.085 608.276 686.336 607.484 625.704 616.69C582.768 623.154 542.82 633.834 504.997 643.036C499.038 644.484 493.254 646.188 487.393 647.256C328.698 676.17 246.133 636.775 217.969 687.287" stroke="#3CC0A3" stroke-opacity="0.15" stroke-width="0.864782" stroke-miterlimit="10"/>
<path d="M2015.8 725.735C2011.11 683.477 1932.77 683.854 1804.16 608.95C1778.79 594.176 1753.99 579.068 1727.41 569.309C1646.7 539.677 1574.74 546.055 1496.3 560.159C1428.82 572.292 1355.42 595.836 1265.36 626.908C1255.8 630.207 1246.3 633.653 1236.75 637.03C1187.93 654.278 1135.49 671.556 1086.33 672.309C1035.87 673.083 998.58 659.895 961.185 650.149C916.253 638.44 867.925 627.919 814.114 622.562C757.454 616.919 694.655 617.187 634.843 626.151C592.361 632.464 552.707 642.405 515.075 650.607C509.136 651.9 503.368 653.435 497.538 654.347C336.351 679.564 255.107 632.533 229.109 679.158" stroke="#3CC0A3" stroke-opacity="0.15" stroke-width="0.864782" stroke-miterlimit="10"/>
<path d="M2018.48 720.74C2014.18 682.002 1935.01 687.77 1804.37 613.135C1779.1 598.698 1754.55 583.892 1728.46 574.021C1649.02 543.952 1578.61 546.875 1500.14 559.186C1433.75 569.598 1360.86 591.619 1270.72 621.973C1261.24 625.164 1251.82 628.507 1242.37 631.784C1193.98 648.535 1142.34 665.454 1093.81 667.292C1043.92 669.177 1006.19 658.32 968.465 650.623C922.986 641.344 874.55 633.142 821.213 629.462C764.817 625.571 702.972 626.894 643.976 635.615C601.948 641.772 562.582 650.978 525.151 658.182C519.234 659.319 513.476 660.681 507.687 661.437C344.003 682.858 264.085 628.286 240.254 671.028" stroke="#3CC0A3" stroke-opacity="0.15" stroke-width="0.864782" stroke-miterlimit="10"/>
<path d="M2021.17 715.746C2017.26 680.532 1937.26 691.67 1804.58 617.321C1779.41 603.221 1755.12 588.718 1729.53 578.734C1651.34 548.22 1582.5 547.727 1503.98 558.213C1438.69 566.93 1366.3 587.412 1276.09 617.035C1266.69 620.123 1257.35 623.357 1247.98 626.535C1200.03 642.789 1149.2 659.349 1101.28 662.268C1051.98 665.273 1013.8 656.742 975.751 651.091C929.73 644.254 881.18 638.361 828.318 636.359C772.18 634.232 711.289 636.597 653.113 645.072C611.539 651.078 572.468 659.544 535.228 665.749C529.336 666.73 523.583 667.915 517.831 668.52C351.654 686.049 273.062 624.036 251.398 662.89" stroke="#3CC0A3" stroke-opacity="0.15" stroke-width="0.864782" stroke-miterlimit="10"/>
<path d="M2023.85 710.752C2020.33 679.058 1939.52 695.545 1804.78 621.511C1779.72 607.739 1755.68 593.544 1730.59 583.452C1653.65 552.493 1586.38 548.619 1507.81 557.249C1443.62 564.297 1371.73 583.223 1281.45 612.111C1272.13 615.09 1262.87 618.221 1253.59 621.299C1206.07 637.06 1156.06 653.257 1108.76 657.261C1060.04 661.382 1021.4 655.186 983.039 651.571C936.471 647.186 887.813 643.606 835.42 643.269C779.545 642.91 719.609 646.309 662.253 654.546C621.133 660.4 582.351 668.123 545.312 673.333C539.441 674.159 533.699 675.166 527.987 675.625C359.334 689.159 282.048 619.807 262.551 654.775" stroke="#3CC0A3" stroke-opacity="0.15" stroke-width="0.864782" stroke-miterlimit="10"/>
<path d="M2026.53 705.758C2023.41 677.588 1941.81 699.394 1805 625.697C1780.04 612.254 1756.25 598.365 1731.66 588.165C1655.98 556.756 1590.27 549.54 1511.65 556.276C1448.55 561.681 1377.18 579.029 1286.82 607.178C1277.58 610.053 1268.41 613.075 1259.21 616.059C1212.12 631.322 1162.92 647.165 1116.23 652.246C1068.1 657.486 1029.01 653.629 990.325 652.047C943.216 650.118 894.445 648.847 842.526 650.175C786.919 651.593 727.933 656.02 671.392 664.015C630.726 669.719 592.233 676.697 555.39 680.913C549.539 681.583 543.812 682.409 538.132 682.721C367.029 692.16 291.022 615.566 273.691 646.651" stroke="#3CC0A3" stroke-opacity="0.15" stroke-width="0.864782" stroke-miterlimit="10"/>
<path d="M2029.22 700.763C2026.48 676.113 1944.1 703.219 1805.2 629.881C1780.35 616.758 1756.82 603.186 1732.73 592.877C1658.31 561.019 1594.15 550.499 1515.48 555.303C1453.48 559.09 1382.63 574.838 1292.18 602.239C1283.03 605.01 1273.93 607.925 1264.83 610.809C1218.18 625.575 1169.78 641.059 1123.71 647.22C1076.16 653.581 1036.64 652.072 997.612 652.513C949.971 653.049 901.081 654.091 849.627 657.066C794.289 660.27 736.246 665.718 680.526 673.466C640.314 679.014 602.114 685.253 565.468 688.47C559.638 688.981 553.921 689.625 548.277 689.794C374.749 695.038 299.995 611.306 284.832 638.503" stroke="#3CC0A3" stroke-opacity="0.15" stroke-width="0.864782" stroke-miterlimit="10"/>
<path d="M2031.9 695.774C2029.55 674.643 1946.41 707.025 1805.41 634.072C1780.67 621.269 1757.39 608.012 1733.79 597.591C1660.63 565.278 1598.01 551.498 1519.32 554.335C1458.4 556.531 1388.07 570.666 1297.54 597.31C1288.47 599.978 1279.46 602.78 1270.44 605.569C1224.22 619.842 1176.65 635.04 1131.18 642.209C1084.23 649.763 1044.25 650.533 1004.89 652.989C956.717 655.998 907.714 659.345 856.724 663.972C801.659 668.966 744.561 675.43 689.655 682.936C649.898 688.333 611.987 693.824 575.537 696.051C569.732 696.405 564.026 696.864 558.418 696.894C382.511 697.841 308.97 607.069 295.969 630.384" stroke="#3CC0A3" stroke-opacity="0.15" stroke-width="0.864782" stroke-miterlimit="10"/>
<path d="M2034.58 690.78C2032.63 673.174 1948.74 710.8 1805.62 638.262C1780.99 625.775 1757.96 612.838 1734.86 602.309C1662.97 569.542 1601.87 552.541 1523.16 553.367C1463.31 553.994 1393.52 566.498 1302.9 592.377C1293.92 594.941 1284.99 597.635 1276.06 600.324C1230.27 614.1 1183.52 628.936 1138.66 637.19C1092.29 645.859 1051.88 648.986 1012.18 653.461C963.489 658.948 914.362 664.608 863.832 670.873C809.045 677.666 752.881 685.138 698.801 692.402C659.502 697.647 621.881 702.39 585.626 703.627C579.842 703.826 574.157 704.094 568.574 703.986C390.341 700.535 317.956 602.828 307.121 622.255" stroke="#3CC0A3" stroke-opacity="0.15" stroke-width="0.864782" stroke-miterlimit="10"/>
<path d="M2037.26 685.785C2035.7 671.698 1951.08 714.544 1805.83 642.447C1781.31 630.275 1758.52 617.654 1735.92 607.021C1665.3 573.792 1605.71 553.616 1527 552.393C1468.22 551.48 1398.98 562.333 1308.27 587.442C1299.37 589.907 1290.52 592.488 1281.68 595.083C1236.33 608.361 1190.38 622.834 1146.14 632.178C1100.36 641.958 1059.52 647.45 1019.47 653.94C970.266 661.909 921.021 669.878 870.939 677.777C816.441 686.378 761.206 694.844 707.941 701.866C669.096 706.96 631.769 710.955 595.71 711.201C589.947 711.24 584.283 711.322 578.726 711.076C398.222 703.137 326.936 598.581 318.273 614.125" stroke="#3CC0A3" stroke-opacity="0.15" stroke-width="0.864782" stroke-miterlimit="10"/>
<path d="M2039.95 680.792C2038.78 670.229 1953.43 718.263 1806.04 646.633C1781.63 634.769 1759.12 622.441 1736.99 611.735C1667.71 577.944 1609.53 554.737 1530.83 551.425C1473.09 548.991 1404.43 558.183 1313.63 582.514C1304.82 584.875 1296.05 587.348 1287.29 589.843C1242.37 602.629 1197.25 616.734 1153.61 627.163C1108.42 638.055 1067.16 645.916 1026.76 654.412C977.051 664.863 927.682 675.15 878.044 684.68C823.835 695.092 769.523 704.552 717.079 711.332C678.688 716.27 641.655 719.465 605.787 718.778C600.05 718.652 594.4 718.549 588.875 718.173C406.168 705.655 335.914 594.344 329.418 606.002" stroke="#3CC0A3" stroke-opacity="0.15" stroke-width="0.864782" stroke-miterlimit="10"/>
<path d="M2042.63 675.797C2041.85 668.753 1955.8 721.95 1806.25 650.817C1781.95 639.26 1759.68 627.265 1738.05 616.447C1670.03 582.219 1613.32 555.899 1534.67 550.451C1477.94 546.52 1409.89 554.04 1319 577.575C1310.26 579.836 1301.58 582.197 1292.9 584.592C1248.42 596.881 1204.1 610.622 1161.08 622.137C1116.47 634.14 1074.81 644.371 1034.04 654.878C983.835 667.815 934.342 680.415 885.137 691.575C831.233 703.803 777.834 714.254 726.204 720.791C688.268 725.578 651.529 728.038 615.857 726.348C610.141 726.067 604.517 725.773 599.012 725.258C414.169 708.075 344.885 590.093 340.551 597.867" stroke="#3CC0A3" stroke-opacity="0.15" stroke-width="0.864782" stroke-miterlimit="10"/>
<path d="M2045.32 670.803C2044.93 667.284 1958.18 725.609 1806.47 655.008C1782.28 643.753 1760.26 632.1 1739.13 621.165C1672.36 586.504 1617.09 557.11 1538.51 549.483C1482.78 544.074 1415.39 550.006 1324.37 572.646C1315.72 574.817 1307.11 577.056 1298.53 579.352C1254.48 591.144 1210.98 604.522 1168.57 617.126C1124.55 630.245 1082.5 642.884 1041.33 655.358C990.667 670.833 941.056 685.777 892.254 698.485C838.69 712.611 786.168 723.97 735.359 730.261C697.876 734.897 661.436 736.617 625.95 733.928C620.254 733.491 614.657 732.998 609.172 732.354C422.276 710.423 353.874 585.856 351.707 589.739" stroke="#3CC0A3" stroke-opacity="0.15" stroke-width="0.864782" stroke-miterlimit="10"/>
<path d="M2048 665.809C2048 665.809 1960.57 729.232 1806.68 659.193C1652.78 589.154 1592.37 504.475 1329.73 567.712C1067.1 630.949 837.627 762.6 636.027 741.499C434.427 720.398 362.852 581.609 362.852 581.609" stroke="#3CC0A3" stroke-opacity="0.15" stroke-width="0.864782" stroke-miterlimit="10"/>
<path d="M1817.19 561.649C1804.01 526.232 1765.41 505.196 1727.72 502.454C1690.02 499.713 1652.93 511.963 1617.78 525.838C1545.07 554.527 1475.38 590.874 1401.2 615.507C1327.02 640.141 1246.11 652.637 1170.7 632.064C1124.34 619.416 1081.75 594.757 1034.88 584.168C940.898 562.929 844.838 600.391 749.123 611.469C676.707 619.849 649.509 585.032 609.171 533.6C570.014 483.671 512.087 448.829 449.628 437.635C387.169 426.44 320.749 439.001 266.688 472.226" stroke="#3CC0A3" stroke-opacity="0.15" stroke-width="0.864782" stroke-miterlimit="10"/>
<path d="M1818.56 556.665C1803.9 523.453 1764.47 503.697 1726.17 502.17C1687.81 500.683 1649.97 513.642 1613.86 527.798C1540.8 556.505 1470.33 591.978 1395.86 614.821C1321.67 637.768 1241.38 647.994 1165.93 627.421C1119.73 614.821 1077.1 590.975 1030.37 580.844C936.705 560.526 841.086 597.413 745.756 608.396C673.763 616.693 645.481 582.997 604.568 532.775C565.155 484.092 507.704 449.553 445.794 439.763C384.014 429.879 318.744 443.408 265.18 476.62" stroke="#3CC0A3" stroke-opacity="0.15" stroke-width="0.864782" stroke-miterlimit="10"/>
<path d="M1819.93 551.673C1803.8 520.671 1763.54 502.186 1724.63 501.875C1685.6 501.641 1647.02 515.305 1609.94 529.751C1536.53 558.475 1465.24 592.902 1390.54 614.123C1316.29 635.215 1236.67 643.336 1161.18 622.763C1115.13 610.215 1072.47 587.172 1025.86 577.504C932.528 558.107 837.35 594.419 742.401 605.311C670.832 613.527 641.317 581.08 599.976 531.935C560.17 484.614 503.332 450.26 441.968 441.872C380.862 433.297 316.743 447.796 263.68 480.995" stroke="#3CC0A3" stroke-opacity="0.15" stroke-width="0.864782" stroke-miterlimit="10"/>
<path d="M1821.3 546.683C1803.7 517.886 1762.61 500.681 1723.09 501.584C1683.39 502.605 1644.07 516.978 1606.02 531.705C1532.26 560.446 1460.18 593.917 1385.2 613.427C1310.93 632.755 1231.95 638.683 1156.41 618.105C1110.52 605.605 1067.82 583.376 1021.35 574.17C928.34 555.694 833.603 591.427 739.039 602.232C667.894 610.365 637.228 579.104 595.373 531.104C555.247 485.089 498.928 451.137 438.129 443.994C377.686 436.89 314.729 452.201 262.168 485.387" stroke="#3CC0A3" stroke-opacity="0.15" stroke-width="0.864782" stroke-miterlimit="10"/>
<path d="M1822.67 541.693C1803.6 515.106 1761.67 499.172 1721.55 501.295C1681.19 503.57 1641.12 518.647 1602.11 533.664C1527.99 562.422 1455.13 594.947 1379.88 612.735C1305.58 630.303 1227.24 634.031 1151.65 613.453C1105.92 601 1063.19 579.58 1016.84 570.837C924.159 553.282 829.863 588.439 735.684 599.15C664.962 607.201 633.151 577.119 590.781 530.27C550.348 485.556 494.557 451.903 434.303 446.109C374.534 440.363 312.732 456.595 260.668 489.768" stroke="#3CC0A3" stroke-opacity="0.15" stroke-width="0.864782" stroke-miterlimit="10"/>
<path d="M1824.04 536.709C1803.5 512.326 1760.74 497.672 1720.01 501.01C1678.98 504.539 1638.16 520.325 1598.18 535.628C1523.71 564.403 1450.07 595.981 1374.54 612.048C1300.22 627.861 1222.51 629.387 1146.88 608.806C1101.31 596.405 1058.53 575.792 1012.32 567.508C919.97 550.874 826.111 585.452 732.317 596.076C662.019 604.045 629.066 575.148 586.178 529.445C545.438 486.032 490.174 452.673 430.469 448.237C371.379 443.848 310.723 461.001 259.16 494.166" stroke="#3CC0A3" stroke-opacity="0.15" stroke-width="0.864782" stroke-miterlimit="10"/>
<path d="M1825.41 531.719C1803.4 509.546 1759.8 496.073 1718.48 500.721C1676.76 505.413 1635.21 521.999 1594.27 537.583C1519.45 566.376 1445.03 597.01 1369.22 611.357C1294.88 625.423 1217.8 624.735 1142.12 604.158C1096.71 591.804 1053.9 572.001 1007.82 564.179C915.794 548.466 822.375 582.469 728.966 592.998C659.092 600.885 625.006 573.168 581.59 528.615C540.552 486.504 485.811 453.435 426.647 450.361C368.235 447.325 308.729 465.408 257.664 498.555" stroke="#3CC0A3" stroke-opacity="0.15" stroke-width="0.864782" stroke-miterlimit="10"/>
<path d="M1826.77 526.729C1803.29 506.761 1758.86 494.559 1716.93 500.431C1674.55 506.368 1632.25 523.668 1590.34 539.541C1515.17 568.351 1439.97 598.052 1363.88 610.665C1289.53 622.984 1213.07 620.087 1137.35 599.505C1092.1 587.199 1049.25 568.208 1003.31 560.845C911.601 546.053 818.624 579.481 725.6 589.919C656.149 597.723 620.939 571.188 576.983 527.78C535.655 486.966 481.428 454.191 422.805 452.475C365.076 450.788 306.712 469.8 256.148 502.939" stroke="#3CC0A3" stroke-opacity="0.15" stroke-width="0.864782" stroke-miterlimit="10"/>
<path d="M1828.14 521.74C1803.19 503.982 1757.92 493.047 1715.39 500.142C1672.33 507.329 1629.27 525.251 1586.43 541.496C1510.84 570.164 1434.94 599.095 1358.55 609.97C1284.2 620.555 1208.36 615.435 1132.59 594.849C1087.49 582.591 1044.61 564.409 998.803 557.512C907.421 543.636 814.885 576.49 722.241 586.837C653.214 594.563 616.88 569.204 572.387 526.946C530.774 487.426 477.062 454.94 418.979 454.594C361.934 454.253 304.715 474.199 254.645 507.324" stroke="#3CC0A3" stroke-opacity="0.15" stroke-width="0.864782" stroke-miterlimit="10"/>
<path d="M1829.51 516.754C1803.09 501.201 1756.99 491.537 1713.85 499.857C1670.13 508.293 1626.31 526.92 1582.51 543.459C1506.57 572.135 1429.91 600.154 1353.22 609.282C1278.86 618.133 1203.64 610.787 1127.83 590.2C1082.89 577.994 1039.98 560.621 994.29 554.182C903.237 541.228 811.137 573.506 718.878 583.762C650.275 591.407 612.826 567.223 567.788 526.12C525.893 487.892 472.692 455.697 415.145 456.717C358.787 457.716 302.706 478.605 253.137 511.713" stroke="#3CC0A3" stroke-opacity="0.15" stroke-width="0.864782" stroke-miterlimit="10"/>
<path d="M1830.88 511.764C1802.98 498.42 1756.05 490.023 1712.31 499.566C1667.91 509.252 1623.36 528.584 1578.59 545.417C1502.29 574.102 1424.87 601.213 1347.89 608.589C1273.53 615.719 1198.92 606.138 1123.07 585.551C1078.28 573.393 1035.33 556.828 989.781 550.852C899.052 538.819 807.394 570.517 715.52 580.687C647.34 588.25 608.784 565.238 563.188 525.293C521.022 488.35 468.322 456.448 411.311 458.844C355.641 461.178 300.701 483.01 251.629 516.109" stroke="#3CC0A3" stroke-opacity="0.15" stroke-width="0.864782" stroke-miterlimit="10"/>
<path d="M1832.25 506.775C1802.88 495.636 1755.11 488.515 1710.77 499.277C1665.7 510.212 1620.4 530.254 1574.67 547.372C1498.02 576.07 1419.84 602.273 1342.56 607.898C1268.2 613.307 1194.21 601.486 1118.3 580.9C1073.68 568.788 1030.69 553.032 985.272 547.519C894.867 536.407 803.65 567.53 712.16 577.605C644.405 585.085 604.746 563.241 558.592 524.46C516.158 488.8 463.959 457.188 407.485 460.959C352.502 464.63 298.699 487.404 250.129 520.49" stroke="#3CC0A3" stroke-opacity="0.15" stroke-width="0.864782" stroke-miterlimit="10"/>
<path d="M1833.62 501.783C1802.78 492.855 1754.18 487.009 1709.23 498.986C1663.49 511.175 1617.44 531.921 1570.75 549.329C1493.75 578.04 1414.81 603.343 1337.23 607.205C1262.87 610.906 1189.48 596.836 1113.53 576.245C1069.07 564.186 1026.04 549.238 980.759 544.188C890.679 533.997 799.902 564.541 708.798 574.529C641.466 581.927 600.713 561.246 553.993 523.628C511.294 489.248 459.593 457.926 403.651 463.08C349.36 468.079 296.694 491.808 248.621 524.882" stroke="#3CC0A3" stroke-opacity="0.15" stroke-width="0.864782" stroke-miterlimit="10"/>
<path d="M1834.99 496.798C1802.68 490.079 1753.24 485.504 1707.69 498.701C1661.28 512.144 1614.49 533.595 1566.83 551.288C1489.48 580.016 1409.78 604.425 1331.9 606.513C1257.55 608.506 1184.77 592.184 1108.78 571.593C1064.47 559.581 1021.41 545.442 976.253 540.854C886.502 531.584 796.163 561.553 705.443 571.446C638.534 578.762 596.688 559.24 549.401 522.793C506.448 489.69 455.235 458.657 399.824 465.195C346.225 471.52 294.693 496.201 247.121 529.262" stroke="#3CC0A3" stroke-opacity="0.15" stroke-width="0.864782" stroke-miterlimit="10"/>
<path d="M1836.35 491.809C1802.58 487.295 1752.31 484 1706.15 498.411C1659.07 513.113 1611.54 535.264 1562.92 553.247C1485.21 581.993 1404.75 605.51 1326.57 605.822C1252.22 606.12 1180.05 587.536 1104.01 566.941C1059.86 554.977 1016.77 541.65 971.745 537.521C882.318 529.172 792.419 558.566 702.084 568.368C635.6 575.602 592.672 557.234 544.802 521.964C501.597 490.131 450.874 459.388 395.99 467.318C343.083 474.963 292.683 500.604 245.613 533.651" stroke="#3CC0A3" stroke-opacity="0.15" stroke-width="0.864782" stroke-miterlimit="10"/>
<path d="M1837.72 486.819C1802.48 484.514 1751.37 482.495 1704.61 498.117C1656.86 514.072 1608.58 536.929 1559 555.201C1480.94 583.968 1399.73 606.6 1321.24 605.13C1246.9 603.737 1175.34 582.887 1099.25 562.293C1055.26 550.38 1012.13 537.858 967.239 534.192C878.137 526.763 788.679 555.578 698.729 565.289C632.668 572.441 588.659 555.223 540.21 521.133C496.763 490.563 446.515 460.114 392.168 469.441C339.948 478.4 290.69 505.009 244.117 538.044" stroke="#3CC0A3" stroke-opacity="0.15" stroke-width="0.864782" stroke-miterlimit="10"/>
<path d="M1839.09 481.83C1802.37 481.73 1750.43 480.991 1703.07 497.828C1654.64 515.042 1605.62 538.603 1555.08 557.157C1476.67 585.941 1394.69 607.695 1315.9 604.434C1241.56 601.356 1170.61 578.231 1094.48 557.637C1050.65 545.772 1007.48 534.063 962.723 530.859C873.949 524.347 784.928 552.591 695.363 562.211C629.726 569.281 584.645 553.205 535.607 520.304C491.918 490.992 442.146 460.837 388.33 471.561C336.802 481.83 288.677 509.408 242.602 542.429" stroke="#3CC0A3" stroke-opacity="0.15" stroke-width="0.864782" stroke-miterlimit="10"/>
<path d="M1840.46 476.844C1802.27 478.954 1749.5 479.495 1701.53 497.543C1652.44 516.015 1602.67 540.28 1551.16 559.12C1472.4 587.926 1389.67 608.806 1310.58 603.747C1236.24 598.99 1165.9 573.587 1089.72 552.988C1046.05 541.171 1002.84 530.27 958.215 527.529C869.765 521.938 781.185 549.603 692 559.133C626.791 566.12 580.638 551.177 531.004 519.469C487.081 491.407 437.776 461.546 384.492 473.679C333.656 485.254 286.668 513.805 241.09 546.818" stroke="#3CC0A3" stroke-opacity="0.15" stroke-width="0.864782" stroke-miterlimit="10"/>
<path d="M1841.82 471.855C1802.17 476.171 1748.56 477.991 1699.98 497.254C1650.22 516.984 1599.71 541.955 1547.24 561.079C1468.13 589.911 1384.63 609.922 1305.24 603.056C1230.9 596.626 1161.17 568.936 1084.95 548.337C1041.43 536.571 998.191 526.479 953.698 524.196C865.572 519.527 777.433 546.616 688.633 556.055C623.848 562.96 576.631 549.145 526.4 518.64C482.244 491.823 433.406 462.256 380.658 475.799C330.51 488.675 284.659 518.208 239.582 551.204" stroke="#3CC0A3" stroke-opacity="0.15" stroke-width="0.864782" stroke-miterlimit="10"/>
<path d="M1843.2 466.865C1802.07 473.39 1747.63 476.49 1698.45 496.964C1648.02 517.957 1596.81 543.736 1543.32 563.033C1463.92 592.047 1379.61 611.037 1299.92 602.359C1225.58 594.265 1156.46 564.283 1080.19 543.684C1036.83 531.966 993.555 522.683 949.196 520.862C861.395 517.113 773.697 543.628 685.282 552.976C620.921 559.799 572.644 547.104 521.812 517.81C477.432 492.234 429.051 462.961 376.836 477.921C327.375 492.091 282.665 522.609 238.086 555.592" stroke="#3CC0A3" stroke-opacity="0.15" stroke-width="0.864782" stroke-miterlimit="10"/>
<path d="M1844.57 461.875C1801.97 470.605 1746.74 475.08 1696.91 496.674C1645.86 519.02 1593.85 545.404 1539.41 564.992C1459.65 594.022 1374.58 612.165 1294.59 601.671C1220.25 591.917 1151.74 559.634 1075.43 539.035C1032.23 527.365 988.913 518.894 944.683 517.537C857.211 514.709 769.95 540.644 681.919 549.901C617.982 556.642 568.65 545.058 517.213 516.983C472.607 492.64 424.681 463.665 373.002 480.044C324.228 495.506 280.656 527.01 236.578 559.985" stroke="#3CC0A3" stroke-opacity="0.15" stroke-width="0.864782" stroke-miterlimit="10"/>
<path d="M1845.93 456.889C1801.86 467.828 1745.81 473.579 1695.37 496.388C1643.64 519.988 1590.9 547.081 1535.49 566.95C1455.38 595.998 1369.54 613.297 1289.26 600.979C1214.92 589.572 1147.02 554.985 1070.67 534.382C1027.63 522.759 984.274 515.097 940.178 514.202C853.03 512.295 766.21 537.655 678.564 546.822C615.05 553.481 564.668 542.995 512.617 516.152C467.791 493.028 420.31 464.36 369.176 482.166C321.085 498.913 278.659 531.411 235.078 564.372" stroke="#3CC0A3" stroke-opacity="0.15" stroke-width="0.864782" stroke-miterlimit="10"/>
<path d="M1847.31 451.898C1801.77 465.043 1744.88 472.069 1693.83 496.097C1641.44 520.956 1587.94 548.75 1531.57 568.908C1451.11 597.973 1364.5 614.434 1283.93 600.286C1209.58 587.233 1142.31 550.337 1065.91 529.729C1023.02 518.158 979.635 511.305 935.67 510.868C848.846 509.882 762.467 534.662 675.206 543.738C612.116 550.315 560.683 540.923 508.022 515.313C462.975 493.408 415.936 465.039 365.346 484.28C317.93 502.311 276.649 535.808 233.57 568.756" stroke="#3CC0A3" stroke-opacity="0.15" stroke-width="0.864782" stroke-miterlimit="10"/>
<path d="M1848.67 446.91C1801.66 462.264 1743.94 470.566 1692.29 495.809C1639.23 521.921 1584.99 550.425 1527.65 570.868C1446.84 599.951 1359.46 615.582 1278.6 599.596C1204.24 584.899 1137.59 545.686 1061.15 525.078C1018.42 513.555 974.996 507.51 931.164 507.536C844.664 507.471 758.726 531.676 671.85 540.661C609.184 547.156 556.705 538.845 503.43 514.484C458.167 493.786 411.564 465.728 361.519 486.4C314.786 505.707 274.652 540.207 232.074 573.142" stroke="#3CC0A3" stroke-opacity="0.15" stroke-width="0.864782" stroke-miterlimit="10"/>
<path d="M1850.04 441.92C1801.56 459.479 1743.01 469.057 1690.75 495.519C1637.02 522.885 1582.04 552.093 1523.73 572.822C1442.57 601.918 1354.42 616.731 1273.27 598.9C1198.9 582.564 1132.87 541.033 1056.38 520.425C1013.81 508.949 970.35 503.713 926.648 504.202C840.477 505.053 754.976 528.688 668.485 537.578C606.242 543.99 552.716 536.752 498.823 513.649C453.344 494.148 407.173 466.402 357.678 488.519C311.615 509.096 272.639 544.604 230.555 577.531" stroke="#3CC0A3" stroke-opacity="0.15" stroke-width="0.864782" stroke-miterlimit="10"/>
<path d="M1851.41 436.934C1801.45 456.703 1742.07 467.556 1689.2 495.233C1634.81 523.853 1579.08 553.77 1519.81 574.784C1438.29 603.897 1349.37 617.889 1267.93 598.215C1193.55 580.245 1128.15 536.388 1051.61 515.78C1009.2 504.356 965.706 499.929 922.139 500.88C836.292 502.653 751.232 525.708 665.125 534.511C603.306 540.841 548.739 534.667 494.227 512.831C448.532 494.524 402.789 467.093 353.851 490.65C308.459 512.498 270.638 549.018 229.055 581.927" stroke="#3CC0A3" stroke-opacity="0.15" stroke-width="0.864782" stroke-miterlimit="10"/>
<path d="M1852.78 431.945C1801.36 453.919 1741.14 466.048 1687.67 494.945C1632.61 524.819 1576.13 555.441 1515.9 576.74C1434.03 605.87 1344.32 619.05 1262.6 597.521C1188.21 577.921 1123.43 531.737 1046.85 511.125C1004.59 499.749 961.064 496.129 917.63 497.543C832.107 500.237 747.488 522.717 661.763 531.43C600.367 537.678 544.753 532.554 489.628 511.994C443.716 494.871 398.398 467.76 350.017 492.765C305.291 515.881 268.633 553.413 227.547 586.309" stroke="#3CC0A3" stroke-opacity="0.15" stroke-width="0.864782" stroke-miterlimit="10"/>
<path d="M1854.15 426.955C1801.25 451.139 1740.21 464.543 1686.13 494.65C1630.4 525.778 1573.18 557.109 1511.97 578.694C1429.75 607.842 1339.26 620.208 1257.27 596.824C1182.85 575.598 1118.71 527.08 1042.08 506.467C999.984 495.139 956.417 492.333 913.117 494.205C827.923 497.82 743.741 519.72 658.4 528.342C597.428 534.512 540.772 530.426 485.028 511.155C438.896 495.208 394.001 468.421 346.183 494.875C302.118 519.258 266.623 557.801 226.039 590.689" stroke="#3CC0A3" stroke-opacity="0.15" stroke-width="0.864782" stroke-miterlimit="10"/>
<path d="M1855.51 421.965C1801.15 448.354 1739.28 463.033 1684.59 494.36C1628.19 526.742 1570.22 558.782 1508.05 580.652C1425.48 609.817 1334.2 621.379 1251.94 596.132C1177.5 573.284 1113.99 522.431 1037.32 501.819C995.376 490.542 951.779 488.54 908.604 490.875C823.735 495.411 739.998 516.736 655.037 525.267C594.489 531.355 536.787 528.303 480.425 510.328C434.077 495.549 389.597 469.091 342.349 497.002C298.941 522.647 264.618 562.211 224.531 595.081" stroke="#3CC0A3" stroke-opacity="0.15" stroke-width="0.864782" stroke-miterlimit="10"/>
<path d="M1856.89 416.98C1801.05 445.579 1738.35 461.534 1683.05 494.076C1625.98 527.716 1567.27 560.456 1504.14 582.612C1421.21 611.794 1329.08 622.717 1246.61 595.446C1172.09 571.124 1109.27 517.788 1032.56 497.172C990.776 485.943 947.139 484.753 904.099 487.551C819.554 493.008 736.258 513.758 651.682 522.194C591.558 528.2 532.809 526.164 475.833 509.504C429.264 495.883 385.195 469.762 338.523 499.13C295.768 526.034 262.617 566.618 223.031 599.48" stroke="#3CC0A3" stroke-opacity="0.15" stroke-width="0.864782" stroke-miterlimit="10"/>
<path d="M1858.25 411.99C1800.95 442.798 1737.41 460.025 1681.5 493.786C1623.77 528.68 1564.31 562.129 1500.22 584.57C1416.94 613.77 1324.03 623.814 1241.28 594.753C1166.74 568.745 1104.56 513.135 1027.79 492.519C986.168 481.337 942.496 480.957 899.59 484.217C815.369 490.595 732.514 510.766 648.323 519.115C588.623 525.039 528.823 524.014 471.238 508.673C424.444 496.207 380.747 470.367 334.693 501.249C292.548 529.358 260.615 571.015 221.527 603.864" stroke="#3CC0A3" stroke-opacity="0.15" stroke-width="0.864782" stroke-miterlimit="10"/>
<path d="M1859.62 407C1800.85 440.013 1736.48 458.519 1679.97 493.496C1621.57 529.643 1561.36 563.798 1496.3 586.529C1412.67 615.745 1319 624.916 1235.95 594.061C1161.4 566.362 1099.84 508.487 1023.03 487.866C981.568 476.736 937.857 477.164 895.085 480.883C811.193 488.181 728.775 507.777 644.969 516.032C585.692 521.873 524.842 521.847 466.642 507.834C419.624 496.514 376.372 471.076 330.863 503.363C289.396 532.783 258.61 575.412 220.023 608.243" stroke="#3CC0A3" stroke-opacity="0.15" stroke-width="0.864782" stroke-miterlimit="10"/>
</g>
<defs>
<clipPath id="clip0_336_202">
<rect width="1920" height="2800" fill="white"/>
</clipPath>
</defs>
</svg>
