<svg width="1920" height="544" viewBox="0 0 1920 544" fill="none" xmlns="http://www.w3.org/2000/svg">
<path d="M1845.07 460.624C1861.05 434.096 1859.35 399.76 1847.68 371.075C1836.01 342.391 1815.55 318.259 1794.73 295.333C1767.21 265.023 1737.57 235.214 1700.48 217.892C1648.78 193.752 1588.74 196.623 1532.29 204.942C1432.06 219.717 1334.68 249.989 1239.98 285.994C1138.46 324.589 1034.95 370.717 926.522 364.546C829.221 359.012 762.845 311.423 692.59 250.092C627.066 192.891 572.865 119.1 491.554 81.6761C384.862 32.5695 253.536 57.8254 158.6 126.978C63.6644 196.13 1.85844 303.246 -33.4766 415.257" stroke="#3CC0A3" stroke-opacity="0.15" stroke-width="0.864782" stroke-miterlimit="10"/>
<path d="M1854.3 448.879C1868.82 425.976 1864.57 395.31 1851.01 368.403C1837.48 341.573 1816.26 318.068 1794.45 296.496C1765.75 268.097 1735.27 239.442 1697.19 223.227C1643.08 200.177 1580.39 202.326 1521.8 209.568C1421.96 221.904 1325.15 250.369 1231.23 284.143C1131.33 320.07 1029.85 364.464 923.283 357.623C826.077 351.384 758.417 305.377 687.448 247.26C621.05 193.137 565.869 124.296 485.271 90.0986C379.871 45.3764 251.3 71.8819 156.68 139.819C61.6661 207.904 -1.70951 310.246 -39.1719 419.382" stroke="#3CC0A3" stroke-opacity="0.15" stroke-width="0.864782" stroke-miterlimit="10"/>
<path d="M1863.52 437.136C1876.58 417.856 1869.85 390.939 1854.34 365.735C1839 340.825 1816.98 317.883 1794.17 297.668C1764.3 271.189 1732.93 243.702 1693.91 228.568C1637.35 206.633 1572.08 208.064 1511.31 214.195C1411.91 224.222 1315.64 250.75 1222.48 282.293C1124.21 315.569 1024.73 358.194 920.044 350.697C822.934 343.74 754.11 299.164 682.303 244.428C615.157 193.242 558.907 129.503 478.988 98.522C374.924 58.1842 249.064 85.9394 154.76 152.666C59.6638 219.682 -5.28137 317.247 -44.8711 423.511" stroke="#3CC0A3" stroke-opacity="0.15" stroke-width="0.864782" stroke-miterlimit="10"/>
<path d="M1872.75 425.393C1884.34 409.736 1875.2 386.642 1857.67 363.063C1840.6 340.121 1817.71 317.701 1793.89 298.836C1762.88 274.276 1730.57 247.983 1690.63 233.904C1631.59 213.102 1563.8 213.828 1500.83 218.818C1401.91 226.653 1306.16 251.13 1213.74 280.438C1117.13 311.077 1019.63 351.908 916.813 343.77C819.793 336.091 749.741 293.038 677.169 241.592C609.201 193.411 551.991 134.7 472.712 106.941C370.024 70.979 246.836 99.9968 152.847 165.504C57.6732 231.448 -8.8415 324.239 -50.5586 427.628" stroke="#3CC0A3" stroke-opacity="0.15" stroke-width="0.864782" stroke-miterlimit="10"/>
<path d="M1881.97 413.649C1892.11 401.615 1880.64 382.391 1860.99 360.391C1842.28 339.442 1818.47 317.52 1793.61 300.003C1761.48 277.363 1728.19 252.285 1687.34 239.244C1625.8 219.6 1555.54 219.63 1490.34 223.444C1391.94 229.199 1296.7 251.524 1205 278.583C1110.06 306.597 1014.52 345.599 913.573 336.839C816.64 328.429 745.352 286.902 672.027 238.755C603.229 193.579 545.103 139.902 466.429 115.355C365.163 83.7602 244.6 114.045 150.926 178.337C55.6749 243.222 -12.4094 331.235 -56.2539 431.753" stroke="#3CC0A3" stroke-opacity="0.15" stroke-width="0.864782" stroke-miterlimit="10"/>
<path d="M1891.19 401.905C1899.87 393.499 1886.17 378.167 1864.32 357.723C1844.07 338.772 1819.24 317.338 1793.33 301.171C1760.11 280.442 1725.8 256.609 1684.06 244.58C1620 226.121 1547.3 225.464 1479.85 228.067C1381.99 231.846 1287.26 251.917 1196.25 276.728C1103.02 302.144 1009.4 339.273 910.334 329.912C813.483 320.763 740.958 280.775 666.885 235.923C597.248 193.756 538.253 145.099 460.15 123.778C360.35 96.5332 242.506 128.31 149.01 191.184C53.8148 255.199 -15.9774 338.231 -61.9492 435.874" stroke="#3CC0A3" stroke-opacity="0.15" stroke-width="0.864782" stroke-miterlimit="10"/>
<path d="M1900.41 390.161C1907.63 385.379 1891.8 373.942 1867.65 355.051C1845.95 338.075 1820.03 317.148 1793.05 302.338C1758.75 283.516 1723.4 260.954 1680.77 249.92C1614.17 232.676 1539.08 231.335 1469.35 232.697C1372.06 234.596 1277.85 252.332 1187.5 274.882C1096 297.716 1004.29 332.939 907.095 322.994C810.326 313.092 736.551 274.657 661.743 233.095C591.259 193.938 531.446 150.292 453.867 132.205C355.58 109.289 240.291 142.406 147.09 204.03C51.8381 267.008 -19.5453 345.227 -67.6445 439.999" stroke="#3CC0A3" stroke-opacity="0.15" stroke-width="0.864782" stroke-miterlimit="10"/>
<path d="M1909.64 378.418C1915.39 377.259 1897.52 369.692 1870.98 352.383C1847.92 337.34 1820.84 316.957 1792.77 303.51C1757.42 286.582 1720.98 265.326 1677.49 255.26C1608.33 239.257 1530.88 237.246 1458.86 237.324C1362.15 237.428 1268.47 252.756 1178.75 273.031C1089 293.31 999.173 326.583 903.852 316.067C807.165 305.4 732.136 268.534 656.598 230.263C585.262 194.119 524.675 155.468 447.58 140.628C350.858 122.01 238.069 156.497 145.166 216.876C49.8536 278.821 -23.1211 352.232 -73.3477 444.128" stroke="#3CC0A3" stroke-opacity="0.15" stroke-width="0.864782" stroke-miterlimit="10"/>
<path d="M1918.86 366.674C1923.16 369.139 1903.32 365.39 1874.31 349.711C1849.96 336.549 1821.66 316.746 1792.49 304.673C1756.11 289.622 1718.57 269.706 1674.21 260.591C1602.47 245.855 1522.68 243.187 1448.38 241.942C1352.27 240.334 1259.11 253.189 1170.01 271.167C1082.04 288.921 994.068 320.196 900.629 309.131C804.02 297.69 727.728 262.407 651.472 227.418C579.271 194.293 517.967 160.609 441.317 149.034C346.204 134.675 235.866 170.567 143.265 229.701C47.8799 290.616 -26.6773 359.224 -79.0312 448.245" stroke="#3CC0A3" stroke-opacity="0.15" stroke-width="0.864782" stroke-miterlimit="10"/>
<path d="M1928.08 354.93C1930.92 361.023 1909.17 361.018 1877.64 347.044C1852.04 335.698 1822.49 316.53 1792.21 305.845C1754.81 292.653 1716.13 274.116 1670.92 265.936C1596.61 252.493 1514.49 249.18 1437.88 246.573C1342.37 243.322 1249.78 253.651 1161.26 269.321C1075.09 284.576 988.944 313.806 897.385 302.209C800.854 289.981 723.296 256.302 646.326 224.59C573.256 194.483 511.277 165.742 435.029 157.462C341.572 147.313 233.639 184.655 141.336 242.552C45.8944 302.416 -30.2496 366.22 -84.7266 452.37" stroke="#3CC0A3" stroke-opacity="0.15" stroke-width="0.864782" stroke-miterlimit="10"/>
<path d="M1937.31 343.186C1938.69 352.902 1915.06 356.569 1880.97 344.371C1854.17 334.776 1823.34 316.296 1791.93 307.012C1753.53 295.662 1713.71 278.535 1667.64 271.271C1590.74 259.147 1506.31 255.207 1427.4 251.195C1332.49 246.369 1240.47 254.126 1152.52 267.466C1068.17 280.26 983.833 307.393 894.15 295.281C797.693 282.258 718.863 250.196 641.184 221.753C567.237 194.677 504.626 170.831 428.746 165.88C336.988 159.891 231.416 198.733 139.416 255.389C43.9052 314.207 -33.8171 373.211 -90.4258 456.486" stroke="#3CC0A3" stroke-opacity="0.15" stroke-width="0.864782" stroke-miterlimit="10"/>
<path d="M1946.53 331.442C1946.45 344.782 1920.96 352.041 1884.3 341.703C1856.3 333.803 1824.19 316.049 1791.65 308.18C1752.25 298.654 1711.27 282.971 1664.35 276.611C1584.87 265.831 1498.13 261.283 1416.91 255.826C1322.61 249.487 1231.19 254.637 1143.77 265.619C1061.27 275.984 978.716 300.967 890.911 288.363C794.526 274.527 714.417 244.108 636.042 218.93C561.212 194.889 498.014 175.894 422.467 174.311C332.447 172.426 229.192 212.82 137.499 268.24C41.9193 326.012 -37.3812 380.216 -96.1172 460.619" stroke="#3CC0A3" stroke-opacity="0.15" stroke-width="0.864782" stroke-miterlimit="10"/>
<path d="M1955.76 319.698C1954.21 336.661 1926.87 347.44 1887.63 339.03C1858.43 332.773 1825.04 315.785 1791.36 309.347C1750.98 301.624 1708.83 287.424 1661.07 281.946C1578.99 272.537 1489.95 267.396 1406.42 260.447C1312.72 252.651 1221.93 255.168 1135.02 263.764C1054.39 271.737 973.605 294.516 887.676 281.431C791.365 266.765 709.972 238.015 630.904 216.088C555.184 195.091 491.432 180.892 416.188 182.721C327.937 184.87 226.965 226.885 135.583 281.072C39.9296 337.798 -40.9491 387.207 -101.812 464.739" stroke="#3CC0A3" stroke-opacity="0.15" stroke-width="0.864782" stroke-miterlimit="10"/>
<path d="M1964.98 307.955C1961.97 328.541 1932.77 342.771 1890.96 336.363C1860.55 331.702 1825.89 315.509 1791.09 310.519C1749.71 304.582 1706.4 291.891 1657.79 287.291C1573.11 279.274 1481.77 273.562 1395.92 265.079C1302.84 255.882 1212.69 255.739 1126.28 261.914C1047.53 267.543 968.493 288.052 884.436 274.509C788.199 258.999 705.513 231.94 625.763 213.261C549.147 195.317 484.868 185.852 409.904 191.149C323.448 197.258 224.733 240.96 133.663 293.919C37.9312 349.59 -44.5171 394.204 -107.508 468.86" stroke="#3CC0A3" stroke-opacity="0.15" stroke-width="0.864782" stroke-miterlimit="10"/>
<path d="M1974.2 296.211C1969.74 320.425 1938.66 338.04 1894.29 333.69C1862.66 330.59 1826.75 315.214 1790.81 311.682C1748.44 307.518 1703.96 296.362 1654.51 292.622C1567.24 286.019 1473.59 279.758 1385.44 269.697C1292.95 259.142 1203.48 256.336 1117.54 260.054C1040.69 263.379 963.389 281.561 881.204 267.574C785.045 251.208 701.062 225.865 620.628 210.416C543.113 195.533 478.324 190.733 403.633 199.558C318.983 209.56 222.508 255.017 131.754 306.752C35.9489 361.363 -48.0776 401.195 -113.191 472.977" stroke="#3CC0A3" stroke-opacity="0.15" stroke-width="0.864782" stroke-miterlimit="10"/>
<path d="M1983.43 284.468C1977.5 312.305 1944.51 333.259 1897.62 331.023C1864.75 329.454 1827.6 314.912 1790.53 312.854C1747.17 310.446 1701.53 300.855 1651.22 297.963C1561.36 292.8 1465.39 286.007 1374.95 274.324C1283.05 262.455 1194.28 256.985 1108.78 258.204C1033.86 259.272 958.274 275.063 877.961 260.652C781.876 243.408 696.595 219.808 615.483 207.588C537.069 195.776 471.778 195.572 397.346 207.986C314.508 221.797 220.269 269.087 129.83 319.599C33.9427 373.151 -51.6491 408.196 -118.895 477.106" stroke="#3CC0A3" stroke-opacity="0.15" stroke-width="0.864782" stroke-miterlimit="10"/>
<path d="M1992.65 272.724C1985.26 304.185 1950.35 328.438 1900.95 328.351C1866.81 328.291 1828.45 314.597 1790.25 314.022C1745.89 313.356 1699.09 305.353 1647.94 303.303C1555.48 299.597 1457.19 292.303 1364.46 278.955C1273.14 265.81 1185.09 257.686 1100.04 256.358C1027.04 255.217 953.162 268.552 874.722 253.734C778.718 235.595 692.132 213.768 610.341 204.765C531.027 196.031 465.23 200.355 391.062 216.414C310.032 233.965 218.032 283.158 127.909 332.451C31.944 384.934 -55.2174 415.197 -124.586 481.232" stroke="#3CC0A3" stroke-opacity="0.15" stroke-width="0.864782" stroke-miterlimit="10"/>
<path d="M2001.87 260.98C1993.02 296.065 1956.16 323.582 1904.28 325.683C1868.85 327.119 1829.29 314.268 1789.96 315.189C1744.6 316.253 1696.66 309.858 1644.65 308.639C1549.6 306.407 1448.97 298.637 1353.97 283.577C1263.23 269.192 1175.91 258.429 1091.29 254.499C1020.22 251.2 948.063 262.01 871.486 246.798C775.565 227.747 687.673 207.723 605.203 201.92C524.985 196.278 458.674 205.042 384.787 224.824C305.551 246.037 215.8 297.202 125.997 345.279C29.9452 396.704 -58.7815 422.185 -130.277 485.348" stroke="#3CC0A3" stroke-opacity="0.15" stroke-width="0.864782" stroke-miterlimit="10"/>
<path d="M2011.09 249.236C2000.78 287.948 1961.94 318.699 1907.61 323.01C1870.88 325.925 1830.13 313.926 1789.68 316.356C1743.32 319.14 1694.22 314.375 1641.36 313.978C1543.73 313.243 1440.75 305.023 1343.47 288.203C1253.3 272.611 1166.72 259.233 1082.54 252.647C1013.41 247.238 942.956 255.454 868.248 239.874C772.408 219.885 683.21 201.694 600.057 199.091C518.941 196.549 452.084 209.685 378.5 233.25C301.029 258.061 213.552 311.262 124.073 358.125C27.9347 408.477 -62.3529 429.188 -135.98 489.477" stroke="#3CC0A3" stroke-opacity="0.15" stroke-width="0.864782" stroke-miterlimit="10"/>
<path d="M2020.32 237.492C2008.55 279.828 1967.7 313.801 1910.94 320.343C1872.89 324.732 1830.97 313.585 1789.41 317.528C1742.03 322.025 1691.8 318.903 1638.09 319.318C1537.88 320.096 1432.52 311.453 1332.99 292.83C1243.38 276.062 1157.56 260.102 1073.8 250.797C1006.61 243.334 937.869 248.886 865.02 232.948C769.271 212.003 678.763 195.676 594.927 196.255C512.911 196.822 445.475 214.256 372.228 241.669C296.491 270.017 211.318 325.311 122.164 370.967C25.9394 420.242 -65.9135 436.185 -141.664 493.602" stroke="#3CC0A3" stroke-opacity="0.15" stroke-width="0.864782" stroke-miterlimit="10"/>
<path d="M2029.54 225.748C2016.31 271.707 1973.43 308.884 1914.27 317.67C1874.87 323.524 1831.8 313.225 1789.13 318.695C1740.72 324.895 1689.37 323.429 1634.8 324.657C1532.01 326.962 1424.26 317.925 1322.5 297.456C1233.42 279.537 1148.37 261.031 1065.05 248.946C999.784 239.476 932.767 242.295 861.777 226.025C766.124 204.098 674.301 189.669 589.782 193.427C506.871 197.111 438.812 218.773 365.946 250.091C291.899 281.92 209.074 339.359 120.24 383.808C23.9245 432.007 -69.4849 443.18 -147.367 497.722" stroke="#3CC0A3" stroke-opacity="0.15" stroke-width="0.864782" stroke-miterlimit="10"/>
<path d="M2038.77 214.005C2024.07 263.587 1979.14 303.959 1917.6 315.002C1876.84 322.318 1832.62 312.871 1788.84 319.862C1739.41 327.762 1686.95 327.966 1631.51 329.993C1526.15 333.842 1415.99 324.442 1312.01 302.083C1223.46 283.04 1139.16 262.03 1056.31 247.095C992.955 235.672 927.681 235.693 858.542 219.102C762.992 196.173 669.855 183.668 584.644 190.595C500.842 197.409 432.105 223.236 359.666 258.515C287.263 293.781 206.829 353.403 118.323 396.655C21.9171 443.769 -73.049 450.181 -153.059 501.852" stroke="#3CC0A3" stroke-opacity="0.15" stroke-width="0.864782" stroke-miterlimit="10"/>
<path d="M2047.99 202.261C2031.83 255.467 1984.82 299.026 1920.93 312.331C1878.78 321.108 1833.44 312.504 1788.56 321.03C1738.1 330.621 1684.53 332.51 1628.23 335.33C1520.31 340.739 1407.7 331.006 1301.52 306.705C1213.48 286.56 1129.93 263.099 1047.56 245.237C986.105 231.91 922.595 229.065 855.302 212.167C759.861 188.204 665.405 177.667 579.501 187.754C494.813 197.699 425.337 227.643 353.387 266.93C282.574 305.594 204.584 367.435 116.406 409.489C19.9054 455.513 -76.6173 457.173 -158.75 505.968" stroke="#3CC0A3" stroke-opacity="0.15" stroke-width="0.864782" stroke-miterlimit="10"/>
<path d="M2057.21 190.518C2039.6 247.352 1990.5 294.089 1924.26 309.663C1880.72 319.898 1834.24 312.137 1788.28 322.203C1736.77 333.484 1682.11 337.064 1624.94 340.675C1514.45 347.653 1399.39 337.618 1291.02 311.337C1203.49 290.106 1120.67 264.254 1038.81 243.391C979.226 228.205 917.515 222.433 852.06 205.25C756.739 180.223 660.96 171.683 574.356 184.927C488.786 198.016 418.505 232.023 347.1 275.358C277.822 317.399 202.331 381.475 114.482 422.34C17.8862 467.274 -80.1887 464.178 -164.453 510.103" stroke="#3CC0A3" stroke-opacity="0.15" stroke-width="0.864782" stroke-miterlimit="10"/>
<path d="M2066.44 178.774C2047.36 239.23 1996.16 289.15 1927.59 306.991C1882.65 318.687 1835.05 311.76 1788 323.365C1735.45 336.333 1679.7 341.612 1621.67 346.005C1508.62 354.566 1391.07 344.263 1280.54 315.954C1193.49 293.66 1111.37 265.464 1030.07 241.531C972.327 224.534 912.45 215.769 848.828 198.313C753.637 172.193 656.531 165.689 569.222 182.086C482.774 198.318 411.629 236.364 340.825 283.767C273.021 329.163 200.086 395.492 112.57 435.168C15.8784 479.004 -83.7532 471.161 -170.141 514.21" stroke="#3CC0A3" stroke-opacity="0.15" stroke-width="0.864782" stroke-miterlimit="10"/>
<path d="M2075.66 167.03C2055.12 231.111 2001.79 284.208 1930.92 304.323C1884.56 317.476 1835.85 311.388 1787.72 324.537C1734.1 339.187 1677.28 346.17 1618.38 351.35C1502.78 361.507 1382.72 350.965 1270.05 320.585C1183.47 297.241 1102.01 266.766 1021.32 239.685C965.395 220.911 907.385 209.106 845.592 191.396C750.544 164.151 652.102 159.723 564.084 179.263C476.767 198.647 404.679 240.697 334.549 292.199C268.164 340.947 197.84 409.528 110.657 448.024C13.8666 490.757 -87.3129 478.17 -175.832 518.348" stroke="#3CC0A3" stroke-opacity="0.15" stroke-width="0.864782" stroke-miterlimit="10"/>
<path d="M2084.88 155.286C2062.89 222.99 2007.42 279.266 1934.25 301.65C1886.47 316.265 1836.64 311.007 1787.44 325.704C1732.76 342.036 1674.88 350.731 1615.09 356.685C1496.95 368.451 1374.35 357.701 1259.55 325.212C1173.43 300.833 1092.59 268.14 1012.57 237.834C958.408 217.317 902.326 202.421 842.35 184.473C747.457 156.069 647.674 153.751 558.935 176.43C470.753 198.971 397.661 245.012 328.258 300.621C263.235 352.72 195.579 423.555 108.729 460.866C11.8388 502.492 -90.8887 485.17 -181.535 522.473" stroke="#3CC0A3" stroke-opacity="0.15" stroke-width="0.864782" stroke-miterlimit="10"/>
<path d="M2094.1 143.543C2070.65 214.87 2013.04 274.328 1937.57 298.983C1888.36 315.064 1837.43 310.628 1787.16 326.872C1731.41 344.886 1672.47 355.298 1611.81 362.022C1491.13 375.404 1365.95 364.478 1249.07 329.834C1163.38 304.436 1083.1 269.576 1003.83 235.975C951.385 213.746 897.28 195.715 839.114 177.538C744.399 147.936 643.258 147.767 553.797 173.59C464.759 199.287 390.595 249.31 321.979 309.036C258.262 364.495 193.325 437.565 106.812 473.7C9.8227 514.21 -94.457 492.158 -187.227 526.585" stroke="#3CC0A3" stroke-opacity="0.15" stroke-width="0.864782" stroke-miterlimit="10"/>
<path d="M2103.33 131.799C2078.41 206.754 2018.65 269.386 1940.91 296.311C1890.25 313.853 1838.22 310.247 1786.88 328.04C1730.06 347.735 1670.07 359.864 1608.53 367.361C1485.31 382.369 1357.53 371.305 1238.58 334.461C1153.31 308.054 1073.54 271.085 995.081 234.124C944.31 210.204 892.237 189 835.879 170.615C741.354 139.776 638.851 141.804 548.659 170.757C458.769 199.615 383.477 253.621 315.704 317.455C253.245 376.286 191.011 451.414 104.9 486.541C7.73313 525.755 -98.0168 499.154 -192.918 530.71" stroke="#3CC0A3" stroke-opacity="0.15" stroke-width="0.864782" stroke-miterlimit="10"/>
<path d="M2112.56 120.056C2086.18 198.634 2024.25 264.448 1944.24 293.643C1892.14 312.656 1839 309.867 1786.6 329.212C1728.7 350.585 1667.67 364.439 1605.24 372.702C1479.5 389.345 1349.09 378.172 1228.09 339.088C1143.23 311.678 1063.89 272.651 986.337 232.274C937.178 206.681 887.211 182.272 832.643 163.688C738.334 131.57 634.504 136.002 543.521 167.926C452.84 200.113 376.302 257.941 309.424 325.878C248.176 388.095 188.778 465.471 102.983 499.384C5.73864 537.529 -101.585 506.151 -198.609 534.835" stroke="#3CC0A3" stroke-opacity="0.15" stroke-width="0.864782" stroke-miterlimit="10"/>
<path d="M2121.78 108.312C2093.94 190.513 2029.84 259.514 1947.57 290.971C1894.01 311.449 1839.74 309.395 1786.32 330.375C1727.3 353.33 1665.29 369.121 1601.96 378.037C1473.73 396.552 1340.62 385.072 1217.6 343.71C1133.13 315.31 1054.14 274.259 977.593 230.419C929.996 203.156 882.199 175.527 829.408 156.761C735.337 123.32 630.08 129.953 538.383 165.089C446.837 200.359 369.085 262.269 303.145 334.296C243.064 399.925 186.547 479.528 101.063 512.225C3.7403 549.299 -105.153 513.151 -204.305 538.96" stroke="#3CC0A3" stroke-opacity="0.15" stroke-width="0.864782" stroke-miterlimit="10"/>
<path d="M2131 96.5674C2101.7 182.393 2035.42 254.58 1950.9 288.303C1895.88 310.251 1840.55 309.105 1786.04 331.546C1725.97 356.279 1662.88 373.592 1598.67 383.377C1467.89 403.314 1332.13 392.016 1207.11 348.34C1123.01 318.959 1044.3 275.919 968.845 228.568C922.744 199.641 877.195 168.772 826.169 149.838C732.366 115.022 625.656 123.907 533.241 162.261C440.826 200.614 361.824 266.618 296.866 342.723C237.914 411.785 184.315 493.589 99.1467 525.071C1.74191 561.076 -108.717 520.151 -210 543.085" stroke="#3CC0A3" stroke-opacity="0.15" stroke-width="0.864782" stroke-miterlimit="10"/>
<path d="M1964.83 414.61C1952.7 305.444 1893.31 200.395 1800.19 123.39C1773.69 101.481 1743.29 81.2321 1707.17 73.7345C1602.78 52.076 1503.42 127.654 1423.41 172.592C1326.85 226.831 1231.7 283.141 1130.06 330.644C1073 357.314 1005.12 381.623 944.304 361.62C882.717 341.363 853.232 284.369 822.761 235.155C787.254 177.807 741.393 123.563 679.162 85.422C616.935 47.2851 536.615 26.7422 461.242 40.3236C402.22 50.9561 350.936 81.0333 304.735 113.605C183.336 199.188 84.5299 307.156 17.3711 427.603" stroke="#3CC0A3" stroke-opacity="0.15" stroke-width="0.864782" stroke-miterlimit="10"/>
<path d="M1967.51 409.615C1955.78 303.969 1895.24 204.562 1800.39 127.575C1773.91 106.081 1743.85 86.0569 1708.23 78.4468C1605.09 56.356 1507.05 128.237 1427.25 171.618C1342.16 217.871 1258.12 266.52 1168.82 309.69C1157.84 315.017 1146.8 320.257 1135.68 325.394C1079.05 351.567 1011.98 375.512 951.779 356.595C890.78 337.449 860.877 282.778 830.05 235.617C794.038 180.694 748.048 128.76 686.27 92.3136C624.333 55.9193 544.936 36.44 470.384 49.775C419.719 58.8293 374.704 81.8887 333.662 108.252C327.306 112.329 321.084 116.519 314.887 120.683C191.941 203.3 93.5114 302.897 28.5195 419.461" stroke="#3CC0A3" stroke-opacity="0.15" stroke-width="0.864782" stroke-miterlimit="10"/>
<path d="M1970.19 404.621C1958.85 302.499 1897.19 208.727 1800.61 131.765C1774.14 110.678 1744.42 90.8913 1709.29 83.1644C1607.41 60.6412 1510.69 128.829 1431.08 170.654C1346.84 214.914 1263.55 262.304 1174.18 304.761C1163.28 309.98 1152.32 315.116 1141.29 320.158C1085.1 345.833 1018.84 369.416 959.252 351.584C898.837 333.553 868.516 281.2 837.333 236.097C800.815 183.605 754.701 133.97 693.367 99.2235C631.719 64.5673 553.251 46.1561 479.514 59.2489C429.303 68.1518 384.582 90.4719 343.736 115.836C337.405 119.758 331.23 123.818 325.028 127.783C200.467 207.442 102.486 298.664 39.6562 411.341" stroke="#3CC0A3" stroke-opacity="0.15" stroke-width="0.864782" stroke-miterlimit="10"/>
<path d="M1974.07 400.631C1963.12 302.028 1900.35 213.886 1802.01 136.955C1775.57 116.269 1746.18 96.7205 1711.55 88.8813C1610.93 65.9256 1515.53 130.425 1436.11 170.685C1352.73 212.956 1270.04 258.893 1180.74 300.831C1169.91 305.92 1159.05 310.975 1148.1 315.917C1092.34 341.095 1026.9 364.314 967.925 347.572C908.098 330.653 877.462 280.569 845.815 237.576C808.915 187.445 762.662 140.046 701.669 107.132C640.412 74.0805 562.764 56.8714 489.853 69.722C440.097 78.4736 395.675 100.059 355.014 124.42C348.704 128.186 342.58 132.116 336.379 135.882C210.141 212.584 112.666 295.426 52.0078 404.22" stroke="#3CC0A3" stroke-opacity="0.15" stroke-width="0.864782" stroke-miterlimit="10"/>
<path d="M1975.56 394.638C1965 299.559 1901.14 217.037 1801.03 140.141C1774.61 119.853 1745.55 100.547 1711.42 92.5952C1612.05 69.2028 1518 130.014 1438.75 168.713C1356.25 208.999 1274.23 253.609 1184.91 294.898C1174.15 299.871 1163.38 304.83 1152.52 309.673C1097.19 334.358 1032.56 357.21 974.199 341.553C914.954 325.745 883.931 277.961 851.897 237.044C814.528 189.317 768.146 144.201 707.57 113.026C646.634 81.6687 569.884 65.5707 497.788 78.1749C448.485 86.7752 404.357 107.625 363.893 130.983C357.609 134.593 351.526 138.39 345.325 141.966C217.343 215.71 120.44 290.176 61.9492 395.083" stroke="#3CC0A3" stroke-opacity="0.15" stroke-width="0.864782" stroke-miterlimit="10"/>
<path d="M1978.24 389.644C1968.08 298.085 1903.13 221.18 1801.24 144.327C1774.86 124.437 1746.12 105.377 1712.49 97.3089C1614.37 73.4842 1521.69 130.612 1442.59 167.745C1360.98 206.06 1279.63 249.333 1190.27 289.965C1179.59 294.821 1168.91 299.685 1158.14 304.429C1103.25 328.617 1039.43 351.105 981.681 336.538C923.02 321.841 891.61 276.358 859.189 237.52C821.35 192.193 774.829 149.365 714.677 119.932C654.055 90.2696 578.202 75.2829 506.926 87.645C458.078 96.0896 414.244 116.204 373.971 138.563C367.707 142.018 361.666 145.685 355.47 149.062C225.677 219.84 129.414 285.935 73.0898 386.955" stroke="#3CC0A3" stroke-opacity="0.15" stroke-width="0.864782" stroke-miterlimit="10"/>
<path d="M1980.93 384.65C1971.15 296.611 1905.14 225.314 1801.45 148.517C1775.11 129.017 1746.68 110.208 1713.56 102.027C1616.69 77.7695 1525.38 131.217 1446.43 166.777C1365.73 203.124 1285.01 245.057 1195.63 285.036C1185.03 289.78 1174.43 294.54 1163.75 299.193C1109.29 322.883 1046.29 345.009 989.152 331.527C931.079 317.945 899.277 274.758 866.469 238.001C828.156 195.073 781.5 154.536 721.776 126.842C661.464 98.8746 586.519 84.9948 516.059 97.1191C467.669 105.412 424.13 124.792 384.047 146.148C377.81 149.447 371.804 152.975 365.618 156.162C233.953 223.965 138.397 281.702 84.2344 378.835" stroke="#3CC0A3" stroke-opacity="0.15" stroke-width="0.864782" stroke-miterlimit="10"/>
<path d="M1983.61 379.655C1974.22 295.14 1907.17 229.434 1801.65 152.702C1775.37 133.59 1747.23 115.093 1714.62 106.739C1618.95 82.2179 1529.09 131.822 1450.27 165.803C1370.5 200.196 1290.42 240.78 1201 280.102C1190.48 284.728 1179.97 289.394 1169.38 293.947C1115.35 317.145 1053.16 338.903 996.636 326.506C939.146 314.036 906.952 273.145 873.767 238.467C834.98 197.939 788.185 159.689 728.889 133.737C668.881 107.47 594.85 94.6967 525.209 106.575C477.274 114.716 434.08 133.43 394.137 153.709C387.925 156.862 381.95 160.247 375.775 163.244C242.169 228.055 147.382 277.447 95.3867 370.696" stroke="#3CC0A3" stroke-opacity="0.15" stroke-width="0.864782" stroke-miterlimit="10"/>
<path d="M1986.29 374.66C1977.3 293.665 1909.22 233.545 1801.86 156.886C1775.63 138.155 1747.79 119.926 1715.69 111.446C1621.26 86.5104 1532.81 132.43 1454.1 164.829C1375.27 197.28 1295.82 236.511 1206.36 275.163C1195.92 279.677 1185.49 284.243 1174.99 288.696C1121.39 311.397 1060.02 332.792 1004.1 321.485C947.202 310.126 914.605 271.531 881.044 238.937C841.776 200.804 794.847 164.855 735.984 140.633C676.281 116.064 603.158 104.398 534.338 116.034C486.857 124.025 443.962 142.008 404.209 161.279C398.023 164.28 392.075 167.523 385.92 170.329C250.302 232.122 156.356 273.2 106.527 362.562" stroke="#3CC0A3" stroke-opacity="0.15" stroke-width="0.864782" stroke-miterlimit="10"/>
<path d="M1988.97 369.667C1980.37 292.195 1911.28 237.645 1802.07 161.073C1775.9 142.722 1748.35 124.76 1716.75 116.16C1623.57 90.809 1536.55 133.049 1457.94 163.857C1380.07 194.375 1301.22 232.24 1211.73 270.23C1201.36 274.631 1191.02 279.098 1180.6 283.452C1127.45 305.655 1066.87 326.687 1011.58 316.465C955.263 306.222 922.27 269.918 888.332 239.409C848.579 203.672 801.511 170.019 743.092 147.534C683.682 124.67 611.483 114.106 543.478 125.495C496.451 133.33 453.855 150.591 414.294 168.851C408.128 171.696 402.211 174.797 396.071 177.417C258.384 236.162 165.336 268.95 117.68 354.429" stroke="#3CC0A3" stroke-opacity="0.15" stroke-width="0.864782" stroke-miterlimit="10"/>
<path d="M1991.65 364.678C1983.44 290.726 1913.35 241.74 1802.27 165.268C1776.16 147.293 1748.91 129.6 1717.81 120.883C1625.87 95.1121 1540.3 133.69 1461.77 162.894C1384.87 191.496 1306.62 227.986 1217.08 265.301C1206.8 269.591 1196.54 273.958 1186.21 278.217C1133.49 299.927 1073.73 320.595 1019.05 311.459C963.319 302.327 929.917 268.315 895.608 239.89C855.365 206.548 808.163 175.2 750.182 154.445C691.067 133.284 619.786 123.823 552.601 134.97C506.028 142.654 463.732 159.184 424.356 176.436C418.216 179.126 412.319 182.083 406.2 184.522C266.378 240.188 174.3 264.722 128.805 346.314" stroke="#3CC0A3" stroke-opacity="0.15" stroke-width="0.864782" stroke-miterlimit="10"/>
<path d="M1994.34 359.683C1986.52 289.251 1915.45 245.817 1802.49 169.452C1776.45 151.845 1749.48 134.433 1718.88 125.595C1628.19 99.405 1544.08 134.329 1465.61 161.92C1389.7 188.616 1312.04 223.726 1222.45 260.367C1212.24 264.544 1202.08 268.812 1191.83 272.971C1139.54 294.184 1080.6 314.489 1026.54 306.438C971.387 298.417 937.578 266.701 902.902 240.36C862.164 209.41 814.823 180.37 757.296 161.345C698.47 141.887 628.117 133.525 561.753 144.434C515.634 151.967 473.637 167.766 434.452 184.011C428.333 186.545 422.462 189.36 416.369 191.612C274.348 244.152 183.297 260.479 139.969 338.184" stroke="#3CC0A3" stroke-opacity="0.15" stroke-width="0.864782" stroke-miterlimit="10"/>
<path d="M1997.02 354.689C1989.59 287.781 1917.56 249.877 1802.69 173.638C1776.72 156.399 1750.04 139.263 1719.94 130.308C1630.5 103.695 1547.85 134.982 1469.44 160.952C1394.54 185.762 1317.44 219.476 1227.81 255.438C1217.68 259.502 1207.6 263.671 1197.44 267.731C1145.58 288.447 1087.47 308.293 1034 301.427C979.453 294.422 945.21 265.098 910.179 240.84C868.935 212.285 821.464 185.555 764.387 168.251C705.844 150.505 636.42 143.237 570.876 153.9C525.211 161.281 483.508 176.349 444.514 191.587C438.421 193.969 432.565 196.628 426.498 198.704C282.228 248.07 192.255 256.234 151.094 330.056" stroke="#3CC0A3" stroke-opacity="0.15" stroke-width="0.864782" stroke-miterlimit="10"/>
<path d="M1999.7 349.694C1992.66 286.305 1919.68 253.923 1802.9 177.823C1777.01 160.946 1750.6 144.092 1721.01 135.02C1632.81 107.983 1551.65 135.647 1473.28 159.978C1399.4 182.916 1322.86 215.22 1233.18 250.499C1223.13 254.451 1213.13 258.52 1203.06 262.48C1151.64 282.703 1094.33 302.178 1041.48 296.402C987.52 290.504 952.854 263.479 917.472 241.302C875.723 215.142 828.118 190.721 771.499 175.142C713.235 159.109 644.75 152.934 580.022 163.355C534.81 170.58 493.402 184.923 454.604 199.152C448.531 201.379 442.691 203.887 436.655 205.79C290.078 251.926 201.24 251.986 162.246 321.921" stroke="#3CC0A3" stroke-opacity="0.15" stroke-width="0.864782" stroke-miterlimit="10"/>
<path d="M2002.39 344.699C1995.74 284.835 1921.83 257.953 1803.11 182.012C1777.29 165.499 1751.16 148.926 1722.07 139.737C1635.12 112.272 1555.47 136.33 1477.12 159.009C1404.27 180.092 1328.28 210.978 1238.54 245.569C1228.57 249.413 1218.66 253.378 1208.68 257.244C1157.69 276.97 1101.2 296.077 1048.95 291.39C995.576 286.603 960.488 261.875 924.754 241.782C882.489 218.017 834.755 195.914 778.596 182.051C720.606 167.735 653.065 162.65 589.151 172.828C544.394 179.902 503.28 193.514 464.673 206.736C458.626 208.807 452.801 211.164 446.796 212.889C297.867 255.731 210.215 247.749 173.383 313.801" stroke="#3CC0A3" stroke-opacity="0.15" stroke-width="0.864782" stroke-miterlimit="10"/>
<path d="M2005.07 339.706C1998.81 283.361 1923.99 261.971 1803.32 186.198C1777.59 170.04 1751.73 153.752 1723.14 144.451C1637.44 116.557 1559.3 137.031 1480.96 158.041C1409.16 177.291 1333.7 206.741 1243.91 240.641C1234.02 244.372 1224.19 248.238 1214.3 252.004C1163.74 271.232 1108.06 289.972 1056.44 286.379C1003.64 282.699 968.124 260.276 932.045 242.262C889.259 220.898 841.401 201.112 785.706 188.961C727.989 176.37 661.388 172.366 598.299 182.298C553.996 189.221 513.176 202.102 474.765 214.312C468.739 216.228 462.924 218.424 456.955 219.981C305.632 259.463 219.203 243.507 184.543 305.672" stroke="#3CC0A3" stroke-opacity="0.15" stroke-width="0.864782" stroke-miterlimit="10"/>
<path d="M2007.75 334.713C2001.89 281.892 1926.16 265.967 1803.53 190.385C1777.88 174.577 1752.29 158.583 1724.21 149.166C1639.75 120.844 1563.14 137.755 1484.79 157.07C1414.06 174.508 1339.13 202.505 1249.27 235.704C1239.46 239.328 1229.71 243.085 1219.9 246.756C1169.78 265.492 1114.91 283.864 1063.9 281.356C1011.69 278.788 975.734 258.669 939.32 242.726C896.008 223.766 848.026 206.297 792.801 195.851C735.352 184.985 669.699 182.057 607.426 191.752C563.583 198.519 523.051 210.669 484.831 221.876C478.825 223.636 473.026 225.673 467.088 227.065C313.335 263.105 228.165 239.254 195.672 297.536" stroke="#3CC0A3" stroke-opacity="0.15" stroke-width="0.864782" stroke-miterlimit="10"/>
<path d="M2010.43 329.719C2004.96 280.418 1928.35 269.95 1803.74 194.571C1778.19 179.113 1752.85 163.409 1725.27 153.874C1642.07 125.116 1567 138.49 1488.63 156.093C1418.97 171.741 1344.56 198.268 1254.63 230.766C1244.91 234.282 1235.24 237.936 1225.52 241.507C1175.83 259.745 1121.77 277.754 1071.38 276.336C1019.75 274.883 983.358 257.069 946.613 243.198C902.764 226.646 854.664 211.495 799.908 202.752C742.722 193.62 678.019 191.765 616.567 201.217C573.177 207.832 532.939 219.248 494.915 229.452C488.93 231.056 483.142 232.928 477.245 234.156C321.031 266.677 237.156 235.013 206.824 289.407" stroke="#3CC0A3" stroke-opacity="0.15" stroke-width="0.864782" stroke-miterlimit="10"/>
<path d="M2013.12 324.729C2008.03 278.947 1930.55 273.91 1803.95 198.765C1778.49 183.653 1753.42 168.242 1726.34 158.596C1644.38 129.405 1570.86 139.263 1492.46 155.132C1423.89 169.012 1349.98 194.056 1260 225.841C1250.35 229.248 1240.77 232.798 1231.13 236.275C1181.88 254.016 1128.62 271.661 1078.85 271.329C1027.81 270.987 990.963 255.486 953.893 243.681C909.503 229.547 861.294 216.713 807.008 209.665C750.085 202.276 686.336 201.484 625.704 210.69C582.768 217.154 542.82 227.834 504.997 237.036C499.038 238.484 493.254 240.188 487.393 241.256C328.698 270.17 246.133 230.775 217.969 281.287" stroke="#3CC0A3" stroke-opacity="0.15" stroke-width="0.864782" stroke-miterlimit="10"/>
<path d="M2015.8 319.735C2011.11 277.477 1932.77 277.854 1804.16 202.95C1778.79 188.176 1753.99 173.068 1727.41 163.309C1646.7 133.677 1574.74 140.055 1496.3 154.159C1428.82 166.292 1355.42 189.836 1265.36 220.908C1255.8 224.207 1246.3 227.653 1236.75 231.03C1187.93 248.278 1135.49 265.556 1086.33 266.309C1035.87 267.083 998.58 253.895 961.185 244.149C916.253 232.44 867.925 221.919 814.114 216.562C757.454 210.919 694.655 211.187 634.843 220.151C592.361 226.464 552.707 236.405 515.075 244.607C509.136 245.9 503.368 247.435 497.538 248.347C336.351 273.564 255.107 226.533 229.109 273.158" stroke="#3CC0A3" stroke-opacity="0.15" stroke-width="0.864782" stroke-miterlimit="10"/>
<path d="M2018.48 314.74C2014.18 276.002 1935.01 281.77 1804.37 207.135C1779.1 192.698 1754.55 177.892 1728.46 168.021C1649.02 137.952 1578.61 140.875 1500.14 153.186C1433.75 163.598 1360.86 185.619 1270.72 215.973C1261.24 219.164 1251.82 222.507 1242.37 225.784C1193.98 242.535 1142.34 259.454 1093.81 261.292C1043.92 263.177 1006.19 252.32 968.465 244.623C922.986 235.344 874.55 227.142 821.213 223.462C764.817 219.571 702.972 220.894 643.976 229.615C601.948 235.772 562.582 244.978 525.151 252.182C519.234 253.319 513.476 254.681 507.687 255.437C344.003 276.858 264.085 222.286 240.254 265.028" stroke="#3CC0A3" stroke-opacity="0.15" stroke-width="0.864782" stroke-miterlimit="10"/>
<path d="M2021.17 309.746C2017.26 274.532 1937.26 285.67 1804.58 211.321C1779.41 197.221 1755.12 182.718 1729.53 172.734C1651.34 142.22 1582.5 141.727 1503.98 152.213C1438.69 160.93 1366.3 181.412 1276.09 211.035C1266.69 214.123 1257.35 217.357 1247.98 220.535C1200.03 236.789 1149.2 253.349 1101.28 256.268C1051.98 259.273 1013.8 250.742 975.751 245.091C929.73 238.254 881.18 232.361 828.318 230.359C772.18 228.232 711.289 230.597 653.113 239.072C611.539 245.078 572.468 253.544 535.228 259.749C529.336 260.73 523.583 261.915 517.831 262.52C351.654 280.049 273.062 218.036 251.398 256.89" stroke="#3CC0A3" stroke-opacity="0.15" stroke-width="0.864782" stroke-miterlimit="10"/>
<path d="M2023.85 304.752C2020.33 273.058 1939.52 289.545 1804.78 215.511C1779.72 201.739 1755.68 187.544 1730.59 177.452C1653.65 146.493 1586.38 142.619 1507.81 151.249C1443.62 158.297 1371.73 177.223 1281.45 206.111C1272.13 209.09 1262.87 212.221 1253.59 215.299C1206.07 231.06 1156.06 247.257 1108.76 251.261C1060.04 255.382 1021.4 249.186 983.039 245.571C936.471 241.186 887.813 237.606 835.42 237.269C779.545 236.91 719.609 240.309 662.253 248.546C621.133 254.4 582.351 262.123 545.312 267.333C539.441 268.159 533.699 269.166 527.987 269.625C359.334 283.159 282.048 213.807 262.551 248.775" stroke="#3CC0A3" stroke-opacity="0.15" stroke-width="0.864782" stroke-miterlimit="10"/>
<path d="M2026.53 299.758C2023.41 271.588 1941.81 293.394 1805 219.697C1780.04 206.254 1756.25 192.365 1731.66 182.165C1655.98 150.756 1590.27 143.54 1511.65 150.276C1448.55 155.681 1377.18 173.029 1286.82 201.178C1277.58 204.053 1268.41 207.075 1259.21 210.059C1212.12 225.322 1162.92 241.165 1116.23 246.246C1068.1 251.486 1029.01 247.629 990.325 246.047C943.216 244.118 894.445 242.847 842.526 244.175C786.919 245.593 727.933 250.02 671.392 258.015C630.726 263.719 592.233 270.697 555.39 274.913C549.539 275.583 543.812 276.409 538.132 276.721C367.029 286.16 291.022 209.566 273.691 240.651" stroke="#3CC0A3" stroke-opacity="0.15" stroke-width="0.864782" stroke-miterlimit="10"/>
<path d="M2029.22 294.763C2026.48 270.113 1944.1 297.219 1805.2 223.881C1780.35 210.758 1756.82 197.186 1732.73 186.877C1658.31 155.019 1594.15 144.499 1515.48 149.303C1453.48 153.09 1382.63 168.838 1292.18 196.239C1283.03 199.01 1273.93 201.925 1264.83 204.809C1218.18 219.575 1169.78 235.059 1123.71 241.22C1076.16 247.581 1036.64 246.072 997.612 246.513C949.971 247.049 901.081 248.091 849.627 251.066C794.289 254.27 736.246 259.718 680.526 267.466C640.314 273.014 602.114 279.253 565.468 282.47C559.638 282.981 553.921 283.625 548.277 283.794C374.749 289.038 299.995 205.306 284.832 232.503" stroke="#3CC0A3" stroke-opacity="0.15" stroke-width="0.864782" stroke-miterlimit="10"/>
<path d="M2031.9 289.774C2029.55 268.643 1946.41 301.025 1805.41 228.072C1780.67 215.269 1757.39 202.012 1733.79 191.591C1660.63 159.278 1598.01 145.498 1519.32 148.335C1458.4 150.531 1388.07 164.666 1297.54 191.31C1288.47 193.978 1279.46 196.78 1270.44 199.569C1224.22 213.842 1176.65 229.04 1131.18 236.209C1084.23 243.763 1044.25 244.533 1004.89 246.989C956.717 249.998 907.714 253.345 856.724 257.972C801.659 262.966 744.561 269.43 689.655 276.936C649.898 282.333 611.987 287.824 575.537 290.051C569.732 290.405 564.026 290.864 558.418 290.894C382.511 291.841 308.97 201.069 295.969 224.384" stroke="#3CC0A3" stroke-opacity="0.15" stroke-width="0.864782" stroke-miterlimit="10"/>
<path d="M2034.58 284.78C2032.63 267.174 1948.74 304.8 1805.62 232.262C1780.99 219.775 1757.96 206.838 1734.86 196.309C1662.97 163.542 1601.87 146.541 1523.16 147.367C1463.31 147.994 1393.52 160.498 1302.9 186.377C1293.92 188.941 1284.99 191.635 1276.06 194.324C1230.27 208.1 1183.52 222.936 1138.66 231.19C1092.29 239.859 1051.88 242.986 1012.18 247.461C963.489 252.948 914.362 258.608 863.832 264.873C809.045 271.666 752.881 279.138 698.801 286.402C659.502 291.647 621.881 296.39 585.626 297.627C579.842 297.826 574.157 298.094 568.574 297.986C390.341 294.535 317.956 196.828 307.121 216.255" stroke="#3CC0A3" stroke-opacity="0.15" stroke-width="0.864782" stroke-miterlimit="10"/>
<path d="M2037.26 279.785C2035.7 265.698 1951.08 308.544 1805.83 236.447C1781.31 224.275 1758.52 211.654 1735.92 201.021C1665.3 167.792 1605.71 147.616 1527 146.393C1468.22 145.48 1398.98 156.333 1308.27 181.442C1299.37 183.907 1290.52 186.488 1281.68 189.083C1236.33 202.361 1190.38 216.834 1146.14 226.178C1100.36 235.958 1059.52 241.45 1019.47 247.94C970.266 255.909 921.021 263.878 870.939 271.777C816.441 280.378 761.206 288.844 707.941 295.866C669.096 300.96 631.769 304.955 595.71 305.201C589.947 305.24 584.283 305.322 578.726 305.076C398.222 297.137 326.936 192.581 318.273 208.125" stroke="#3CC0A3" stroke-opacity="0.15" stroke-width="0.864782" stroke-miterlimit="10"/>
<path d="M2039.95 274.792C2038.78 264.229 1953.43 312.263 1806.04 240.633C1781.63 228.769 1759.12 216.441 1736.99 205.735C1667.71 171.944 1609.53 148.737 1530.83 145.425C1473.09 142.991 1404.43 152.183 1313.63 176.514C1304.82 178.875 1296.05 181.348 1287.29 183.843C1242.37 196.629 1197.25 210.734 1153.61 221.163C1108.42 232.055 1067.16 239.916 1026.76 248.412C977.051 258.863 927.682 269.15 878.044 278.68C823.835 289.092 769.523 298.552 717.079 305.332C678.688 310.27 641.655 313.465 605.787 312.778C600.05 312.652 594.4 312.549 588.875 312.173C406.168 299.655 335.914 188.344 329.418 200.002" stroke="#3CC0A3" stroke-opacity="0.15" stroke-width="0.864782" stroke-miterlimit="10"/>
<path d="M2042.63 269.797C2041.85 262.753 1955.8 315.95 1806.25 244.817C1781.95 233.26 1759.68 221.265 1738.05 210.447C1670.03 176.219 1613.32 149.899 1534.67 144.451C1477.94 140.52 1409.89 148.04 1319 171.575C1310.26 173.836 1301.58 176.197 1292.9 178.592C1248.42 190.881 1204.1 204.622 1161.08 216.137C1116.47 228.14 1074.81 238.371 1034.04 248.878C983.835 261.815 934.342 274.415 885.137 285.575C831.233 297.803 777.834 308.254 726.204 314.791C688.268 319.578 651.529 322.038 615.857 320.348C610.141 320.067 604.517 319.773 599.012 319.258C414.169 302.075 344.885 184.093 340.551 191.867" stroke="#3CC0A3" stroke-opacity="0.15" stroke-width="0.864782" stroke-miterlimit="10"/>
<path d="M2045.32 264.803C2044.93 261.284 1958.18 319.609 1806.47 249.008C1782.28 237.753 1760.26 226.1 1739.13 215.165C1672.36 180.504 1617.09 151.11 1538.51 143.483C1482.78 138.074 1415.39 144.006 1324.37 166.646C1315.72 168.817 1307.11 171.056 1298.53 173.352C1254.48 185.144 1210.98 198.522 1168.57 211.126C1124.55 224.245 1082.5 236.884 1041.33 249.358C990.667 264.833 941.056 279.777 892.254 292.485C838.69 306.611 786.168 317.97 735.359 324.261C697.876 328.897 661.436 330.617 625.95 327.928C620.254 327.491 614.657 326.998 609.172 326.354C422.276 304.423 353.874 179.856 351.707 183.739" stroke="#3CC0A3" stroke-opacity="0.15" stroke-width="0.864782" stroke-miterlimit="10"/>
<path d="M2048 259.809C2048 259.809 1960.57 323.232 1806.68 253.193C1652.78 183.154 1592.37 98.4751 1329.73 161.712C1067.1 224.949 837.627 356.6 636.027 335.499C434.427 314.398 362.852 175.609 362.852 175.609" stroke="#3CC0A3" stroke-opacity="0.15" stroke-width="0.864782" stroke-miterlimit="10"/>
<path d="M1817.19 155.649C1804.01 120.232 1765.41 99.1957 1727.72 96.4544C1690.02 93.713 1652.93 105.963 1617.78 119.838C1545.07 148.527 1475.38 184.874 1401.2 209.507C1327.02 234.141 1246.11 246.637 1170.7 226.064C1124.34 213.416 1081.75 188.757 1034.88 178.168C940.898 156.929 844.838 194.391 749.123 205.469C676.707 213.849 649.509 179.032 609.171 127.6C570.014 77.6713 512.087 42.8292 449.628 31.6346C387.169 20.44 320.749 33.001 266.688 66.2259" stroke="#3CC0A3" stroke-opacity="0.15" stroke-width="0.864782" stroke-miterlimit="10"/>
<path d="M1818.56 150.664C1803.9 117.452 1764.47 97.6957 1726.17 96.1693C1687.81 94.6819 1649.97 107.641 1613.86 121.797C1540.8 150.504 1470.33 185.977 1395.86 208.82C1321.67 231.767 1241.38 241.993 1165.93 221.42C1119.73 208.82 1077.1 184.974 1030.37 174.843C936.705 154.525 841.086 191.412 745.756 202.395C673.763 210.692 645.481 176.996 604.568 126.774C565.155 78.091 507.704 43.5516 445.794 33.7623C384.014 23.8779 318.744 37.4074 265.18 70.6193" stroke="#3CC0A3" stroke-opacity="0.15" stroke-width="0.864782" stroke-miterlimit="10"/>
<path d="M1819.93 145.674C1803.8 114.672 1763.54 96.187 1724.63 95.8757C1685.6 95.6422 1647.02 109.306 1609.94 123.752C1536.53 152.476 1465.24 186.903 1390.54 208.124C1316.29 229.216 1236.67 237.337 1161.18 216.764C1115.13 204.216 1072.47 181.173 1025.86 171.505C932.528 152.108 837.35 188.42 742.401 199.312C670.832 207.528 641.317 175.081 599.976 125.935C560.17 78.6146 503.332 44.2611 441.968 35.8727C380.862 27.2984 316.743 41.7965 263.68 74.9955" stroke="#3CC0A3" stroke-opacity="0.15" stroke-width="0.864782" stroke-miterlimit="10"/>
<path d="M1821.3 140.684C1803.7 111.887 1762.61 94.6818 1723.09 95.5855C1683.39 96.6059 1644.07 110.979 1606.02 125.706C1532.26 154.447 1460.18 187.918 1385.2 207.428C1310.93 226.756 1231.95 232.684 1156.41 212.106C1110.52 199.606 1067.82 177.377 1021.35 168.171C928.34 149.695 833.603 185.428 739.039 196.233C667.894 204.366 637.228 173.105 595.373 125.105C555.247 79.0897 498.928 45.1384 438.129 37.9953C377.686 30.8911 314.729 46.2021 262.168 79.3881" stroke="#3CC0A3" stroke-opacity="0.15" stroke-width="0.864782" stroke-miterlimit="10"/>
<path d="M1822.67 135.693C1803.6 109.106 1761.67 93.1721 1721.55 95.2951C1681.19 97.5695 1641.12 112.647 1602.11 127.664C1527.99 156.422 1455.13 188.947 1379.88 206.735C1305.58 224.303 1227.24 228.031 1151.65 207.453C1105.92 195 1063.19 173.58 1016.84 164.837C924.159 147.282 829.863 182.439 735.684 193.15C664.962 201.201 633.151 171.119 590.781 124.27C550.348 79.5561 494.557 45.9031 434.303 40.1091C374.534 34.3626 312.732 50.5946 260.668 83.7676" stroke="#3CC0A3" stroke-opacity="0.15" stroke-width="0.864782" stroke-miterlimit="10"/>
<path d="M1824.04 130.71C1803.5 106.327 1760.74 91.6734 1720.01 95.0114C1678.98 98.5398 1638.16 114.326 1598.18 129.629C1523.71 158.404 1450.07 189.982 1374.54 206.049C1300.22 221.862 1222.51 223.388 1146.88 202.807C1101.31 190.406 1058.53 169.793 1012.32 161.509C919.97 144.875 826.111 179.453 732.317 190.077C662.019 198.046 629.066 169.149 586.178 123.445C545.438 80.0334 490.174 46.6744 430.469 42.2381C371.379 37.8493 310.723 55.0023 259.16 88.1667" stroke="#3CC0A3" stroke-opacity="0.15" stroke-width="0.864782" stroke-miterlimit="10"/>
<path d="M1825.41 125.719C1803.4 103.546 1759.8 90.0731 1718.48 94.7213C1676.76 99.4128 1635.21 115.999 1594.27 131.583C1519.45 160.376 1445.03 191.01 1369.22 205.357C1294.88 219.423 1217.8 218.735 1142.12 198.158C1096.71 185.804 1053.9 166.001 1007.82 158.179C915.794 142.466 822.375 176.469 728.966 186.998C659.092 194.885 625.006 167.168 581.59 122.615C540.552 80.5043 485.811 47.4351 426.647 44.3607C368.235 41.3254 308.729 59.408 257.664 92.5551" stroke="#3CC0A3" stroke-opacity="0.15" stroke-width="0.864782" stroke-miterlimit="10"/>
<path d="M1826.77 120.729C1803.29 100.761 1758.86 88.5592 1716.93 94.4311C1674.55 100.368 1632.25 117.668 1590.34 133.541C1515.17 162.351 1439.97 192.052 1363.88 204.665C1289.53 216.984 1213.07 214.087 1137.35 193.505C1092.1 181.199 1049.25 162.208 1003.31 154.845C911.601 140.053 818.624 173.481 725.6 183.919C656.149 191.723 620.939 165.188 576.983 121.78C535.655 80.9664 481.428 48.1912 422.805 46.4746C365.076 44.7883 306.712 63.8005 256.148 96.9389" stroke="#3CC0A3" stroke-opacity="0.15" stroke-width="0.864782" stroke-miterlimit="10"/>
<path d="M1828.14 115.739C1803.19 97.9809 1757.92 87.0457 1715.39 94.1413C1672.33 101.328 1629.27 119.25 1586.43 135.495C1510.84 164.163 1434.94 193.094 1358.55 203.969C1284.2 214.554 1208.36 209.434 1132.59 188.848C1087.49 176.59 1044.61 158.408 998.803 151.511C907.421 137.635 814.885 170.489 722.241 180.836C653.214 188.563 616.88 163.203 572.387 120.945C530.774 81.4246 477.062 48.9391 418.979 48.5932C361.934 48.2516 304.715 68.1978 254.645 101.323" stroke="#3CC0A3" stroke-opacity="0.15" stroke-width="0.864782" stroke-miterlimit="10"/>
<path d="M1829.51 110.754C1803.09 95.2014 1756.99 85.5374 1713.85 93.8566C1670.13 102.293 1626.31 120.92 1582.51 137.459C1506.57 166.135 1429.91 194.154 1353.22 203.282C1278.86 212.133 1203.64 204.787 1127.83 184.2C1082.89 171.994 1039.98 154.621 994.29 148.182C903.237 135.228 811.137 167.506 718.878 177.762C650.275 185.407 612.826 161.223 567.788 120.12C525.893 81.8924 472.692 49.6965 415.145 50.717C358.787 51.7158 302.706 72.6046 253.137 105.713" stroke="#3CC0A3" stroke-opacity="0.15" stroke-width="0.864782" stroke-miterlimit="10"/>
<path d="M1830.88 105.764C1802.98 92.4203 1756.05 84.0233 1712.31 93.5661C1667.91 103.252 1623.36 122.584 1578.59 139.417C1502.29 168.102 1424.87 195.213 1347.89 202.589C1273.53 209.719 1198.92 200.138 1123.07 179.551C1078.28 167.393 1035.33 150.828 989.781 144.852C899.052 132.819 807.394 164.517 715.52 174.687C647.34 182.25 608.784 159.238 563.188 119.293C521.022 82.3499 468.322 50.4481 411.311 52.8436C355.641 55.1785 300.701 77.0099 251.629 110.109" stroke="#3CC0A3" stroke-opacity="0.15" stroke-width="0.864782" stroke-miterlimit="10"/>
<path d="M1832.25 100.775C1802.88 89.6363 1755.11 82.5149 1710.77 93.2771C1665.7 104.212 1620.4 124.254 1574.67 141.372C1498.02 170.07 1419.84 196.273 1342.56 201.898C1268.2 207.307 1194.21 195.486 1118.3 174.9C1073.68 162.788 1030.69 147.032 985.272 141.519C894.867 130.407 803.65 161.53 712.16 171.605C644.405 179.085 604.746 157.241 558.592 118.46C516.158 82.8003 463.959 51.1882 407.485 54.9586C352.502 58.6296 298.699 81.4036 250.129 114.49" stroke="#3CC0A3" stroke-opacity="0.15" stroke-width="0.864782" stroke-miterlimit="10"/>
<path d="M1833.62 95.7844C1802.78 86.8555 1754.18 81.0096 1709.23 92.9868C1663.49 105.176 1617.44 125.922 1570.75 143.33C1493.75 172.041 1414.81 197.344 1337.23 201.206C1262.87 204.907 1189.48 190.837 1113.53 170.246C1069.07 158.187 1026.04 143.239 980.759 138.189C890.679 127.998 799.902 158.542 708.798 168.53C641.466 175.928 600.713 155.247 553.993 117.629C511.294 83.2494 459.593 51.927 403.651 57.0811C349.36 62.0795 296.694 85.8091 248.621 118.883" stroke="#3CC0A3" stroke-opacity="0.15" stroke-width="0.864782" stroke-miterlimit="10"/>
<path d="M1834.99 90.7991C1802.68 84.0797 1753.24 79.505 1707.69 92.7016C1661.28 106.145 1614.49 127.596 1566.83 145.289C1489.48 174.017 1409.78 198.426 1331.9 200.514C1257.55 202.507 1184.77 186.185 1108.78 165.594C1064.47 153.582 1021.41 139.443 976.253 134.855C886.502 125.585 796.163 155.554 705.443 165.447C638.534 172.763 596.688 153.241 549.401 116.794C506.448 83.6905 455.235 52.6578 399.824 59.1956C346.225 65.5215 294.693 90.2023 247.121 123.263" stroke="#3CC0A3" stroke-opacity="0.15" stroke-width="0.864782" stroke-miterlimit="10"/>
<path d="M1836.35 85.8088C1802.58 81.2946 1752.31 77.9998 1706.15 92.4114C1659.07 107.113 1611.54 129.264 1562.92 147.247C1485.21 175.993 1404.75 199.51 1326.57 199.822C1252.22 200.12 1180.05 181.536 1104.01 160.941C1059.86 148.977 1016.77 135.65 971.745 131.521C882.318 123.172 792.419 152.566 702.084 162.368C635.6 169.602 592.672 151.234 544.802 115.964C501.597 84.1311 450.874 53.3881 395.99 61.3181C343.083 68.9628 292.683 94.6036 245.613 127.651" stroke="#3CC0A3" stroke-opacity="0.15" stroke-width="0.864782" stroke-miterlimit="10"/>
<path d="M1837.72 80.8197C1802.48 78.5151 1751.37 76.4958 1704.61 92.1181C1656.86 108.073 1608.58 130.93 1559 149.202C1480.94 177.969 1399.73 200.601 1321.24 199.131C1246.9 197.738 1175.34 176.888 1099.25 156.294C1055.26 144.381 1012.13 131.859 967.239 128.192C878.137 120.764 788.679 149.579 698.729 159.29C632.668 166.442 588.659 149.224 540.21 115.134C496.763 84.5642 446.515 54.1152 392.168 63.4419C339.948 72.4011 290.69 99.0104 244.117 132.045" stroke="#3CC0A3" stroke-opacity="0.15" stroke-width="0.864782" stroke-miterlimit="10"/>
<path d="M1839.09 75.8288C1802.37 75.7294 1750.43 74.99 1703.07 91.8273C1654.64 109.041 1605.62 132.602 1555.08 151.156C1476.67 179.94 1394.69 201.694 1315.9 198.433C1241.56 195.355 1170.61 172.23 1094.48 151.636C1050.65 139.771 1007.48 128.062 962.723 124.858C873.949 118.346 784.928 146.59 695.363 156.21C629.726 163.28 584.645 147.204 535.607 114.303C491.918 84.9912 442.146 54.8362 388.33 65.5595C336.802 75.8288 288.677 103.407 242.602 136.428" stroke="#3CC0A3" stroke-opacity="0.15" stroke-width="0.864782" stroke-miterlimit="10"/>
<path d="M1840.46 70.8443C1802.27 72.9543 1749.5 73.4948 1701.53 91.5428C1652.44 110.015 1602.67 134.28 1551.16 153.12C1472.4 181.926 1389.67 202.806 1310.58 197.747C1236.24 192.99 1165.9 167.587 1089.72 146.988C1046.05 135.171 1002.84 124.27 958.215 121.529C869.765 115.938 781.185 143.603 692 153.133C626.791 160.12 580.638 145.177 531.004 113.469C487.081 85.4072 437.776 55.5463 384.492 67.6792C333.656 79.2543 286.668 107.805 241.09 140.818" stroke="#3CC0A3" stroke-opacity="0.15" stroke-width="0.864782" stroke-miterlimit="10"/>
<path d="M1841.82 65.8545C1802.17 70.1698 1748.56 71.9901 1699.98 91.2531C1650.22 110.983 1599.71 135.954 1547.24 155.078C1468.13 183.91 1384.63 203.921 1305.24 197.055C1230.9 190.625 1161.17 162.935 1084.95 142.336C1041.43 130.57 998.191 120.478 953.698 118.195C865.572 113.526 777.433 140.615 688.633 150.054C623.848 156.959 576.631 143.144 526.4 112.639C482.244 85.8223 433.406 56.2554 380.658 69.7979C330.51 82.6745 284.659 112.207 239.582 145.203" stroke="#3CC0A3" stroke-opacity="0.15" stroke-width="0.864782" stroke-miterlimit="10"/>
<path d="M1843.2 60.8652C1802.07 67.39 1747.63 70.4903 1698.45 90.964C1648.02 111.957 1596.81 137.736 1543.32 157.033C1463.92 186.047 1379.61 205.037 1299.92 196.359C1225.58 188.265 1156.46 158.283 1080.19 137.684C1036.83 125.966 993.555 116.683 949.196 114.862C861.395 111.113 773.697 137.628 685.282 146.976C620.921 153.799 572.644 141.104 521.812 111.81C477.432 86.2336 429.051 56.9607 376.836 71.9215C327.375 86.0909 282.665 116.609 238.086 149.592" stroke="#3CC0A3" stroke-opacity="0.15" stroke-width="0.864782" stroke-miterlimit="10"/>
<path d="M1844.57 55.874C1801.97 64.604 1746.74 69.0792 1696.91 90.6728C1645.86 113.019 1593.85 139.403 1539.41 158.991C1459.65 188.021 1374.58 206.164 1294.59 195.67C1220.25 185.916 1151.74 153.633 1075.43 133.034C1032.23 121.364 988.913 112.893 944.683 111.536C857.211 108.708 769.95 134.643 681.919 143.9C617.982 150.641 568.65 139.057 517.213 110.982C472.607 86.6387 424.681 57.6641 373.002 74.0431C324.228 89.5054 280.656 121.009 236.578 153.984" stroke="#3CC0A3" stroke-opacity="0.15" stroke-width="0.864782" stroke-miterlimit="10"/>
<path d="M1845.93 50.8887C1801.86 61.8282 1745.81 67.579 1695.37 90.3876C1643.64 113.988 1590.9 141.081 1535.49 160.95C1455.38 189.998 1369.54 207.297 1289.26 194.979C1214.92 183.572 1147.02 148.985 1070.67 128.382C1027.63 116.759 984.274 109.097 940.178 108.202C853.03 106.295 766.21 131.655 678.564 140.822C615.05 147.481 564.668 136.995 512.617 110.152C467.791 87.0279 420.31 58.3604 369.176 76.1663C321.085 92.9128 278.659 125.411 235.078 158.372" stroke="#3CC0A3" stroke-opacity="0.15" stroke-width="0.864782" stroke-miterlimit="10"/>
<path d="M1847.31 45.8994C1801.77 59.0441 1744.88 66.0704 1693.83 90.0984C1641.44 114.957 1587.94 142.751 1531.57 162.909C1451.11 191.974 1364.5 208.435 1283.93 194.287C1209.58 181.233 1142.31 144.338 1065.91 123.73C1023.02 112.159 979.635 105.306 935.67 104.869C848.846 103.883 762.467 128.663 675.206 137.739C612.116 144.316 560.683 134.924 508.022 109.314C462.975 87.4089 415.936 59.0398 365.346 78.2812C317.93 96.3119 276.649 129.809 233.57 162.757" stroke="#3CC0A3" stroke-opacity="0.15" stroke-width="0.864782" stroke-miterlimit="10"/>
<path d="M1848.67 40.9092C1801.66 56.2634 1743.94 64.5653 1692.29 89.8083C1639.23 115.92 1584.99 144.424 1527.65 164.867C1446.84 193.95 1359.46 209.581 1278.6 193.595C1204.24 178.898 1137.59 139.685 1061.15 119.077C1018.42 107.554 974.996 101.509 931.164 101.535C844.664 101.47 758.726 125.675 671.85 134.66C609.184 141.155 556.705 132.844 503.43 108.483C458.167 87.7847 411.564 59.7268 361.519 80.3994C314.786 99.7057 274.652 134.206 232.074 167.141" stroke="#3CC0A3" stroke-opacity="0.15" stroke-width="0.864782" stroke-miterlimit="10"/>
<path d="M1850.04 35.9199C1801.56 53.4793 1743.01 63.0568 1690.75 89.5191C1637.02 116.885 1582.04 146.093 1523.73 166.822C1442.57 195.918 1354.42 210.731 1273.27 192.9C1198.9 176.564 1132.87 135.033 1056.38 114.425C1013.81 102.949 970.35 97.713 926.648 98.2016C840.477 99.0534 754.976 122.688 668.485 131.578C606.242 137.99 552.716 130.752 498.823 107.649C453.344 88.1485 407.173 60.4019 357.678 82.5187C311.615 103.096 272.639 138.604 230.555 171.531" stroke="#3CC0A3" stroke-opacity="0.15" stroke-width="0.864782" stroke-miterlimit="10"/>
<path d="M1851.41 30.9346C1801.45 50.7035 1742.07 61.5565 1689.2 89.2338C1634.81 117.854 1579.08 147.771 1519.81 168.785C1438.29 197.898 1349.37 211.89 1267.93 192.216C1193.55 174.246 1128.15 130.389 1051.61 109.781C1009.2 98.3573 965.706 93.9296 922.139 94.8809C836.292 96.6537 751.232 119.709 665.125 128.512C603.306 134.842 548.739 128.668 494.227 106.832C448.532 88.5247 402.789 61.0938 353.851 84.6505C308.459 106.499 270.638 143.019 229.055 175.928" stroke="#3CC0A3" stroke-opacity="0.15" stroke-width="0.864782" stroke-miterlimit="10"/>
<path d="M1852.78 25.9443C1801.36 47.9185 1741.14 60.047 1687.67 88.9437C1632.61 118.818 1576.13 149.44 1515.9 170.739C1434.03 199.869 1344.32 213.049 1262.6 191.52C1188.21 171.92 1123.43 125.736 1046.85 105.124C1004.59 93.7476 961.064 90.1285 917.63 91.5424C832.107 94.2362 747.488 116.716 661.763 125.429C600.367 131.677 544.753 126.553 489.628 105.993C443.716 88.8702 398.398 61.7593 350.017 86.7645C305.291 109.88 268.633 147.412 227.547 180.308" stroke="#3CC0A3" stroke-opacity="0.15" stroke-width="0.864782" stroke-miterlimit="10"/>
<path d="M1854.15 20.9551C1801.25 45.1387 1740.21 58.5428 1686.13 88.6502C1630.4 119.778 1573.18 151.109 1511.97 172.694C1429.75 201.842 1339.26 214.208 1257.27 190.824C1182.85 169.598 1118.71 121.08 1042.08 100.467C999.984 89.1388 956.417 86.3326 913.117 88.2049C827.923 91.8197 743.741 113.72 658.4 122.342C597.428 128.512 540.772 124.426 485.028 105.155C438.896 89.208 394.001 62.4214 346.183 88.8751C302.118 113.258 266.623 151.801 226.039 184.689" stroke="#3CC0A3" stroke-opacity="0.15" stroke-width="0.864782" stroke-miterlimit="10"/>
<path d="M1855.51 15.9648C1801.15 42.3537 1739.28 57.0333 1684.59 88.3601C1628.19 120.742 1570.22 152.782 1508.05 174.652C1425.48 203.817 1334.2 215.379 1251.94 190.132C1177.5 167.284 1113.99 116.431 1037.32 95.8188C995.376 84.5421 951.779 82.5401 908.604 84.875C823.735 89.4108 739.998 110.736 655.037 119.267C594.489 125.355 536.787 122.303 480.425 104.328C434.077 89.5492 389.597 63.0911 342.349 91.002C298.941 116.647 264.618 156.211 224.531 189.081" stroke="#3CC0A3" stroke-opacity="0.15" stroke-width="0.864782" stroke-miterlimit="10"/>
<path d="M1856.89 10.9795C1801.05 39.5778 1738.35 55.5331 1683.05 88.0748C1625.98 121.715 1567.27 154.456 1504.14 176.611C1421.21 205.793 1329.08 216.716 1246.61 189.445C1172.09 165.123 1109.27 111.787 1032.56 91.1708C990.776 79.9416 947.139 78.7525 904.099 81.5501C819.554 87.0068 736.258 107.757 651.682 116.193C591.558 122.199 532.809 120.163 475.833 103.503C429.264 89.8822 385.195 63.7615 338.523 93.1295C295.768 120.033 262.617 160.617 223.031 193.479" stroke="#3CC0A3" stroke-opacity="0.15" stroke-width="0.864782" stroke-miterlimit="10"/>
<path d="M1858.25 5.98926C1800.95 36.7971 1737.41 54.0236 1681.5 87.7847C1623.77 122.679 1564.31 156.128 1500.22 178.57C1416.94 207.769 1324.03 217.813 1241.28 188.752C1166.74 162.744 1104.56 107.134 1027.79 86.5178C986.168 75.3361 942.496 74.9556 899.59 78.2159C815.369 84.5936 732.514 104.765 648.323 113.114C588.623 119.038 528.823 118.013 471.238 102.672C424.444 90.2061 380.747 64.3664 334.693 95.2477C292.548 123.357 260.615 165.014 221.527 197.863" stroke="#3CC0A3" stroke-opacity="0.15" stroke-width="0.864782" stroke-miterlimit="10"/>
<path d="M1859.62 1C1800.85 34.0131 1736.48 52.5194 1679.97 87.4955C1621.57 123.643 1561.36 157.798 1496.3 180.529C1412.67 209.745 1319 218.916 1235.95 188.061C1161.4 160.362 1099.84 102.487 1023.03 81.8658C981.568 70.736 937.857 71.1641 895.085 74.8827C811.193 82.1814 728.775 101.777 644.969 110.032C585.692 115.873 524.842 115.847 466.642 101.834C419.624 90.5136 376.372 65.0761 330.863 97.3627C289.396 126.783 258.61 169.412 220.023 202.243" stroke="#3CC0A3" stroke-opacity="0.15" stroke-width="0.864782" stroke-miterlimit="10"/>
</svg>
